<svg id="Ebene_1" data-name="Ebene 1" xmlns="http://www.w3.org/2000/svg" viewBox="0 0 102 60"><defs><style>.cls-1{fill:#fff}.cls-2{opacity:.67}.cls-3{fill:#9d9d9c}.cls-6{fill:#1d1d1b}.cls-7{opacity:.48}.cls-8{fill:#7c807f}.cls-9{fill:#706f6f}.cls-10{fill:#3c3c3b}.cls-11{fill:#9a877b}.cls-12{opacity:.35}.cls-14{fill:#3f272c}.cls-16{fill:#656766}.cls-18{fill:#575756}.cls-20{opacity:.2}.cls-23{opacity:.09}.cls-25{opacity:.27}.cls-26{opacity:.21}.cls-27{opacity:.53}</style></defs><path class="cls-1" d="M51 1.61c-12.56 0-24.39 2.88-33.3 8.11C8.59 15.06 3.58 22.23 3.58 29.9s5 14.85 14.12 20.19c8.91 5.23 20.74 8.11 33.3 8.11s24.39-2.88 33.3-8.11c9.11-5.34 14.12-12.51 14.12-20.19s-5-14.84-14.12-20.18C75.39 4.49 63.56 1.61 51 1.61z"/><g class="cls-2"><path class="cls-3" d="M50.38 35s-.13.58 0 .59 1.78.43 2.17 0 1.53-.37 1.53-.37l1.12 1.1 2.25-1.1 1.86-.46 2.06-.76.85 1.64s-1.22 2.76-2.07 2.8a3.31 3.31 0 0 0-1.76.91l-1.81.15-3.29.5h-4.88l-9.37.1 4.83-3z"/></g><path d="M94 38.84c-.82-.26-2.8-1.17-2.83-1.19a22.12 22.12 0 0 0-3.7-1.15 12.11 12.11 0 0 1-2.51-1 18.61 18.61 0 0 0-2.48-1 6.67 6.67 0 0 0-2 0h-.66a10.71 10.71 0 0 1-2.69-1.36c-1.92-1-4.88-2.56-5.11-2.62s-3.68-.48-5.75-.61a27.07 27.07 0 0 0-6.31.43l-.1.09a1.88 1.88 0 0 1-1.16.64 15.46 15.46 0 0 0-2.17 1.18 30.4 30.4 0 0 1-2.9 1.6 40.91 40.91 0 0 1-7 1.94c-.81.08-6 2.72-8.49 4.07l55.06.12z" fill="none"/><path d="M94.63 38.66l-1.91 2.75-2.2 2.4-2.36 2.07-3.64 2.55-3.78 2.1-5.9 2.47-4.25 1.32-4.23 1-4.88.83-4.7.47-4.15.23-5.17-.09-4.82-.35-5.7-.83-3.59-.78-4.09-1.13-3.26-1.1-3.44-1.44-2.9-1.46-2.43-1.42-3-2.06-3.44-3.08-2.46-2.89 12.42-1.61h2.1L37 40.15l56.28.23h.09l1-1.5v-.66l-.25.38c-.47-.17-2.48-1-2.85-1.21a21.07 21.07 0 0 0-3.85-1.19 14.92 14.92 0 0 1-2.38-.93 21.4 21.4 0 0 0-2.54-1 7.38 7.38 0 0 0-2.09 0h-.62a10.89 10.89 0 0 1-2.54-1.32c-.82-.43-4.91-2.59-5.19-2.66s-3.73-.48-5.8-.61-6.16.17-6.56.51l-.1.1a1.71 1.71 0 0 1-.94.55A9.26 9.26 0 0 0 56.33 32a31.23 31.23 0 0 1-2.86 1.59 41.86 41.86 0 0 1-6.89 1.91c-1 .1-8 3.75-9.07 4.34l-14.65-1.56h-2.14L7.68 40l2.87 3.38L14 46.45l3 2.08L19.46 50l2.92 1.47 3.46 1.45L29.16 54l4.12 1.15 3.61.77 5.71.84 4.85.35 5.19.1 4.17-.21 4.71-.47 4.9-.84 4.26-1L75 53.32l5.92-2.5 3.82-2.11 3.66-2.57 2.39-2.09L93 41.62l1.93-2.77zm-48-2.8a40.91 40.91 0 0 0 7-1.94 30.4 30.4 0 0 0 2.9-1.6 15.46 15.46 0 0 1 2.17-1.18 1.88 1.88 0 0 0 1.16-.64l.1-.09a27.07 27.07 0 0 1 6.28-.41c2.07.13 5.48.54 5.75.61s3.19 1.61 5.11 2.62a10.71 10.71 0 0 0 2.69 1.36h.66a6.67 6.67 0 0 1 2 0 18.61 18.61 0 0 1 2.48 1 12.11 12.11 0 0 0 2.51 1 22.12 22.12 0 0 1 3.7 1.15s2 .93 2.83 1.19l-.78 1.21-55.06-.12c2.53-1.44 7.67-4.08 8.48-4.16z" fill="#b2b2b2"/><path class="cls-6" d="M51 57.23c-12.39 0-24-2.83-32.81-8S4.55 37.22 4.55 29.9s4.84-14.19 13.64-19.35 20.42-8 32.81-8 24 2.83 32.81 8 13.64 12 13.64 19.35-4.84 14.2-13.64 19.36S63.39 57.23 51 57.23zm0-54.3C25.58 2.93 4.9 15 4.9 29.9s20.68 27 46.1 27 46.1-12.1 46.1-27S76.42 2.93 51 2.93z"/><path class="cls-3" d="M78.26 40.08H78l-.81-.33s.6.39.43.33a13.24 13.24 0 0 1-1.34-.61c-.17-.12-.43-.33-.43-.33a5.33 5.33 0 0 1-1.27-1.39 3.27 3.27 0 0 1-.58-1.38 8 8 0 0 1 .11-3.09 18.53 18.53 0 0 0 .62-1.77 3.7 3.7 0 0 0-.73-1.33.83.83 0 0 0-.71-.09s.3-.46.54-.54a.74.74 0 0 0 .38-.31 1.13 1.13 0 0 1 1-.32 1.93 1.93 0 0 1 1.5 1.33 5.16 5.16 0 0 0 .94 2.38 5.66 5.66 0 0 0 1.12.69 3.69 3.69 0 0 1 1.92 1.32 4.85 4.85 0 0 0 1.51 1.57c.37.18 1.14.5 1.12.59a5.74 5.74 0 0 1-1.11.26s-.08.41-.23.39-.12.34-.24.34-.36-.06-.36.14a1.91 1.91 0 0 1-.71 1.42 4.2 4.2 0 0 1-1.27.64z"/><g class="cls-7"><path class="cls-8" d="M73.89 29.5h.29s-.21.24-.14.26.44.24.31.24-.3.07-.31.12a1 1 0 0 0 0 .11.62.62 0 0 0-.49-.18h-.28s.28-.36.33-.4l.05-.05z"/></g><path class="cls-6" d="M75.08 29.84a.21.21 0 0 1-.21-.22.21.21 0 0 1 .21-.21.21.21 0 0 1 .22.21.22.22 0 0 1-.22.22zm0-.35a.13.13 0 1 0 .13.13.13.13 0 0 0-.13-.13z"/><path class="cls-9" d="M76.41 29.69l.26.56a1.87 1.87 0 0 1-.23-.17 2.41 2.41 0 0 0-.85-.39c-.21 0 0 .18.11.27a7.78 7.78 0 0 1 .12 1.12c0 .05-.26.05-.35.12a2.83 2.83 0 0 0-.3.42c-.07.12-.46.08-.46.08a.57.57 0 0 0 .05-.19 2.91 2.91 0 0 0-.4-.81c-.07-.12-.35-.47-.35-.47v-.11a.22.22 0 0 1 .17-.1h.14l-.06-.09-.11-.07h-.14v-.07l.14-.19H74a1.61 1.61 0 0 1 .34-.39 1.36 1.36 0 0 1 .56-.21 1.8 1.8 0 0 1 .85.22 3.3 3.3 0 0 1 .66.47z"/><path class="cls-6" d="M78.68 41a.89.89 0 0 0-.21-.16v-.08a1.68 1.68 0 0 1 .23.17zM79.15 40.84l-.07-.05.14-.19.07.05-.14.19z"/><path class="cls-10" d="M79.11 33.84s-.51-.38-.39-.4a7.33 7.33 0 0 1 1 .36 4.68 4.68 0 0 1 1 1 7.25 7.25 0 0 0 .91 1.06 4 4 0 0 0 .94.58 2.78 2.78 0 0 1 .67.36l-.69.19-.42.07-.1.28-.13.11-.1.07-.14.27h-.26l-.08.05v.09l-.06.39-.08.25a.92.92 0 0 1-.06-.49 8.32 8.32 0 0 0 .18-1.64c0-.48-.8-1.16-.8-1.16s-.92-.61-1-.83a1 1 0 0 0-.37-.56z"/><g class="cls-7"><path class="cls-11" d="M76.16 29.91s.31 1.11.38 1.4a3.79 3.79 0 0 0 .78 1.5 4.69 4.69 0 0 0 1.17.63c.23 0 .24-.12.24-.12a5.28 5.28 0 0 1-1.12-.69 4.27 4.27 0 0 1-.54-.92c0-.09-.17-.61-.17-.61l-.23-.85z"/></g><path d="M76.77 31.93a1.85 1.85 0 0 0-.1 1.71c.4 1 1.22 3 1.22 3a4.08 4.08 0 0 1 1.22 1.14c.26.52-.51.28-.51.28l.89.35.27.39.47.38.4.19.57-.78-.06-.49.09-.51v-.52l.09-.3-.12-.65-.34-.46-.34-.36-.58-.42-.37-.41-.08-.28-.29-.28-.28-.2-.2-.25-.23-.23-.23-.13-.65-.45-.16-.16z" fill="#f6f6f6"/><path class="cls-9" d="M78.43 35.93s0 .12-.07.1 0-.12.07-.29a8.57 8.57 0 0 0 .17-1.31c0-.09-.06-.41 0-.34a5.66 5.66 0 0 1 .11 1.56 1.35 1.35 0 0 1-.28.28zM78.71 36.32c-.06.08-.25.37-.22.42s.2-.05.22-.12a1.44 1.44 0 0 0 0-.3zM78.74 34s.71 1.9.76 2.19a3.61 3.61 0 0 1 .18 1.61c-.16.71.26-.44.26-.59a3.51 3.51 0 0 0-.17-1.42c-.21-.3-1.03-1.79-1.03-1.79z"/><path class="cls-9" d="M79.11 34.17a16.39 16.39 0 0 1 1 1.68 2.71 2.71 0 0 1 0 1.44c-.17.48-.06.6-.06.6a4.24 4.24 0 0 0 .26-.91v-.29a2.1 2.1 0 0 0-.3-1.34 14.65 14.65 0 0 0-.9-1.18zM80.58 37.82a2.65 2.65 0 0 0 0-.94.94.94 0 0 1-.12-.44s.39.51.35.72-.23.66-.23.66z"/><path class="cls-9" d="M80.41 35.59a6.08 6.08 0 0 1 .44 1.09v1c0 .22.14-.69.14-.73a3 3 0 0 0-.29-.95c-.2-.37-.29-.41-.29-.41zM79.06 36.54s-.09-.58 0-.4a4.48 4.48 0 0 1 .43 1.26 2.51 2.51 0 0 1-.07.25l-.16-.7a1.18 1.18 0 0 0-.2-.41z"/><path class="cls-14" d="M79.36 40l-.1.63s.25.62.36.63.4.28.34.28h-.33s.64.45.51.47a5.8 5.8 0 0 1-.73-.12L79 42l-.21.34-.07-.45a2.39 2.39 0 0 1-.57.18c-.16 0-.09-.27-.09-.27s.57.14.7-.07a3.14 3.14 0 0 0 .29-.85c0-.06-.29 0-.29 0l-.64.72s-.36.27-.36.45a2.68 2.68 0 0 1 0 .4s-.47-.1-.47-.16-.58.27-.66.25-.07-.13-.07-.13a1 1 0 0 1-.28.07l-.15-.12s-.35.23-.44.18.08-.27.08-.27a4.24 4.24 0 0 0 .92-.13 4.72 4.72 0 0 0 1-.63c.23-.24.81-.79.81-.79l-.31-.09.09-.59z"/><path d="M79.36 40a4.2 4.2 0 0 0 1.27-.64A3.24 3.24 0 0 1 80 39c-.08-.1-.38-.37-.63-.61a22.52 22.52 0 0 0-3.55-1.2H75l-.45.59a5.33 5.33 0 0 0 1.27 1.39s.26.21.43.33a13.24 13.24 0 0 0 1.34.61c.17.06-.43-.33-.43-.33l.81.33h.3l-.09.59.31.09-.24.22h.47l.05-.06s.29-.1.29 0v.1h.39c-.08-.17-.16-.36-.16-.36z" fill="#d8d3d2"/><path class="cls-9" d="M77.81 42s0-.29.08-.41a5.85 5.85 0 0 1 .52-.49 1.6 1.6 0 0 1 .35-.13l-.64.72zM79 42a.67.67 0 0 1 .19-.29 1.86 1.86 0 0 1 .23-.18l-.21.41zM75.08 38.33l-.08-.27-.1-.31a1.35 1.35 0 0 0 .41-.24 1 1 0 0 1 .46-.22l.66.27.8.1a15.64 15.64 0 0 1 1.77 1.1 2.83 2.83 0 0 0 .1.35s-.11.11-.12.09-.18-.2-.24-.19-.12 0-.13.07-.2.13-.2.13.09.2 0 .2-.22-.07-.24-.16 0-.24-.1-.3-.16-.24-.22-.21 0 .29-.07.29-.14.09-.22.07-.75-.49-.79-.51-.08.09 0 .15.25.4.15.38-.1-.1-.2-.13-.06.11-.06.13v.14a1.51 1.51 0 0 1-.22-.11v.35l-1.36-1.17z"/><path class="cls-10" d="M76.24 39.11c-.28-.24-.71-.6-1-.87l-.08-.24v-.18a1.3 1.3 0 0 0 .33-.23 1 1 0 0 1 .33-.16l.61.26.77.09c.19.11 1.41.85 1.62 1v.05a.3.3 0 0 0-.11 0 .23.23 0 0 0-.24.19h-.07a.43.43 0 0 0-.12-.22l-.05-.07c-.07-.09-.14-.19-.27-.19h-.08a.31.31 0 0 0-.13.31c-.14-.08-.64-.43-.71-.48a.21.21 0 0 0-.11 0 .22.22 0 0 0-.16.09.35.35 0 0 0 0 .3l-.08.05a.21.21 0 0 0 0 .12h-.13V39z"/><ellipse class="cls-14" cx="74.99" cy="29.7" rx=".27" ry=".2"/><path class="cls-14" d="M74 29.85a.08.08 0 0 1 0-.12l.07-.13H74a.09.09 0 1 1 0-.18h.36l-.22.4a.07.07 0 0 1-.14.03z"/><g class="cls-7"><path class="cls-16" d="M73.36 30a1.16 1.16 0 0 1 .4 0 1.3 1.3 0 0 0 .32.06c.06 0 0 .1 0 .1v.11l-.15-.11-.13-.06h-.49l.19-.25z"/></g><path class="cls-1" d="M20.32 25.39a17 17 0 0 0 1.49-1.31 5.59 5.59 0 0 0 .31-1.41 1.63 1.63 0 0 0 .31-.72A9 9 0 0 0 21 19.64l-1.6-1.57s-.28-.51-.09-.74a.6.6 0 0 1 .74-.17c.22.15 1.55 1.35 1.69 1.42s2 1.35 2.31 1.5a2.55 2.55 0 0 0 1 .19c.31 0 1.64-.42 2-.46s1.39-.18 1.86-.2 3 .16 3.64.15 5.71-.7 6.1-.8 4.55-1.21 4.9-1.27l2.09-.42s2.47-.09 2.94-.06a3.61 3.61 0 0 0 1 .06c.27-.06.68-.27.87-.29a5.13 5.13 0 0 0 1-.11c.19-.06.45-.28.7-.28s1.93-.19 2.12-.24 4.56-1.66 5-1.72 1.32-.18 1.47-.19a5.69 5.69 0 0 1 1 .19 5.54 5.54 0 0 0 .8.17 5.5 5.5 0 0 1 .77.39c.07 0 1.41 1.3 1.53 1.46a8.54 8.54 0 0 1 .52 1.35c0 .14 3.13 2.49 3.13 2.49s.39.36.4.46a.54.54 0 0 1-.12.46c-.15.15-2.23 1.54-2.23 1.54a1.56 1.56 0 0 1-1 .07 11 11 0 0 1-2-.79l-1.35-.84a1.56 1.56 0 0 1 0 .35.54.54 0 0 1-.65-.07 1.68 1.68 0 0 0-.4-.27s-1.19.19-1.38.19a15.66 15.66 0 0 0-1.69.74 18.39 18.39 0 0 0-2.87 1 16.35 16.35 0 0 0-1.45 2.1 2.46 2.46 0 0 1-.2 1.25c-.28.44-1.15 1.51-1.15 1.51L49.88 31a4.82 4.82 0 0 0-.88 1.66c0 .61-.78 3.75-.78 3.75l-.32 5h-2.2s-.05-5.15-.09-5.37-.09-2.4-.09-2.4-.37 0-.37-.24a4.39 4.39 0 0 0 0-1 1.24 1.24 0 0 0-.26-.35 20.09 20.09 0 0 1-4-.72c-1.2-.48-5.26-1.79-5.72-1.95a15.74 15.74 0 0 0-3.17-.9c-.78 0-1.2-.17-1.13.11a12.76 12.76 0 0 1 .66 2.41 16 16 0 0 1-1.46 2.11c-.11 0-3.38 1.71-3.93 1.9S23.3 36.5 23 37.24a1.56 1.56 0 0 0-.11 1.2h-2.14a9.16 9.16 0 0 1-.86-1.26c0-.16-.37-.94-.24-1.14a22.16 22.16 0 0 1 2.47-1.42A20.14 20.14 0 0 0 24.7 33a2.86 2.86 0 0 0 .35-2.14 3.48 3.48 0 0 0-.79-1.11s-3.65 2-3.75 2.18a4.35 4.35 0 0 1-1.27 1c-.59.28-1 .74-1.44.72a10.1 10.1 0 0 0-2 .52 10.9 10.9 0 0 0-1.59.28c-.41.16-2.16.72-2.42.79a10 10 0 0 0-3.15 2.14 8.15 8.15 0 0 0-.89 1.94l-1-1.76a12.15 12.15 0 0 0 .71-1.12 12.6 12.6 0 0 1 1.09-2.49 2.53 2.53 0 0 1 1.33-.61 11.76 11.76 0 0 0 2.95-1c.33-.26 5.29-3.58 5.48-4s1-1.81 1.2-2.07.81-.88.81-.88z"/><path class="cls-1" d="M47.91 41.5h-2.2a.09.09 0 0 1-.09-.09c0-2.06-.06-5.19-.09-5.35s-.07-1.91-.08-2.34c-.17 0-.38-.12-.38-.32v-.27a2.74 2.74 0 0 0 0-.66 1.37 1.37 0 0 0-.22-.3 19 19 0 0 1-4-.72c-1-.41-4.09-1.41-5.25-1.79l-.46-.15-.41-.15a12.28 12.28 0 0 0-2.73-.79h-.66a1.3 1.3 0 0 0-.39 0c0 .08.1.3.18.54a5.74 5.74 0 0 1 .5 1.92 16.16 16.16 0 0 1-1.53 2.17l-.67.33c-1.07.53-2.86 1.42-3.26 1.57s-2.8 1.47-3.12 2.18a1.51 1.51 0 0 0-.11 1.13v.08a.12.12 0 0 1-.08 0h-2.11a.08.08 0 0 1-.07 0 6.62 6.62 0 0 1-.87-1.32 1.74 1.74 0 0 0-.09-.3c-.14-.41-.24-.73-.14-.89a21 21 0 0 1 2.5-1.45A22.21 22.21 0 0 0 24.63 33a2.82 2.82 0 0 0 .37-2.1 3.24 3.24 0 0 0-.72-1c-1.43.8-3.55 2-3.68 2.13a4.33 4.33 0 0 1-1.29 1 5 5 0 0 0-.6.36 1.62 1.62 0 0 1-.89.37 10.62 10.62 0 0 0-1.91.52 10.32 10.32 0 0 0-1.57.28c-.43.15-2.18.72-2.43.79a10 10 0 0 0-3.1 2.1 8.3 8.3 0 0 0-.88 1.92.09.09 0 0 1-.07.06.1.1 0 0 1-.09 0l-1-1.76a.09.09 0 0 1 0-.1 11.74 11.74 0 0 0 .63-1.17 11.78 11.78 0 0 1 1.12-2.54 2.61 2.61 0 0 1 1.39-.64 12.76 12.76 0 0 0 2.9-1c.09-.08.55-.39 1.18-.83 1.34-.92 4.15-2.85 4.28-3.1a23.85 23.85 0 0 1 1.21-2.09c.21-.26.75-.84.78-.87A14.91 14.91 0 0 0 21.74 24a4.87 4.87 0 0 0 .26-1.34 1.52 1.52 0 0 0 .29-.66 8.71 8.71 0 0 0-1.39-2.3l-1.57-1.56c0-.06-.3-.58-.08-.84a.68.68 0 0 1 .86-.19c.12.08.53.43.92.78s.7.6.76.64.28.18.69.45c.61.4 1.44.95 1.62 1a2.36 2.36 0 0 0 1 .19 7.85 7.85 0 0 0 1-.24 8.23 8.23 0 0 1 1-.22l.62-.08c.44 0 .94-.12 1.23-.13s1 0 1.81.07 1.53.09 1.84.08c.6 0 5.67-.69 6.08-.79l1.6-.42c1.37-.37 3.08-.82 3.3-.86l2.09-.41c.11 0 2.49-.1 3-.07a4.31 4.31 0 0 1 .46.05 1.38 1.38 0 0 0 .49 0l.41-.14a1.81 1.81 0 0 1 .48-.15h.12a5.59 5.59 0 0 0 .81-.1l.21-.1a1.1 1.1 0 0 1 .52-.19c.24 0 1.91-.19 2.1-.24s.59-.2 1.22-.43c1.83-.66 3.5-1.25 3.78-1.29s1.31-.18 1.48-.19a6.62 6.62 0 0 1 1.06.19 6.91 6.91 0 0 0 .78.18 3.19 3.19 0 0 1 .71.34h.09c.1.05 1.47 1.37 1.56 1.49a8.65 8.65 0 0 1 .49 1.48c.14.17 2 1.59 3.11 2.45.19.18.42.41.43.53a.59.59 0 0 1-.15.5c-.15.15-2 1.41-2.24 1.55a1.69 1.69 0 0 1-1 .09 11.75 11.75 0 0 1-2-.8l-1.23-.77v.25a.49.49 0 0 1-.24.11.67.67 0 0 1-.54-.16c-.23-.17-.33-.23-.36-.25s-1.19.18-1.37.18a15 15 0 0 0-1.66.74 16.35 16.35 0 0 0-2.83 1 17.49 17.49 0 0 0-1.44 2.05v.17a2 2 0 0 1-.21 1.12c-.27.43-1.11 1.47-1.15 1.52L50 31a4.8 4.8 0 0 0-.85 1.66c0 .6-.76 3.63-.79 3.76l-.31 5a.09.09 0 0 1-.14.08zm-2.12-.18h2l.31-4.92s.75-3.15.78-3.74a5 5 0 0 1 .89-1.77l2.54-2.74s.86-1.07 1.13-1.5a1.93 1.93 0 0 0 .19-1 1.18 1.18 0 0 1 0-.19 15.07 15.07 0 0 1 1.48-2.15 16.59 16.59 0 0 1 2.9-1.05 12.5 12.5 0 0 1 1.72-.74c.15 0 1-.14 1.37-.19a1.82 1.82 0 0 1 .43.3.52.52 0 0 0 .53.08v-.31a.08.08 0 0 1 0-.07h.09s1.22.77 1.35.84a10.19 10.19 0 0 0 1.94.79 1.59 1.59 0 0 0 .92-.07c.82-.55 2.1-1.42 2.21-1.52a.45.45 0 0 0 .23-.37 2 2 0 0 0-.36-.4 34.83 34.83 0 0 1-3.17-2.6 9.76 9.76 0 0 0-.5-1.33c-.13-.16-1.42-1.37-1.51-1.43l-.1-.06a4.76 4.76 0 0 0-.64-.32 5.84 5.84 0 0 1-.81-.18 6.58 6.58 0 0 0-1-.18l-1.46.18c-.28 0-2.45.82-3.75 1.29-.76.27-1.16.42-1.23.43s-1.89.24-2.14.24a1 1 0 0 0-.43.17l-.24.12a6.19 6.19 0 0 1-.86.1h-.12a2.93 2.93 0 0 0-.43.14 3.18 3.18 0 0 1-.43.15 1.51 1.51 0 0 1-.56 0 3.88 3.88 0 0 0-.44-.05c-.47 0-2.92.06-2.94.06l-2.08.41c-.21 0-2 .51-3.28.86l-1.61.42c-.41.1-5.51.78-6.12.8-.31 0-1.1 0-1.85-.08s-1.55-.09-1.79-.08-.78.08-1.22.14l-.63.07c-.17 0-.56.12-.95.22a6.3 6.3 0 0 1-1.08.24 2.47 2.47 0 0 1-1-.21c-.2-.09-1-.62-1.65-1l-.67-.44c-.07 0-.35-.28-.79-.66s-.8-.69-.91-.76a.5.5 0 0 0-.63.15c-.12.14 0 .5.1.63L21 19.58a8.36 8.36 0 0 1 1.48 2.36 1.48 1.48 0 0 1-.31.76 5 5 0 0 1-.32 1.43 18 18 0 0 1-1.5 1.33l-.77.85c-.21.26-1 1.68-1.19 2.06a41 41 0 0 1-4.33 3.17c-.61.41-1.08.74-1.17.81a11.82 11.82 0 0 1-3 1 2.39 2.39 0 0 0-1.25.65 12.47 12.47 0 0 0-1.06 2.43s0 .1-.69 1.12l.88 1.54a8.45 8.45 0 0 1 .85-1.78 9.93 9.93 0 0 1 3.19-2.17c.26-.07 2-.63 2.42-.79a11.1 11.1 0 0 1 1.6-.29 10 10 0 0 1 2-.52 1.63 1.63 0 0 0 .78-.35 5.3 5.3 0 0 1 .62-.36 4.18 4.18 0 0 0 1.23-.94c.12-.15 2.93-1.73 3.79-2.21a.12.12 0 0 1 .1 0 3.47 3.47 0 0 1 .81 1.15 3 3 0 0 1-.36 2.23 21.35 21.35 0 0 1-2.61 1.64 21.61 21.61 0 0 0-2.43 1.39c-.07.09.08.52.15.73a1.23 1.23 0 0 1 .1.36 8.75 8.75 0 0 0 .81 1.17h1.95a1.76 1.76 0 0 1 .15-1.14c.36-.8 2.71-2.1 3.22-2.28s2.24-1.06 3.24-1.56L30 33a17.28 17.28 0 0 0 1.45-2 7.67 7.67 0 0 0-.45-1.83c-.1-.27-.17-.47-.19-.56a.18.18 0 0 1 0-.19c.08-.1.24-.08.53-.06a5.79 5.79 0 0 0 .65 0 12 12 0 0 1 2.84.8l.4.14.46.15c1.16.38 4.25 1.39 5.27 1.8a19.59 19.59 0 0 0 3.95.71.05.05 0 0 1 .09.04 1.38 1.38 0 0 1 .28.37 2.27 2.27 0 0 1 0 .74v.26c0 .06.23.15.29.15a.09.09 0 0 1 .08.09c0 .6.05 2.21.09 2.38s.05 4.51.05 5.33z"/><g opacity=".61"><path class="cls-18" d="M20.32 25.39a17 17 0 0 0 1.49-1.31 5.59 5.59 0 0 0 .31-1.41 1.63 1.63 0 0 0 .31-.72A9 9 0 0 0 21 19.64l-1.6-1.57s-.28-.51-.09-.74a.6.6 0 0 1 .74-.17c.22.15 1.55 1.35 1.69 1.42s2 1.35 2.31 1.5a2.55 2.55 0 0 0 1 .19c.31 0 1.64-.42 2-.46s1.39-.18 1.86-.2 3 .16 3.64.15 5.71-.7 6.1-.8 4.55-1.21 4.9-1.27l2.09-.42s2.47-.09 2.94-.06a3.61 3.61 0 0 0 1 .06c.27-.06.68-.27.87-.29a5.13 5.13 0 0 0 1-.11c.19-.06.45-.28.7-.28s1.93-.19 2.12-.24 4.56-1.66 5-1.72 1.32-.18 1.47-.19a5.69 5.69 0 0 1 1 .19 5.54 5.54 0 0 0 .8.17 5.5 5.5 0 0 1 .77.39c.07 0 1.41 1.3 1.53 1.46a8.54 8.54 0 0 1 .52 1.35c0 .14 3.13 2.49 3.13 2.49s.39.36.4.46a.54.54 0 0 1-.12.46c-.15.15-2.23 1.54-2.23 1.54a1.56 1.56 0 0 1-1 .07 11 11 0 0 1-2-.79l-1.35-.84a1.56 1.56 0 0 1 0 .35.54.54 0 0 1-.65-.07 1.68 1.68 0 0 0-.4-.27s-1.19.19-1.38.19a15.66 15.66 0 0 0-1.69.74 18.39 18.39 0 0 0-2.87 1 16.35 16.35 0 0 0-1.45 2.1 2.46 2.46 0 0 1-.2 1.25c-.28.44-1.15 1.51-1.15 1.51L49.88 31a4.82 4.82 0 0 0-.88 1.66c0 .61-.78 3.75-.78 3.75l-.32 5h-2.2s-.05-5.15-.09-5.37-.09-2.4-.09-2.4-.37 0-.37-.24a4.39 4.39 0 0 0 0-1 1.24 1.24 0 0 0-.26-.35 20.09 20.09 0 0 1-4-.72c-1.2-.48-5.26-1.79-5.72-1.95a15.74 15.74 0 0 0-3.17-.9c-.78 0-1.2-.17-1.13.11a12.76 12.76 0 0 1 .66 2.41 16 16 0 0 1-1.46 2.11c-.11 0-3.38 1.71-3.93 1.9S23.3 36.5 23 37.24a1.56 1.56 0 0 0-.11 1.2h-2.14a9.16 9.16 0 0 1-.86-1.26c0-.16-.37-.94-.24-1.14a22.16 22.16 0 0 1 2.47-1.42A20.14 20.14 0 0 0 24.7 33a2.86 2.86 0 0 0 .35-2.14 3.48 3.48 0 0 0-.79-1.11s-3.65 2-3.75 2.18a4.35 4.35 0 0 1-1.27 1c-.59.28-1 .74-1.44.72a10.1 10.1 0 0 0-2 .52 10.9 10.9 0 0 0-1.59.28c-.41.16-2.16.72-2.42.79a10 10 0 0 0-3.15 2.14 8.15 8.15 0 0 0-.89 1.94l-1-1.76a12.15 12.15 0 0 0 .71-1.12 12.6 12.6 0 0 1 1.09-2.49 2.53 2.53 0 0 1 1.33-.61 11.76 11.76 0 0 0 2.95-1c.33-.26 5.29-3.58 5.48-4s1-1.81 1.2-2.07.81-.88.81-.88z"/><path class="cls-10" d="M47.91 41.5h-2.2a.09.09 0 0 1-.09-.09c0-2.06-.06-5.19-.09-5.35s-.07-1.91-.08-2.34c-.17 0-.38-.12-.38-.32v-.27a2.74 2.74 0 0 0 0-.66 1.37 1.37 0 0 0-.22-.3 19 19 0 0 1-4-.72c-1-.41-4.09-1.41-5.25-1.79l-.46-.15-.41-.15a12.28 12.28 0 0 0-2.73-.79h-.66a1.3 1.3 0 0 0-.39 0c0 .08.1.3.18.54a5.74 5.74 0 0 1 .5 1.92 16.16 16.16 0 0 1-1.53 2.17l-.67.33c-1.07.53-2.86 1.42-3.26 1.57s-2.8 1.47-3.12 2.18a1.51 1.51 0 0 0-.11 1.13v.08a.12.12 0 0 1-.08 0h-2.11a.08.08 0 0 1-.07 0 6.62 6.62 0 0 1-.87-1.32 1.74 1.74 0 0 0-.09-.3c-.14-.41-.24-.73-.14-.89a21 21 0 0 1 2.5-1.45A22.21 22.21 0 0 0 24.63 33a2.82 2.82 0 0 0 .37-2.1 3.24 3.24 0 0 0-.72-1c-1.43.8-3.55 2-3.68 2.13a4.33 4.33 0 0 1-1.29 1 5 5 0 0 0-.6.36 1.62 1.62 0 0 1-.89.37 10.62 10.62 0 0 0-1.91.52 10.32 10.32 0 0 0-1.57.28c-.43.15-2.18.72-2.43.79a10 10 0 0 0-3.1 2.1 8.3 8.3 0 0 0-.88 1.92.09.09 0 0 1-.07.06.1.1 0 0 1-.09 0l-1-1.76a.09.09 0 0 1 0-.1 11.74 11.74 0 0 0 .63-1.17 11.78 11.78 0 0 1 1.12-2.54 2.61 2.61 0 0 1 1.39-.64 12.76 12.76 0 0 0 2.9-1c.09-.08.55-.39 1.18-.83 1.34-.92 4.15-2.85 4.28-3.1a23.85 23.85 0 0 1 1.21-2.09c.21-.26.75-.84.78-.87A14.91 14.91 0 0 0 21.74 24a4.87 4.87 0 0 0 .26-1.34 1.52 1.52 0 0 0 .29-.66 8.71 8.71 0 0 0-1.39-2.3l-1.57-1.56c0-.06-.3-.58-.08-.84a.68.68 0 0 1 .86-.19c.12.08.53.43.92.78s.7.6.76.64.28.18.69.45c.61.4 1.44.95 1.62 1a2.36 2.36 0 0 0 1 .19 7.85 7.85 0 0 0 1-.24 8.23 8.23 0 0 1 1-.22l.62-.08c.44 0 .94-.12 1.23-.13s1 0 1.81.07 1.53.09 1.84.08c.6 0 5.67-.69 6.08-.79l1.6-.42c1.37-.37 3.08-.82 3.3-.86l2.09-.41c.11 0 2.49-.1 3-.07a4.31 4.31 0 0 1 .46.05 1.38 1.38 0 0 0 .49 0l.41-.14a1.81 1.81 0 0 1 .48-.15h.12a5.59 5.59 0 0 0 .81-.1l.21-.1a1.1 1.1 0 0 1 .52-.19c.24 0 1.91-.19 2.1-.24s.59-.2 1.22-.43c1.83-.66 3.5-1.25 3.78-1.29s1.31-.18 1.48-.19a6.62 6.62 0 0 1 1.06.19 6.91 6.91 0 0 0 .78.18 3.19 3.19 0 0 1 .71.34h.09c.1.05 1.47 1.37 1.56 1.49a8.65 8.65 0 0 1 .49 1.48c.14.17 2 1.59 3.11 2.45.19.18.42.41.43.53a.59.59 0 0 1-.15.5c-.15.15-2 1.41-2.24 1.55a1.69 1.69 0 0 1-1 .09 11.75 11.75 0 0 1-2-.8l-1.23-.77v.25a.49.49 0 0 1-.24.11.67.67 0 0 1-.54-.16c-.23-.17-.33-.23-.36-.25s-1.19.18-1.37.18a15 15 0 0 0-1.66.74 16.35 16.35 0 0 0-2.83 1 17.49 17.49 0 0 0-1.44 2.05v.17a2 2 0 0 1-.21 1.12c-.27.43-1.11 1.47-1.15 1.52L50 31a4.8 4.8 0 0 0-.85 1.66c0 .6-.76 3.63-.79 3.76l-.31 5a.09.09 0 0 1-.14.08zm-2.12-.18h2l.31-4.92s.75-3.15.78-3.74a5 5 0 0 1 .89-1.77l2.54-2.74s.86-1.07 1.13-1.5a1.93 1.93 0 0 0 .19-1 1.18 1.18 0 0 1 0-.19 15.07 15.07 0 0 1 1.48-2.15 16.59 16.59 0 0 1 2.9-1.05 12.5 12.5 0 0 1 1.72-.74c.15 0 1-.14 1.37-.19a1.82 1.82 0 0 1 .43.3.52.52 0 0 0 .53.08v-.31a.08.08 0 0 1 0-.07h.09s1.22.77 1.35.84a10.19 10.19 0 0 0 1.94.79 1.59 1.59 0 0 0 .92-.07c.82-.55 2.1-1.42 2.21-1.52a.45.45 0 0 0 .23-.37 2 2 0 0 0-.36-.4 34.83 34.83 0 0 1-3.17-2.6 9.76 9.76 0 0 0-.5-1.33c-.13-.16-1.42-1.37-1.51-1.43l-.1-.06a4.76 4.76 0 0 0-.64-.32 5.84 5.84 0 0 1-.81-.18 6.58 6.58 0 0 0-1-.18l-1.46.18c-.28 0-2.45.82-3.75 1.29-.76.27-1.16.42-1.23.43s-1.89.24-2.14.24a1 1 0 0 0-.43.17l-.24.12a6.19 6.19 0 0 1-.86.1h-.12a2.93 2.93 0 0 0-.43.14 3.18 3.18 0 0 1-.43.15 1.51 1.51 0 0 1-.56 0 3.88 3.88 0 0 0-.44-.05c-.47 0-2.92.06-2.94.06l-2.08.41c-.21 0-2 .51-3.28.86l-1.61.42c-.41.1-5.51.78-6.12.8-.31 0-1.1 0-1.85-.08s-1.55-.09-1.79-.08-.78.08-1.22.14l-.63.07c-.17 0-.56.12-.95.22a6.3 6.3 0 0 1-1.08.24 2.47 2.47 0 0 1-1-.21c-.2-.09-1-.62-1.65-1l-.67-.44c-.07 0-.35-.28-.79-.66s-.8-.69-.91-.76a.5.5 0 0 0-.63.15c-.12.14 0 .5.1.63L21 19.58a8.36 8.36 0 0 1 1.48 2.36 1.48 1.48 0 0 1-.31.76 5 5 0 0 1-.32 1.43 18 18 0 0 1-1.5 1.33l-.77.85c-.21.26-1 1.68-1.19 2.06a41 41 0 0 1-4.33 3.17c-.61.41-1.08.74-1.17.81a11.82 11.82 0 0 1-3 1 2.39 2.39 0 0 0-1.25.65 12.47 12.47 0 0 0-1.06 2.43s0 .1-.69 1.12l.88 1.54a8.45 8.45 0 0 1 .85-1.78 9.93 9.93 0 0 1 3.19-2.17c.26-.07 2-.63 2.42-.79a11.1 11.1 0 0 1 1.6-.29 10 10 0 0 1 2-.52 1.63 1.63 0 0 0 .78-.35 5.3 5.3 0 0 1 .62-.36 4.18 4.18 0 0 0 1.23-.94c.12-.15 2.93-1.73 3.79-2.21a.12.12 0 0 1 .1 0 3.47 3.47 0 0 1 .81 1.15 3 3 0 0 1-.36 2.23 21.35 21.35 0 0 1-2.61 1.64 21.61 21.61 0 0 0-2.43 1.39c-.07.09.08.52.15.73a1.23 1.23 0 0 1 .1.36 8.75 8.75 0 0 0 .81 1.17h1.95a1.76 1.76 0 0 1 .15-1.14c.36-.8 2.71-2.1 3.22-2.28s2.24-1.06 3.24-1.56L30 33a17.28 17.28 0 0 0 1.45-2 7.67 7.67 0 0 0-.45-1.83c-.1-.27-.17-.47-.19-.56a.18.18 0 0 1 0-.19c.08-.1.24-.08.53-.06a5.79 5.79 0 0 0 .65 0 12 12 0 0 1 2.84.8l.4.14.46.15c1.16.38 4.25 1.39 5.27 1.8a19.59 19.59 0 0 0 3.95.71.05.05 0 0 1 .09.04 1.38 1.38 0 0 1 .28.37 2.27 2.27 0 0 1 0 .74v.26c0 .06.23.15.29.15a.09.09 0 0 1 .08.09c0 .6.05 2.21.09 2.38s.05 4.51.05 5.33z"/></g><g opacity=".49"><path class="cls-18" d="M52.34 28.41s1.48.38 1.63.67a2.61 2.61 0 0 1-.06 1.68A22.73 22.73 0 0 0 52 32.27c-.14.25-.41.78-.69.83s-2.42.19-2.42.19a4.31 4.31 0 0 1 .36-1.1 1.48 1.48 0 0 0 .36-.56c0-.12 0-.74.25-.68s.56-.14.63-.1a2.81 2.81 0 0 0 1.08-.44c0-.13.09-.58-.06-.59s-.63 0-.63 0z"/><path class="cls-10" d="M48.91 33.37a.07.07 0 0 1-.06 0 .07.07 0 0 1 0-.07 4 4 0 0 1 .37-1.14 1.33 1.33 0 0 0 .34-.5s0-.58.21-.73a.17.17 0 0 1 .15 0 .79.79 0 0 0 .39-.06c.12 0 .19-.06.25 0a3.65 3.65 0 0 0 1-.39.83.83 0 0 0 0-.47h-.6a.09.09 0 0 1-.09-.05.12.12 0 0 1 0-.1l1.44-1.43a.07.07 0 0 1 .08 0c.25.07 1.52.41 1.69.72a2.54 2.54 0 0 1-.08 1.67c-.08.08-.3.24-.57.45a10.48 10.48 0 0 0-1.3 1.05l-.13.08c-.16.29-.4.74-.69.78s-2.35.19-2.43.19zm1-2.34c-.06 0-.14.35-.14.6s-.32.55-.39.62a3.89 3.89 0 0 0-.31.94c.45 0 2-.13 2.3-.18s.44-.46.57-.69v-.09a8.74 8.74 0 0 1 1.34-1.11c.27-.19.49-.36.57-.43a2.7 2.7 0 0 0 0-1.57 4.54 4.54 0 0 0-1.53-.62l-1.24 1.24h.4a.18.18 0 0 1 .13.08 1 1 0 0 1 0 .63s-.07.12-.37.25c0 0-.7.3-.82.24h-.14a1 1 0 0 1-.42.06z"/></g><g class="cls-20"><path class="cls-6" d="M59.89 18a7.26 7.26 0 0 1-.32-.88c0-.1.11-.27.2-.25s.24.83.21.92-.09.21-.09.21z"/><path class="cls-6" d="M59.89 18.11a.1.1 0 0 1-.08-.05 5.32 5.32 0 0 1-.32-.93.46.46 0 0 1 .17-.29.15.15 0 0 1 .14 0 .12.12 0 0 1 .09.08 2.46 2.46 0 0 1 .18 1l-.09.22a.1.1 0 0 1-.09-.03zM59.74 17a.39.39 0 0 0-.09.17c0 .05.12.34.24.65a3.25 3.25 0 0 0-.15-.82z"/></g><g opacity=".72"><path class="cls-18" d="M63.94 18a1 1 0 0 1 .45-.26c.16 0 .5 0 .52.06s-.2.24-.2.24a1.86 1.86 0 0 1-.41.11 1.6 1.6 0 0 0-.29-.05c-.01-.05-.07-.1-.07-.1z"/><path class="cls-10" d="M64.32 18.2H64a.19.19 0 0 1-.12-.17.09.09 0 0 1 0-.07 1 1 0 0 1 .51-.3c.57 0 .6.08.62.12s0 .12-.23.33a1.76 1.76 0 0 1-.46.09zm-.27-.2h.07a.86.86 0 0 1 .21 0 1.59 1.59 0 0 0 .34-.1l.12-.12a2.46 2.46 0 0 0-.4 0 .73.73 0 0 0-.34.19z"/></g><g class="cls-20"><path class="cls-6" d="M67.46 19.81v1a4.28 4.28 0 0 1 .06.44 3.18 3.18 0 0 1-.14.46 4.8 4.8 0 0 1-.32.43 4.18 4.18 0 0 0-.44.48.68.68 0 0 0 0 .21l2.13-1.4.12-.37-.12-.31-1.28-1z"/><path class="cls-6" d="M66.64 22.9a.08.08 0 0 1 0-.07.46.46 0 0 1 0-.24c0-.06.08-.15.34-.4l.1-.11.1-.12.22-.28a.61.61 0 0 1 .05-.15 1.63 1.63 0 0 0 .08-.29 1.58 1.58 0 0 0 0-.28.69.69 0 0 1 0-.16v-1.08l.06-.05a.11.11 0 0 1 .08 0l1.28 1L69 21v.06l-.13.37-2.13 1.4zm.91-3v.9a1.15 1.15 0 0 0 0 .14 2.19 2.19 0 0 1 0 .31 1.12 1.12 0 0 1-.1.35.79.79 0 0 0 0 .12c0 .05 0 .1-.26.36l-.08.11-.11.11a3.4 3.4 0 0 0-.29.33l2-1.3.1-.31-.1-.26z"/></g><g opacity=".76"><path class="cls-18" d="M67.7 22a1.49 1.49 0 0 1 .24-.56s0-.07.07-.17.08-.36.16-.36.09-.09.26-.06a1 1 0 0 1 .37.18v.21l-.41.45-.63.43z"/><path class="cls-18" d="M67.79 22.19h-.06l-.1-.19v-.05a1.24 1.24 0 0 1 .28-.63v-.12c.08-.43.2-.43.24-.43a.29.29 0 0 1 .24-.05c.09 0 .45.15.45.27v.19a.08.08 0 0 1 0 .08l-.41.45-.63.44zm0-.23l.55-.38.38-.41v-.14a1.31 1.31 0 0 0-.31-.13.1.1 0 0 0-.11 0h-.11a1.29 1.29 0 0 0-.09.28c0 .11 0 .2-.11.24a2 2 0 0 0-.2.58zm.12-.62z"/></g><g class="cls-12"><path class="cls-6" d="M53.31 25.26a1 1 0 0 1 .14-.74c.2-.38.72-1.22.76-1.26a11.87 11.87 0 0 1 1-.89 11.25 11.25 0 0 1 1.3-.65c.18 0 1.38-.27 1.55-.28a5.89 5.89 0 0 0 1.13-.53c.11-.07.22-.51.47-.57s.47-.29.57-.21a4.16 4.16 0 0 1 .46.82 3.65 3.65 0 0 1-.6.4c-.13 0-1 .35-1 .36s-.54.43-.54.43l-1.71.6-1.54.61L54 25l-.23.41z"/><path class="cls-6" d="M53.76 25.54l-.45-.18a.1.1 0 0 1-.05-.08.37.37 0 0 0 0-.11 1.07 1.07 0 0 1 .16-.68c.18-.34.72-1.22.78-1.28a11.61 11.61 0 0 1 1-.91l.28-.15a4.09 4.09 0 0 1 1-.51c.09 0 .5-.08.83-.15l.72-.13a5.7 5.7 0 0 0 1.09-.52.57.57 0 0 0 .09-.15c.08-.16.2-.38.4-.43a.9.9 0 0 0 .28-.13c.14-.07.26-.14.36-.06a3.21 3.21 0 0 1 .49.91s0 .05-.06.06l-.07.06a1.59 1.59 0 0 1-.54.34c-.11 0-.92.32-1 .37s-.29.22-.52.41l-1.71.59-1.51.6-1.21 1.67-.23.4a.08.08 0 0 1-.13.06zm-.37-.34l.33.14.19-.34 1.23-1.7 1.53-.61 1.7-.59a6.33 6.33 0 0 1 .55-.44s.93-.35 1.08-.37a2.15 2.15 0 0 0 .45-.31 3.83 3.83 0 0 0-.41-.72.57.57 0 0 0-.16.08 1.42 1.42 0 0 1-.33.14c-.12 0-.21.21-.29.35a.6.6 0 0 1-.15.21 5.79 5.79 0 0 1-1.17.55c-.08 0-.39.07-.69.13a8.51 8.51 0 0 1-.87.15 7 7 0 0 0-1 .48l-.3.16c-.09.05-.74.68-.93.87s-.55.87-.75 1.24a.9.9 0 0 0-.13.58z"/></g><g class="cls-23"><path class="cls-6" d="M7.48 38.88a8.74 8.74 0 0 1 .46-2c.26-.37.16-.79.82-1.14s1.37-.94 1.76-.94-1.43 1-1.61 1.24a7.42 7.42 0 0 0-.91 1.6c-.07.37-.15 1.08-.33 1.16z"/><path class="cls-6" d="M7.48 39h-.06a.08.08 0 0 1 0-.08 8.12 8.12 0 0 1 .48-2.07 1.62 1.62 0 0 0 .1-.4 1.35 1.35 0 0 1 .68-.82c.23-.12.46-.27.68-.41a2.71 2.71 0 0 1 1.12-.54.13.13 0 0 1 .14.09c0 .11-.09.22-.86.71a6.44 6.44 0 0 0-.82.58 6.25 6.25 0 0 0-.91 1.57v.19c-.09.55-.16.95-.34 1l-.18.18zm2.89-4.08a4.16 4.16 0 0 0-.88.48c-.22.14-.45.29-.68.41a1.17 1.17 0 0 0-.61.73 2.26 2.26 0 0 1-.2.36 6.9 6.9 0 0 0-.44 1.84c.1 0 .2-.64.24-.89v-.2A5.89 5.89 0 0 1 8.82 36a4.73 4.73 0 0 1 .86-.62c.25-.19.53-.38.69-.49z"/></g><g class="cls-23"><path class="cls-6" d="M8.89 34.39a1.42 1.42 0 0 1 .46-.52c.14-.06.67-.34.72-.34s1.52-.47 1.66-.5a6 6 0 0 0 .69-.29 3.45 3.45 0 0 1-.54.26 7.49 7.49 0 0 0-1.52.71c-.11.14-.76.68-.76.68s-.27.22-.43.19a.54.54 0 0 1-.28-.19z"/><path class="cls-6" d="M9.2 34.67a.65.65 0 0 1-.33-.22.1.1 0 0 1 0-.09 1.54 1.54 0 0 1 .5-.56l.25-.12a2.13 2.13 0 0 1 .51-.23s.47-.14.82-.25.75-.23.82-.24.53-.22.68-.29a.08.08 0 0 1 .11 0 .09.09 0 0 1 0 .12 4.75 4.75 0 0 1-.58.27 8.88 8.88 0 0 0-1.46.67 8.63 8.63 0 0 1-.77.69.89.89 0 0 1-.55.25zm-.2-.3a.29.29 0 0 0 .19.12c.08 0 .26-.09.36-.17s.65-.55.74-.67a1 1 0 0 1 .26-.17l-.48.14-.43.2-.26.18a1.57 1.57 0 0 0-.38.37z"/></g><g class="cls-20"><path class="cls-6" d="M11.26 34.87l.19-.27c.26-.36.71-1 .76-1s1-.94 1-.94.19-.48.32-.53-.37.78-.59 1a8 8 0 0 0-1.07 1.17 2.45 2.45 0 0 1-.48.6z"/><path class="cls-6" d="M11.44 35h-.18a.1.1 0 0 1-.08-.05.09.09 0 0 1 0-.09l.19-.27a9.52 9.52 0 0 1 .78-1l1-.92c.06-.16.22-.51.36-.56a.11.11 0 0 1 .13 0c.09.15-.5 1-.63 1.09a7.61 7.61 0 0 0-1 1.14 2.37 2.37 0 0 1-.51.63.09.09 0 0 1-.06.03zm.48-.86l-.4.55a1.7 1.7 0 0 0 .33-.43.75.75 0 0 1 .07-.16zm.66-.72l-.31.27a4.29 4.29 0 0 0-.33.43 7.71 7.71 0 0 1 .64-.74z"/></g><g class="cls-23"><path class="cls-6" d="M20.47 36.77a.89.89 0 0 1-.18-.63 4.61 4.61 0 0 1 1.32-.92c.24 0 2.87-1.57 3-1.56a28.75 28.75 0 0 1-2.17 2 4.32 4.32 0 0 1-1.1.88 3.63 3.63 0 0 1-.87.23z"/><path class="cls-6" d="M20.47 36.86h-.06a1 1 0 0 1-.2-.73 4.39 4.39 0 0 1 1.39-1 17.71 17.71 0 0 0 1.65-.86 7.66 7.66 0 0 1 1.37-.7.1.1 0 0 1 .08.07c0 .08.05.13-2 1.89-.13.12-.22.19-.23.21a5.16 5.16 0 0 1-1.13.89 4 4 0 0 1-.9.23zm3.81-3l-1 .52a12.06 12.06 0 0 1-1.71.87 4.93 4.93 0 0 0-1.25.88 1 1 0 0 0 .13.5 4.17 4.17 0 0 0 .81-.21 5.08 5.08 0 0 0 1.07-.85l.24-.22c.43-.25 1.27-1.02 1.71-1.44z"/></g><g class="cls-12"><path class="cls-6" d="M24.62 29.75a13.86 13.86 0 0 1 2.48-1.32c.63-.12 2.9-.41 3.26-.41s.5.57.5.57l.67 2.41-1.46 2.11-3.59 1.76-1.13.46-1 .6-1.37 1.13s-.22.15-.22 0a1.94 1.94 0 0 1 .59-.83c.21-.14 2.43-1.63 2.55-1.69a6.26 6.26 0 0 0 1.38-1.39c.13-.34.47-1.11.16-1.64a7 7 0 0 0-2-1.34z"/><path class="cls-6" d="M22.79 37.2a.12.12 0 0 1-.08 0 .16.16 0 0 1-.08-.16 2 2 0 0 1 .63-.9c.14-.09 2.42-1.64 2.57-1.7a6.49 6.49 0 0 0 1.33-1.34v-.07c.14-.36.41-1 .14-1.49a7.16 7.16 0 0 0-1.9-1.34l-.82-.37a.08.08 0 0 1 0-.07.09.09 0 0 1 0-.08 13.88 13.88 0 0 1 2.52-1.34c.6-.11 2.89-.4 3.27-.4s.58.61.58.63l.68 2.4a.11.11 0 0 1 0 .08l-1.47 2.11L26.52 35l-1.14.46-1 .59L23 37.13a.47.47 0 0 1-.21.07zm2-7.46l.67.31a6.79 6.79 0 0 1 2 1.38 2 2 0 0 1-.13 1.65v.07a6.48 6.48 0 0 1-1.42 1.44c-.13.06-2.27 1.49-2.54 1.67a2 2 0 0 0-.56.76h.1l1.35-1.13 1.06-.61 1.14-.46L30 33.05 31.44 31l-.67-2.36s-.13-.51-.41-.51-2.61.29-3.24.41a11.72 11.72 0 0 0-2.32 1.2z"/></g><g class="cls-20"><path class="cls-6" d="M30.49 27.93a31.1 31.1 0 0 1 3.33.22 5.38 5.38 0 0 1 1.51.86c.08.13.49.61.49.61L33 28.67l-.4-.11-.47-.07-1.13-.06-.23-.05z"/><path class="cls-6" d="M35.82 29.71l-2.84-1-.4-.1-.47-.07-1.11-.02-.24-.05a.1.1 0 0 1-.05 0l-.3-.45a.12.12 0 0 1 0-.1.12.12 0 0 1 .08 0 32.16 32.16 0 0 1 3.35.22 5.37 5.37 0 0 1 1.57.9c.06.11.36.47.47.61a.08.08 0 0 1 0 .1.09.09 0 0 1-.06-.04zm-5-1.41l.2.05h1.07l.48.08.41.1 2.56.86a2.72 2.72 0 0 1-.29-.39 5.65 5.65 0 0 0-1.47-.82 28.62 28.62 0 0 0-3.13-.18z"/></g><g opacity=".31"><path class="cls-6" d="M45 28.41s.93 1 .87 1.17a8.15 8.15 0 0 1-.77 1.34 3.43 3.43 0 0 0-.2 1.17 5 5 0 0 0-.57-.15.43.43 0 0 0 .33-.22 1.49 1.49 0 0 0 .19-.75c0-.19.71-.73.69-1s.1-.25-.11-.68z"/><path class="cls-6" d="M44.9 32.18a3.89 3.89 0 0 0-.54-.14.08.08 0 0 1-.06-.09.1.1 0 0 1 .09-.07.38.38 0 0 0 .27-.18 1.37 1.37 0 0 0 .17-.7c0-.11.11-.24.32-.46s.38-.43.37-.55a.71.71 0 0 1 0-.22c0-.1 0-.16-.11-.42l-.43-.87a.08.08 0 0 1 0-.11.08.08 0 0 1 .11 0q1 1 .9 1.26a8.93 8.93 0 0 1-.82 1.37 3.14 3.14 0 0 0-.17 1.09.1.1 0 0 1 0 .07zm-.29-.27l.21.06a4.37 4.37 0 0 1 0-.46 1 1 0 0 1-.11.26.6.6 0 0 1-.1.14zm.58-1.27a1.27 1.27 0 0 0-.25.33v.12a.7.7 0 0 1 .11-.23 1.33 1.33 0 0 0 .14-.22zm.19-1.64l.13.27a.71.71 0 0 1 .12.52v.14c.09-.17.15-.3.17-.34a2.26 2.26 0 0 0-.42-.59z"/></g><g class="cls-25"><path class="cls-1" d="M61.34 21.51s-1.11-1-1.15-1.38-.07-2-.08-2.17a4.44 4.44 0 0 1 0-.6s-.06 0 0 0a6.3 6.3 0 0 1 .18 1.34 9.91 9.91 0 0 0 .12 1.68c.11.13.86.71.93.86a.41.41 0 0 1 0 .27z"/></g><g class="cls-20"><path class="cls-6" d="M22.38 21.51a2.26 2.26 0 0 1 .56-.74 1 1 0 0 1 .38-.16s-.65.67-.71.78a.37.37 0 0 1-.23.12z"/><path class="cls-6" d="M22.38 21.6a.08.08 0 0 1-.07 0 .08.08 0 0 1 0-.09 2.18 2.18 0 0 1 .59-.78 1 1 0 0 1 .43-.18.08.08 0 0 1 .08.05.09.09 0 0 1 0 .1c-.25.26-.66.69-.71.76a.4.4 0 0 1-.29.17zm.57-.73a1.12 1.12 0 0 0-.23.25z"/></g><g class="cls-25"><path class="cls-1" d="M19.92 17.31s1.53 1.39 1.71 1.54A26.94 26.94 0 0 0 24 20.28a14.09 14.09 0 0 0-1.6-1.16c-.17-.12-2.48-1.81-2.48-1.81z"/></g><g class="cls-26"><path class="cls-6" d="M25.15 28a14 14 0 0 1 2-2.42 5.37 5.37 0 0 1 1.55-.12c.21.11-.65.94-1.05 1a11.66 11.66 0 0 0-2.11 1.27.91.91 0 0 1-.39.27z"/><path class="cls-6" d="M25.15 28.11a.09.09 0 0 1-.07-.14c.39-.56 1.68-2.4 2-2.45h.13a4.1 4.1 0 0 1 1.48-.1.18.18 0 0 1 .08.16c0 .29-.8 1-1.15 1.05a11.56 11.56 0 0 0-2.07 1.24 1 1 0 0 1-.4.26zm3.29-2.58a9.39 9.39 0 0 0-1.17.14h-.13a9.81 9.81 0 0 0-1.65 2 11.57 11.57 0 0 1 2.12-1.25 2.37 2.37 0 0 0 1-.89z"/></g><g class="cls-26"><path class="cls-6" d="M22.18 25.38s-.37-1 0-1.27 1-.42.93.16a5.72 5.72 0 0 1-1.25 3 10.54 10.54 0 0 1-2.52 1.63c-.24.05 1.3-1.15 1.45-1.31s.6-2 .94-2.07a3.59 3.59 0 0 1 .45-.14z"/><path class="cls-6" d="M19.33 29s-.08 0-.09-.05 0-.15 1-1c.23-.19.44-.36.48-.41a5.41 5.41 0 0 0 .24-.61c.28-.82.5-1.41.74-1.48l.37-.12c-.09-.26-.29-1 .06-1.27a.9.9 0 0 1 .86-.23.43.43 0 0 1 .21.46 5.75 5.75 0 0 1-1.28 3.05A11.19 11.19 0 0 1 19.36 29zm3.46-5a.92.92 0 0 0-.55.24c-.27.22-.07.92 0 1.16a.11.11 0 0 1 0 .08.07.07 0 0 1-.06 0l-.45.13c-.17.06-.47.92-.63 1.38a2.84 2.84 0 0 1-.27.67c-.05.05-.22.2-.49.42l-.7.59a12.17 12.17 0 0 0 2.14-1.46A5.58 5.58 0 0 0 23 24.26c0-.15 0-.25-.11-.29a.24.24 0 0 0-.1-.03z"/></g><g class="cls-26"><path class="cls-6" d="M46.72 30a10.45 10.45 0 0 1 .64-1.74c.27-.4.53-.73.51-.86s-.2-.78-.46-.67S46 27.92 46.35 29z"/><path class="cls-6" d="M46.72 30.07a.09.09 0 0 1-.08-.06l-.38-1c-.39-1.09.82-2.23 1.11-2.35a.25.25 0 0 1 .22 0c.25.14.37.71.37.71s-.1.32-.34.66l-.18.27a9.25 9.25 0 0 0-.63 1.7.11.11 0 0 1-.09.07zm.75-3.28c-.25.1-1.36 1.16-1 2.12l.28.78a8.06 8.06 0 0 1 .58-1.51c.06-.09.13-.18.18-.27a1.65 1.65 0 0 0 .31-.53c0-.13-.14-.51-.28-.59z"/></g><g class="cls-26"><path class="cls-6" d="M48 27.69s-.64 3-.62 3.38.07 3.16 0 3.47a19.85 19.85 0 0 0-.4 3.79c.2.26 1.18-3.3 1.18-3.61a20.52 20.52 0 0 1 .49-3.6c.21-.27-.71.08-.85-.05l-.15-.13z"/><path class="cls-6" d="M47 38.43a.14.14 0 0 1-.1 0c-.24-.33.38-3.82.39-3.85.06-.29 0-3.06 0-3.45s.59-3.29.62-3.41a.08.08 0 0 1 .1-.07.1.1 0 0 1 .07.1l-.35 3.2.11.11a1.88 1.88 0 0 0 .43 0c.26 0 .42-.08.48 0s0 .11 0 .18a21.72 21.72 0 0 0-.48 3.55 15.19 15.19 0 0 1-.47 1.91c-.51 1.72-.66 1.77-.72 1.79zm.7-8.86a11.86 11.86 0 0 0-.24 1.5c0 .32.07 3.16 0 3.49a24.84 24.84 0 0 0-.46 3.63 9 9 0 0 0 .58-1.66 16.69 16.69 0 0 0 .46-1.81 22 22 0 0 1 .49-3.62h-.25c-.29.05-.48.08-.57 0l-.14-.1a.09.09 0 0 1 0-.07z"/></g><g class="cls-20"><path class="cls-1" d="M48.11 27.8s1.1 1.29.8 1.8-.92 1.36-1 1.32a26.79 26.79 0 0 1 .2-3.12z"/></g><g class="cls-20"><path class="cls-6" d="M57.45 20.76a17.93 17.93 0 0 1 1.29-1.94 1.94 1.94 0 0 0 .55-.48c.09-.15-.15 1.07-.46 1.21s-1 1.35-1.18 1.28z"/><path class="cls-6" d="M57.67 20.92h-.05l-.2-.07a.08.08 0 0 1-.05-.05.11.11 0 0 1 0-.08 16 16 0 0 1 1.32-2l.12-.08a1.47 1.47 0 0 0 .4-.37.12.12 0 0 1 .11-.06.1.1 0 0 1 .07.09c0 .13-.2 1.15-.52 1.3a2.74 2.74 0 0 0-.56.64c-.31.45-.49.68-.64.68zm-.09-.21h.1a3.49 3.49 0 0 0 .49-.58 2.85 2.85 0 0 1 .62-.7c.16-.07.32-.56.39-.87l-.27.21-.12.08a15.78 15.78 0 0 0-1.21 1.86z"/></g><g class="cls-20"><path class="cls-6" d="M59.14 16.52a1.75 1.75 0 0 1 .17-.65c.13-.18 0 .39 0 .39z"/><path class="cls-6" d="M59.14 16.61a.1.1 0 0 1-.06-.09 1.88 1.88 0 0 1 .19-.7c.06-.08.11-.08.15-.06s.11.05 0 .52l-.17.27a.07.07 0 0 1-.11.06z"/></g><g class="cls-23"><path class="cls-6" d="M62.93 15.28a9.86 9.86 0 0 1 1.67 1.51c.1.31.37.68.22.66s-.86-.34-1.27.08-.73-.15-.73-.15z"/><path class="cls-6" d="M63.24 17.77h-.06a.69.69 0 0 1-.44-.34.09.09 0 0 1 0-.05l.11-2.1v-.07a.07.07 0 0 1 .09 0 8.75 8.75 0 0 1 1.71 1.55 2.44 2.44 0 0 0 .14.34c.1.2.15.31.1.39a.12.12 0 0 1-.12.05.73.73 0 0 1-.16 0c-.26-.07-.74-.21-1 .09a.52.52 0 0 1-.37.14zm-.33-.42a.48.48 0 0 0 .3.24.36.36 0 0 0 .28-.12 1.18 1.18 0 0 1 1.21-.13h.06l-.08-.17a2.43 2.43 0 0 1-.16-.37A8.2 8.2 0 0 0 63 15.45z"/></g><g class="cls-23"><path class="cls-6" d="M64.92 22.47a1.74 1.74 0 0 1 .4-1c.34-.27.73-.77 1.06-.8s.84-.13.9-.05.27.68 0 .91a4.93 4.93 0 0 0-.8 1c-.08.18 0 .37-.37.36s-1.3-.11-1.25-.27z"/><path class="cls-6" d="M66.13 23c-.14 0-1.16-.06-1.31-.27a.13.13 0 0 1 0-.12v-.15a1.73 1.73 0 0 1 .44-1l.3-.29a1.77 1.77 0 0 1 .8-.54h.32c.42-.06.59-.07.66 0s.31.75 0 1a4.88 4.88 0 0 0-.78 1 .35.35 0 0 0 0 .11c-.06.12-.1.26-.43.26zM65 22.63a3.64 3.64 0 0 0 1.16.19c.21 0 .22 0 .24-.16a.31.31 0 0 1 0-.15 5 5 0 0 1 .82-1.05c.21-.18 0-.68 0-.78a4 4 0 0 0-.51 0h-.33a1.7 1.7 0 0 0-.69.49 4.11 4.11 0 0 1-.31.29 1.67 1.67 0 0 0-.38.94zm2.27-1.94z"/></g><g class="cls-23"><path class="cls-6" d="M63.11 19.22s.27-1.06.45-1.11.54.22.54.22-.06.38 0 .4.6.38.47.49-.44.57-.63.57a2.59 2.59 0 0 1-.83-.37v-.2z"/><path class="cls-6" d="M63.94 19.88a2.4 2.4 0 0 1-.91-.42.38.38 0 0 1 0-.25c.11-.41.32-1.12.51-1.18s.56.19.62.24a.09.09 0 0 1 0 .08 3 3 0 0 0 0 .33c.11.06.49.3.51.48a.14.14 0 0 1 0 .14 1 1 0 0 0-.16.18c-.21.18-.4.4-.57.4zm-.76-.51a2.87 2.87 0 0 0 .76.33c.09 0 .28-.22.39-.35a1.52 1.52 0 0 1 .17-.18 1.41 1.41 0 0 0-.43-.35s-.12-.05-.06-.45c-.14-.09-.34-.2-.42-.18a3.63 3.63 0 0 0-.4 1c0 .1-.01.15-.01.18zm.95-.72z"/></g><g class="cls-23"><path class="cls-6" d="M65.32 18.17a29.34 29.34 0 0 1 3.23 2.51c-.12.15-.36-.06-.36-.06l-2.92-2.29v-.38z"/><path class="cls-6" d="M68.44 20.82a.6.6 0 0 1-.31-.13l-2.91-2.29a.21.21 0 0 1 0-.06l-.09-.34a.09.09 0 0 1 .07-.1.09.09 0 0 1 .1.05l.09.19a22.35 22.35 0 0 1 3.25 2.55v.08a.21.21 0 0 1-.16.08zm-2.88-2.37l2.68 2.1a.42.42 0 0 0 .2.1 32.08 32.08 0 0 0-2.88-2.2z"/></g><g class="cls-23"><path class="cls-6" d="M62.27 15.41s0 .09.08 0 .08-.29 0-.34a5 5 0 0 0-.92-.36c-.05 0 .84.7.84.7z"/><path class="cls-6" d="M62.31 15.54a.12.12 0 0 1-.11-.08c-.86-.66-.84-.7-.82-.77a.09.09 0 0 1 .09-.06 4.59 4.59 0 0 1 1 .38c.1.11 0 .42 0 .43s-.12.1-.16.1zm-.53-.63l.51.4a.92.92 0 0 0 0-.18 2.88 2.88 0 0 0-.51-.22z"/></g><g class="cls-12"><path class="cls-6" d="M31.82 27.87c0-.17.1-.67.32-.75s3-.15 4 .9 3.72 2.23 3.77 2.39.3.4 0 .39a22.15 22.15 0 0 1-3.55-1.11c-.06-.16.09-.48-.07-.69a11.42 11.42 0 0 0-2.7-1.14l-1.48-.05a.56.56 0 0 0-.29.06z"/><path class="cls-6" d="M39.88 30.89a19.06 19.06 0 0 1-1.88-.51c-1.69-.51-1.73-.61-1.74-.66a.65.65 0 0 1 0-.28.56.56 0 0 0 0-.39A11.76 11.76 0 0 0 33.53 28l-1.47-.05a.46.46 0 0 0-.2.05.08.08 0 0 1-.08 0 .06.06 0 0 1-.05-.06c0-.19.1-.76.38-.86s3-.18 4 .93a13.39 13.39 0 0 0 3 1.92c.68.35.8.42.82.51l.06.12c.06.1.12.21.07.3a.23.23 0 0 1-.18.03zm-3.49-1.25a23.85 23.85 0 0 0 3.47 1.07.6.6 0 0 0-.06-.11.51.51 0 0 1-.07-.15A7.79 7.79 0 0 0 39 30a12.74 12.74 0 0 1-3-2c-1-1-3.66-.95-3.85-.88s-.25.35-.27.54h.16c.14 0 1.11 0 1.48.06A10.13 10.13 0 0 1 36.31 29a.66.66 0 0 1 .08.51 1.07 1.07 0 0 0 0 .13z"/></g><g class="cls-12"><path class="cls-6" d="M16.39 33.77a1.25 1.25 0 0 0 .68-.55 26.1 26.1 0 0 1 3-2.59c.19 0-3.39 1.81-3.67 2.05s-.78.69-1.07.71-1 .35-1 .55-.35.57 0 .48 2.06-.65 2.06-.65z"/><path class="cls-6" d="M14.18 34.53a.16.16 0 0 1-.12-.06c-.07-.08 0-.2.06-.34a1.09 1.09 0 0 0 .09-.21c0-.26.8-.6 1.1-.62s.73-.43 1-.65h.05c.14-.13 1-.61 2.28-1.28.48-.25 1-.51 1.22-.66a.69.69 0 0 1 .21-.12.08.08 0 0 1 .1.05c0 .06 0 .08-.26.25a27.3 27.3 0 0 0-2.74 2.42 1.42 1.42 0 0 1-.74.59c-.16 0-1.82.57-2.13.65zm4.87-3.23l-.35.19c-.94.5-2.11 1.13-2.25 1.25a2.71 2.71 0 0 1-1.09.7 1.68 1.68 0 0 0-.94.47.87.87 0 0 1-.1.25l-.07.15 2.13-.65a1.18 1.18 0 0 0 .6-.5 21.54 21.54 0 0 1 2.07-1.86z"/></g><g class="cls-26"><path class="cls-6" d="M25.94 21.06s1 .39 1.41 0 1-.42 1-.78-1.88.06-2.13.18-.49.24-.47.31a1.44 1.44 0 0 0 .19.29z"/><path class="cls-6" d="M26.81 21.32a3 3 0 0 1-.9-.18 1.29 1.29 0 0 1-.22-.32c0-.14.13-.24.52-.42.22-.1 1.85-.49 2.18-.26a.17.17 0 0 1 .08.17c0 .25-.26.37-.51.5a2 2 0 0 0-.52.33.83.83 0 0 1-.63.18zM26 21c.28.1 1 .28 1.29 0a2.26 2.26 0 0 1 .56-.37c.25-.13.4-.21.41-.36a4.86 4.86 0 0 0-2 .27 2 2 0 0 0-.42.23A2.16 2.16 0 0 0 26 21z"/></g><g class="cls-26"><path class="cls-6" d="M50.38 29.62A18.55 18.55 0 0 0 52 26.55a33.83 33.83 0 0 0-.15-5.28c0-.14-.18-1.06.07-1.16s1.07 4.31.87 5.34a4.81 4.81 0 0 0 0 1.9s-2.1 2.74-2.3 2.63a.35.35 0 0 1-.11-.36z"/><path class="cls-6" d="M50.53 30.07a.42.42 0 0 1-.2-.44 18.6 18.6 0 0 0 1.6-3 28.36 28.36 0 0 0-.12-4.91v-.35-.16c-.06-.49-.1-1 .14-1.08a.11.11 0 0 1 .12 0 15.62 15.62 0 0 1 .87 5.41 4.83 4.83 0 0 0 0 1.87.09.09 0 0 1 0 .07c-1.88 2.32-2.29 2.59-2.41 2.59zm-.07-.41a.28.28 0 0 0 .09.23 20 20 0 0 0 2.18-2.56 4.9 4.9 0 0 1 0-1.9 17.47 17.47 0 0 0-.78-5.21c0 .08-.08.3 0 .87v.51a28.16 28.16 0 0 1 .12 5 17.77 17.77 0 0 1-1.61 3.06z"/></g><g class="cls-26"><path class="cls-6" d="M49.48 21.46s-.53-.4-.57-.63.27-1.07.39-1 2.37 3.21 2 4.55-.35-.51-.35-.51z"/><path class="cls-6" d="M51.05 24.92c-.07 0-.21 0-.19-1.06l-1.42-2.34c-.12-.09-.55-.43-.59-.67a2.18 2.18 0 0 1 .36-1.1.14.14 0 0 1 .14 0 6.91 6.91 0 0 1 1.06 1.51c.57 1 1.21 2.34 1 3.15-.17.36-.25.51-.36.51zm-1.76-5a2.2 2.2 0 0 0-.29.92c0 .13.33.41.54.57L51 23.79a.43.43 0 0 1 0 .05 4.13 4.13 0 0 0 0 .85 2.63 2.63 0 0 0 .13-.37c.42-1.21-1.5-4.07-1.84-4.42z"/></g><g class="cls-23"><path class="cls-6" d="M40.58 31.11S42 31 42.81 31s.87.21 1.21-.19.51-.21.6-.87a10.36 10.36 0 0 0 0-1.13c.05-.42.34-.21.34-.21s.71.7.58 1.15a3.81 3.81 0 0 1-.83 1.14 1.65 1.65 0 0 1 0 .65 2.38 2.38 0 0 1-.55.43s-2.6-.41-3-.55l-.62-.23z"/><path class="cls-6" d="M44.18 32.1c-.1 0-2.6-.41-3-.55l-.62-.23a.1.1 0 0 1-.06-.09v-.12a.09.09 0 0 1 .08-.09S42 31 42.81 31h.58c.3 0 .36 0 .56-.2a1.42 1.42 0 0 1 .31-.28c.14-.1.22-.15.27-.54a2.25 2.25 0 0 0 0-.69 1.54 1.54 0 0 1 0-.44c0-.17.08-.28.18-.32a.37.37 0 0 1 .31.05s.74.75.6 1.25A3.57 3.57 0 0 1 44.8 31a1.47 1.47 0 0 1 0 .66 2.26 2.26 0 0 1-.59.47zm-3.47-.91l.52.19c.35.13 2.63.49 2.93.54a2.18 2.18 0 0 0 .5-.38 1.68 1.68 0 0 0 0-.6.11.11 0 0 1 0-.08 3.84 3.84 0 0 0 .8-1.09c.1-.33-.36-.88-.55-1.06 0 0-.08-.05-.12 0a.25.25 0 0 0-.07.18 1.33 1.33 0 0 0 0 .4 2.41 2.41 0 0 1 0 .73c-.07.45-.17.54-.35.66a1.44 1.44 0 0 0-.28.25.62.62 0 0 1-.71.27 3.71 3.71 0 0 0-.56 0c-.67-.07-1.74-.03-2.11-.01z"/></g><g class="cls-23"><path class="cls-6" d="M60.94 17.24s.11.15 0-.41-.24-.92-.5-1.08"/><path class="cls-6" d="M61 17.34a.11.11 0 0 1-.1-.06l.15-.09a.07.07 0 0 0-.07 0h-.05a1.6 1.6 0 0 0 0-.36c-.11-.58-.25-.89-.47-1l.09-.15c.27.16.43.5.55 1.14.07.41 0 .48 0 .52z"/></g><g class="cls-23"><path class="cls-6" d="M62.22 21.19s.6-2.42.6-2.71a3.1 3.1 0 0 1 0-.37"/><path class="cls-6" d="M62.3 21.21h-.17c.24-1 .6-2.48.6-2.68v-.38h.18a3.2 3.2 0 0 0 0 .37c0 .25-.55 2.48-.61 2.69z"/></g><g class="cls-25"><path class="cls-1" d="M62.63 17.82s-.16-2-.22-2.2.08-.4.11-.54a12.28 12.28 0 0 1 .22 2.43z"/></g><g class="cls-25"><path class="cls-1" d="M25.06 20.52a2.47 2.47 0 0 1-1-.21.08.08 0 0 1 0-.12.08.08 0 0 1 .11 0 2.36 2.36 0 0 0 1 .19 7.4 7.4 0 0 0 1-.23 8.77 8.77 0 0 1 1-.23l.62-.08c.44-.05.94-.11 1.23-.13s1 0 1.81.07 1.53.09 1.84.08c.6 0 5.67-.69 6.08-.79l1.6-.42c1.37-.36 3.08-.82 3.3-.86l2.09-.41c.11 0 2.49-.1 3-.07l.46.06a1.36 1.36 0 0 0 .49 0c.12 0 .27-.09.41-.14a2.29 2.29 0 0 1 .48-.15h.12a5.59 5.59 0 0 0 .81-.1l.21-.1a1.1 1.1 0 0 1 .52-.19c.24 0 1.91-.19 2.1-.23l1.1-.46c1.83-.66 3.5-1.26 3.78-1.3s1.31-.18 1.48-.18a5.07 5.07 0 0 1 1.06.19.09.09 0 0 1 .06.11.09.09 0 0 1-.11 0 6.58 6.58 0 0 0-1-.18c-.14 0-1 .12-1.46.19-.28 0-2.45.82-3.75 1.28l-1.23.44c-.2.05-1.89.24-2.14.24a1 1 0 0 0-.43.16l-.24.12a4.89 4.89 0 0 1-.86.11h-.12a1.92 1.92 0 0 0-.43.13 3.18 3.18 0 0 1-.43.15 1.51 1.51 0 0 1-.56 0 3.88 3.88 0 0 0-.44-.05c-.47 0-2.92.06-2.94.06l-2.08.42c-.21 0-2 .51-3.29.85l-1.6.42c-.41.1-5.51.78-6.12.8-.31 0-1.09 0-1.85-.08s-1.55-.09-1.79-.07-.78.07-1.22.13l-.63.07a8.64 8.64 0 0 0-.95.23 7.48 7.48 0 0 1-1.09.28z"/></g><g class="cls-23"><path class="cls-6" d="M24.62 30s2.25 1.31 2.31 1.86.87 1.14-.93 2.4.18-.18.19-.32-.32-.16-.18-.6.71-.31.49-1A12.09 12.09 0 0 0 24.62 30z"/><path class="cls-6" d="M25.22 34.85s-.06-.07.28-.34a6.08 6.08 0 0 0 .65-.55l-.05-.05a.47.47 0 0 1-.13-.55.72.72 0 0 1 .33-.39c.17-.11.28-.19.17-.53A13 13 0 0 0 24.56 30a.09.09 0 0 1 0-.12.09.09 0 0 1 .11 0C24.9 30 27 31.26 27 31.83a1.41 1.41 0 0 0 .09.32c.19.49.44 1.17-1.07 2.19-.57.4-.73.51-.8.51zm-.09-4.46a8.86 8.86 0 0 1 1.46 2 .54.54 0 0 1-.24.74.53.53 0 0 0-.26.29.32.32 0 0 0 .08.38.25.25 0 0 1 .11.19c1-.8.82-1.31.67-1.74a1.65 1.65 0 0 1-.11-.36c-.03-.34-.92-.99-1.71-1.5z"/></g><g class="cls-25"><path class="cls-1" d="M59.31 16.89a.22.22 0 0 1-.06-.37 2.87 2.87 0 0 0 .19-1c0-.1-.24-.28 0-.31s.61.43.64.67 0 .65.12.73.29.18.19.24-.34-.09-.34-.09-.07-.17-.15-.2a.46.46 0 0 0-.33.15 2.31 2.31 0 0 1-.26.18z"/></g><g class="cls-25"><path class="cls-1" d="M27.48 28.18a35.12 35.12 0 0 1 3.68-.47c.56.05 0 .29-.19.31s-3.49.16-3.49.16z"/></g><g class="cls-25"><path class="cls-1" d="M11 35.17h-.05a.09.09 0 0 1 0-.12s.62-1 .88-1.31a6 6 0 0 1 .62-.59 5.26 5.26 0 0 0 .46-.44c.16-.21.26-.4.27-.4a.08.08 0 0 1 .11 0 .09.09 0 0 1 0 .12 2.67 2.67 0 0 1-.28.43c-.09.1-.27.27-.48.46a5.65 5.65 0 0 0-.6.57c-.26.31-.86 1.28-.87 1.29s-.06-.01-.06-.01z"/></g><g class="cls-25"><path class="cls-1" d="M45.1 32a.09.09 0 0 1-.1-.1 3.12 3.12 0 0 1 .2-.9.84.84 0 0 0 0-.1c0-.12.56-1 .66-1.19a.09.09 0 0 1 .15.09c-.29.5-.61 1.08-.64 1.15a.33.33 0 0 1 0 .1 3.29 3.29 0 0 0-.18.85.09.09 0 0 1-.09.09z"/></g><g class="cls-25"><path class="cls-1" d="M56 21.85a.11.11 0 0 1-.09-.08.11.11 0 0 1 .08-.1 1.86 1.86 0 0 0 .83-.22.74.74 0 0 0 .22-.29.1.1 0 0 1 .12-.06.09.09 0 0 1 .05.11 1 1 0 0 1-.27.37 2.16 2.16 0 0 1-.93.27z"/></g><g class="cls-23"><path class="cls-6" d="M49.76 31.64s0 .24.28.17.5-.5.44-.63-.52-.38-.6-.23a2.87 2.87 0 0 0-.12.59z"/><path class="cls-6" d="M50 31.91a.24.24 0 0 1-.18-.06.27.27 0 0 1-.1-.21v-.1a2.81 2.81 0 0 1 .14-.63s.06-.1.18-.1a.83.83 0 0 1 .57.33.47.47 0 0 1-.06.36.79.79 0 0 1-.44.4zm-.1-.27a.13.13 0 0 0 0 .08h.14a.6.6 0 0 0 .33-.3.37.37 0 0 0 0-.21.66.66 0 0 0-.3-.19A.26.26 0 0 0 50 31a2.41 2.41 0 0 0-.11.56v.09z"/></g><g class="cls-23"><path class="cls-6" d="M49.26 32.49s.65.16.65 0 .07-.49 0-.59a.49.49 0 0 0-.2-.16s-.48.28-.44.45a.73.73 0 0 1-.01.3z"/><path class="cls-6" d="M49.73 32.65a2.87 2.87 0 0 1-.49-.07.1.1 0 0 1-.05 0 .06.06 0 0 1 0-.07.7.7 0 0 0 0-.27c0-.2.33-.44.49-.53a.08.08 0 0 1 .08 0 .67.67 0 0 1 .24.19.79.79 0 0 1 0 .46 1.41 1.41 0 0 0 0 .18.14.14 0 0 1 0 .11.36.36 0 0 1-.27 0zm-.37-.23a1.3 1.3 0 0 0 .47 0 1.21 1.21 0 0 1 0-.18 1 1 0 0 0 0-.34.41.41 0 0 0-.12-.11c-.2.12-.37.28-.37.33a.73.73 0 0 1 .02.3z"/></g><g class="cls-25"><path class="cls-1" d="M51 29.69a.09.09 0 0 1-.07 0 .09.09 0 0 1 0-.13A6.62 6.62 0 0 0 52 28.38c.06-.15.08-.23.17-.21s.07.12.06.19a.09.09 0 0 1-.06.06A7 7 0 0 1 51 29.67z"/></g><g class="cls-23"><path class="cls-6" d="M51.48 29.66s.62-1 1-.94-.75 1.64-.75 1.64a.75.75 0 0 0 0-.47.69.69 0 0 0-.25-.23z"/><path class="cls-6" d="M51.73 30.44a.09.09 0 0 1-.05-.11.59.59 0 0 0 0-.39.55.55 0 0 0-.19-.2.06.06 0 0 1 0-.07c.06-.11.66-1 1.07-1a.15.15 0 0 1 .14.08c.13.27-.53 1.27-.82 1.69a.08.08 0 0 1-.15 0zm-.13-.8a.66.66 0 0 1 .19.21.37.37 0 0 1 .05.18 3.27 3.27 0 0 0 .62-1.23c-.21 0-.62.49-.86.84z"/></g><g class="cls-2"><path class="cls-3" d="M71.55 30.9v-.54c0 .01.45-.71.45-.36s.63.32.63.32l.24.47.22.37h-.49z"/></g><path class="cls-3" d="M22.08 40.22l-.08-.15a7.22 7.22 0 0 0-.78-.88c-.3-.25.45.13.45.13a.8.8 0 0 1-.52-.59c-.13-.48.48.26.48.26s.56.59.49.15a5.15 5.15 0 0 0-.53-1.14l.49.45.2 1.08s-.07-.17.16-.41a1.23 1.23 0 0 1 .53-.33l.13-.34-.28.67-.15.85-.06.26"/><g class="cls-27"><path class="cls-3" d="M18 48.94l-.19-.24a11.75 11.75 0 0 0-1.28-1.44c-.5-.42.74.21.74.21a1.34 1.34 0 0 1-.86-1c-.21-.8.8.41.8.41s.91 1 .79.26a8.17 8.17 0 0 0-.8-1.89l.8.75.33 1.77s-.12-.28.26-.68a1.91 1.91 0 0 1 .88-.53l.2-.56-.46 1.09-.21 1.42-.08.43"/></g><g class="cls-27"><path class="cls-3" d="M15.75 45.18s-.07-.1-.19-.24a11.77 11.77 0 0 0-1.27-1.44c-.51-.42.73.2.73.2a1.32 1.32 0 0 1-.86-1c-.21-.79.8.42.8.42s.91 1 .79.25a7.79 7.79 0 0 0-.8-1.88l.8.73.33 1.78s-.12-.29.26-.69a1.94 1.94 0 0 1 .88-.52l.21-.57-.43 1.13-.25 1.4-.08.43"/></g><g class="cls-27"><path class="cls-3" d="M15.07 43.14l-.19-.23a11.85 11.85 0 0 0-1.28-1.45c-.5-.42.74.21.74.21a1.34 1.34 0 0 1-.86-1c-.21-.8.8.42.8.42s.91 1 .79.25a8.38 8.38 0 0 0-.8-1.89l.8.74.33 1.81s-.12-.29.26-.69a2 2 0 0 1 .88-.53l.21-.56-.47 1.09-.28 1.41-.08.42"/></g><g class="cls-27"><path class="cls-3" d="M12 42.5s-.07-.1-.19-.24a11.06 11.06 0 0 0-1.28-1.44c-.5-.42.74.2.74.2a1.32 1.32 0 0 1-.86-1c-.21-.79.8.42.8.42s.91 1 .79.25a8.23 8.23 0 0 0-.8-1.88l.8.73.33 1.78s-.12-.29.26-.69a1.94 1.94 0 0 1 .88-.52l.21-.57-.47 1.09-.21 1.44-.08.43"/></g><g class="cls-27"><path class="cls-3" d="M12 43l-.19-.23a11.85 11.85 0 0 0-1.28-1.45c-.5-.42.74.21.74.21a1.34 1.34 0 0 1-.86-1c-.21-.8.8.42.8.42s.91 1 .79.25a8.38 8.38 0 0 0-.8-1.89l.8.74.33 1.78s-.12-.29.26-.69a2 2 0 0 1 .88-.53l.21-.56-.47 1.09-.21 1.43-.08.42"/></g><g class="cls-27"><path class="cls-3" d="M10.61 42.46l-.18-.24a11.06 11.06 0 0 0-1.28-1.44c-.5-.42.73.21.73.21A1.34 1.34 0 0 1 9 40c-.21-.79.79.42.79.42s.92 1 .79.25a7.79 7.79 0 0 0-.8-1.88l.8.74.42 1.79s-.12-.29.25-.69a2 2 0 0 1 .88-.52l.21-.56-.46 1.08-.3 1.37-.08.43"/></g><g class="cls-27"><path class="cls-3" d="M18 46.76l-.19-.24a11.75 11.75 0 0 0-1.28-1.44c-.5-.42.74.21.74.21a1.34 1.34 0 0 1-.86-1c-.21-.79.8.42.8.42s.91 1 .79.25a8.23 8.23 0 0 0-.8-1.88l.8.74.33 1.77s-.12-.28.26-.69a1.94 1.94 0 0 1 .88-.52l.2-.56-.46 1.08-.21 1.43-.08.43"/></g><g class="cls-27"><path class="cls-3" d="M84.64 45.6l-.18-.24a14.77 14.77 0 0 0-1.28-1.44c-.5-.42.73.21.73.21a1.32 1.32 0 0 1-.85-1c-.22-.8.79.42.79.42s.91 1 .79.25a7.93 7.93 0 0 0-.8-1.89l.8.74.36 1.82s-.13-.29.25-.69a2.07 2.07 0 0 1 .88-.53l.21-.56-.46 1.09-.25 1.4-.09.42"/></g><g class="cls-27"><path class="cls-3" d="M44.8 41.41v-1.19l.61 1.19v-1.19-1.11l.55-1.4v2.9l.42-1v1.31s-.48.38-.19.54a5.27 5.27 0 0 0 .93.31H44.8z"/></g><path class="cls-3" d="M83.74 45.77a2.39 2.39 0 0 1 0-.67c0-.53.6-1.7 0-2s-.9-2.13-.9-2.13l.19-.74a10.63 10.63 0 0 0 .32 1.63 11.18 11.18 0 0 0 1.26 1.61l-.19.86v1.1l.49-.06-.29-.37.12-1.29.67 1.7v.32h-1.67zM46.24 42.28a.91.91 0 0 1 0-.29c0-.23.26-.74 0-.88s-.39-.92-.39-.92l.08-.33a4.49 4.49 0 0 0 .14.71 5.18 5.18 0 0 0 .55.7l-.08.38v.48h.22l-.14-.13.06-.56.28.74v.14h-.72zM47.05 41.87a1.82 1.82 0 0 1 0-.29c0-.24.26-.74 0-.88s-.39-.92-.39-.92l.08-.33a4.71 4.71 0 0 0 .14.71 5.18 5.18 0 0 0 .55.7l-.08.37v.48h.22l-.11-.14.06-.56.29.74v.14h-.73zM44.63 41.83a1.82 1.82 0 0 1 0-.29c0-.23.26-.74 0-.88s-.4-.92-.4-.92l.09-.32a5.91 5.91 0 0 0 .13.71 5.66 5.66 0 0 0 .55.69l-.08.38v.48h.21l-.1-.14v-.56l.29.74v.14h-.73zM23 40.67a1.08 1.08 0 0 0 0-.32c0-.26-.29-.82 0-1s.43-1 .43-1l-.05-.35a4.64 4.64 0 0 1-.15.79 5.92 5.92 0 0 1-.61.78l.09.41v.53h-.24l.12-.16-.06-.62-.32.82v.15H23zM18.88 44.72l-.11-.14a7.41 7.41 0 0 0-.77-.88c-.31-.26.44.12.44.12a.8.8 0 0 1-.52-.58c-.13-.49.49.25.49.25s.55.59.48.15a5 5 0 0 0-.49-1.14l.49.44.2 1.09s-.07-.18.16-.42a1.16 1.16 0 0 1 .53-.32l.13-.35-.28.67-.15.85v.26"/><path class="cls-3" d="M19.83 45.17a1.08 1.08 0 0 0 0-.32c0-.25-.29-.82 0-1s.44-1 .44-1l-.1-.35a4.57 4.57 0 0 1-.15.78 5.18 5.18 0 0 1-.61.78l.09.41v.54h-.24l.12-.16-.06-.62L19 45v.15h.8zM18.82 42.9l-.11-.15a9.42 9.42 0 0 0-.78-.88c-.31-.25.44.13.44.13a.8.8 0 0 1-.51-.59c-.14-.48.48.26.48.26s.56.58.48.15a4.7 4.7 0 0 0-.49-1.15l.49.45.18 1.08s-.08-.17.15-.42a1.28 1.28 0 0 1 .54-.32l.12-.34-.28.66-.15.86-.05.26"/><path class="cls-3" d="M19.78 43.35a2.15 2.15 0 0 0 0-.32c0-.26-.29-.82 0-1s.44-1 .44-1l-.09-.36a5.14 5.14 0 0 1-.16.79 5.24 5.24 0 0 1-.6.78l.09.41v.53h-.24l.12-.15-.06-.62-.28.79v.15h.81zM21.05 45.22l-.11-.15a8.17 8.17 0 0 0-.78-.88c-.3-.25.45.13.45.13a.8.8 0 0 1-.52-.59c-.13-.48.48.26.48.26s.56.59.48.15a4.7 4.7 0 0 0-.49-1.14l.49.45.21 1.09s-.08-.18.15-.42a1.16 1.16 0 0 1 .54-.32l.13-.35-.28.67-.16.85-.05.26"/><path class="cls-3" d="M22 45.67a2.15 2.15 0 0 0 0-.32c0-.26-.29-.82 0-1s.43-1 .43-1l-.07-.35a5.94 5.94 0 0 1-.15.79 5.92 5.92 0 0 1-.61.78l.09.41v.54h-.24l.11-.16-.06-.62-.32.82v.15H22zM21.2 48.26l-.11-.14a8.3 8.3 0 0 0-.78-.88c-.31-.26.45.13.45.13a.83.83 0 0 1-.52-.59c-.13-.49.48.26.48.26s.56.58.48.15a4.52 4.52 0 0 0-.49-1.19l.49.45.21 1.08s-.08-.17.15-.42a1.28 1.28 0 0 1 .54-.32l.12-.34-.28.66-.15.86-.05.25"/><path class="cls-3" d="M22.16 48.72a2.15 2.15 0 0 0 0-.32c0-.26-.29-.82 0-1s.44-1 .44-1l-.09-.4a6.25 6.25 0 0 1-.15.79 6.43 6.43 0 0 1-.61.77l.09.42v.53h-.24l.12-.15-.06-.63-.32.83v.15h.81zM15.12 43.54a1 1 0 0 1-.12-.14 7.41 7.41 0 0 0-.78-.88c-.31-.26.44.13.44.13a.83.83 0 0 1-.52-.59c-.13-.49.49.25.49.25s.55.59.48.16a4.93 4.93 0 0 0-.49-1.15l.49.45.2 1.08s-.07-.18.16-.42a1.27 1.27 0 0 1 .53-.32l.13-.34-.28.66-.15.85-.05.26"/><path class="cls-3" d="M16.07 44a1.08 1.08 0 0 0 0-.32c0-.26-.29-.82 0-1s.44-1 .44-1l-.09-.36a5.14 5.14 0 0 1-.16.79 5.55 5.55 0 0 1-.61.77l.09.42v.53h-.24l.12-.15-.03-.68-.32.82V44h.8zM11.56 43.32l-.11-.15a9.42 9.42 0 0 0-.78-.88c-.31-.25.44.13.44.13a.8.8 0 0 1-.52-.59c-.13-.48.49.26.49.26s.55.58.48.15a5.15 5.15 0 0 0-.49-1.15l.49.45.2 1.08s-.07-.17.16-.42a1.27 1.27 0 0 1 .53-.32l.13-.34-.28.66-.15.86-.05.26"/><path class="cls-3" d="M12.52 43.77a2.15 2.15 0 0 0 0-.32c0-.26-.3-.82 0-1s.44-1 .44-1l-.09-.36a5.14 5.14 0 0 1-.16.79 5 5 0 0 1-.61.77l.1.42v.53h-.24l.12-.15-.08-.65-.32.82v.15h.81zM14.38 41.52l-.11-.15a9.42 9.42 0 0 0-.78-.88c-.31-.25.44.13.44.13a.82.82 0 0 1-.52-.59c-.13-.48.49.26.49.26s.55.59.48.15a5.15 5.15 0 0 0-.49-1.15l.49.45.21 1.08s-.08-.17.15-.41a1.24 1.24 0 0 1 .54-.33l.12-.34-.28.67-.15.85-.05.26"/><path class="cls-3" d="M15.34 42a2.15 2.15 0 0 0 0-.32c0-.26-.29-.82 0-1s.44-1 .44-1l-.09-.36a4.92 4.92 0 0 1-.16.79 5.24 5.24 0 0 1-.6.78l.09.41v.53h-.24l.12-.15-.05-.68-.32.82V42h.81z"/><path class="cls-3" d="M13.57 42.73a7.52 7.52 0 0 0 .51-3.2c-.28-1.11-.23 3.81-.23 3.81l.56.73V43l.25 1.12.58.21.46.76-1.07-4.57 1.71 5.69 1.34-.21-.41-4.29 1.12 5.64"/><path class="cls-3" d="M12.27 42.47a7.36 7.36 0 0 0 .51-3.2c-.28-1.12-.23 3.81-.23 3.81l.56.72v-1.11l.25 1.11.64.2.45.76-1.06-4.57L15 45.9l1.34-.13-.34-4.29 1.11 5.64"/><g class="cls-27"><path class="cls-3" d="M19.73 44.63l-.18-.24a13.81 13.81 0 0 0-1.28-1.45c-.5-.41.73.21.73.21a1.29 1.29 0 0 1-.85-1c-.22-.79.79.42.79.42s.91 1 .79.25a7.79 7.79 0 0 0-.8-1.88l.8.73.34 1.78s-.13-.29.25-.69a2.07 2.07 0 0 1 .88-.53l.21-.56L21 42.8l-.25 1.4-.09.43"/></g><g class="cls-27"><path class="cls-3" d="M19.05 42.59l-.18-.24a14.77 14.77 0 0 0-1.28-1.44c-.5-.42.73.21.73.21a1.32 1.32 0 0 1-.85-1c-.22-.8.79.42.79.42s.91 1 .79.25a7.93 7.93 0 0 0-.8-1.89l.8.74.34 1.78s-.13-.29.25-.69a2.07 2.07 0 0 1 .88-.53l.21-.56-.46 1.09-.27 1.44-.09.42"/></g><g class="cls-27"><path class="cls-3" d="M16 42.44l-.18-.23a13.81 13.81 0 0 0-1.28-1.45c-.5-.42.73.21.73.21a1.32 1.32 0 0 1-.85-1c-.22-.8.79.42.79.42s.91 1 .79.25a7.93 7.93 0 0 0-.8-1.89l.8.74.34 1.78s-.13-.29.25-.69a2.07 2.07 0 0 1 .88-.53l.21-.56-.46 1.09L17 42l-.09.42"/></g><path class="cls-3" d="M19.1 43l-.1-.15a7.41 7.41 0 0 0-.78-.88c-.31-.26.45.12.45.12a.8.8 0 0 1-.52-.58c-.13-.49.48.25.48.25s.56.59.48.16a4.52 4.52 0 0 0-.49-1.15l.49.45.21 1.08s-.08-.18.15-.42a1.28 1.28 0 0 1 .54-.32l.12-.34-.28.66-.15.85-.05.26"/><path class="cls-3" d="M20.06 43.45a2.15 2.15 0 0 0 0-.32c0-.26-.29-.83 0-1s.44-1 .44-1l-.09-.36a6.25 6.25 0 0 1-.15.79 6.43 6.43 0 0 1-.61.77l.09.42v.53h-.24l.12-.15-.06-.63-.32.82v.16h.81zM15.54 42.77l-.11-.15a8.3 8.3 0 0 0-.78-.88c-.31-.26.45.13.45.13a.8.8 0 0 1-.52-.59c-.13-.48.48.26.48.26s.56.58.48.15a4.7 4.7 0 0 0-.49-1.15l.49.45.21 1.08s-.08-.17.15-.42a1.28 1.28 0 0 1 .54-.32l.13-.34-.29.66-.15.86-.05.26"/><path class="cls-3" d="M16.5 43.22a2.15 2.15 0 0 0 0-.32c0-.26-.29-.82 0-1s.43-1 .43-1l-.09-.36a6.25 6.25 0 0 1-.15.79 6.43 6.43 0 0 1-.61.77l.09.42v.53L16 43l.11-.15-.11-.6-.32.82v.15h.81z"/><path class="cls-3" d="M16.25 41.92a7.36 7.36 0 0 0 .51-3.2c-.28-1.12-.22 3.81-.22 3.81l.55.72v-1.11l.26 1.11.58.22.46.76-1.07-4.57L19 45.35l1.35-.13-.35-4.29 1.12 5.63"/><g class="cls-27"><path class="cls-3" d="M23.31 44.41l-.18-.24a11.75 11.75 0 0 0-1.28-1.44c-.5-.42.73.21.73.21a1.34 1.34 0 0 1-.85-1c-.21-.8.79.41.79.41s.92 1 .79.26a7.73 7.73 0 0 0-.8-1.89l.8.74.34 1.77s-.12-.28.25-.68a2.07 2.07 0 0 1 .88-.53l.22-.52-.46 1.09-.26 1.41-.08.42"/></g><g class="cls-27"><path class="cls-3" d="M22.63 42.38l-.18-.24a11.06 11.06 0 0 0-1.28-1.44c-.5-.42.73.21.73.21a1.34 1.34 0 0 1-.85-1c-.21-.79.79.42.79.42s.92 1 .79.25a7.79 7.79 0 0 0-.8-1.88l.8.74.37 1.8s-.12-.29.25-.69a2 2 0 0 1 .85-.55l.21-.56-.46 1.08L23.6 42l-.08.43"/></g><g class="cls-27"><path class="cls-3" d="M19.6 42.23l-.18-.23a11.06 11.06 0 0 0-1.28-1.44c-.5-.42.73.21.73.21a1.34 1.34 0 0 1-.85-1c-.21-.79.79.42.79.42s.92 1 .79.25a7.79 7.79 0 0 0-.8-1.88l.8.74.34 1.77s-.12-.29.25-.69a2 2 0 0 1 .88-.52l.21-.56-.46 1.08-.25 1.4-.08.43"/></g><path class="cls-3" d="M22.69 42.78l-.12-.15a7.22 7.22 0 0 0-.78-.88c-.3-.25.45.13.45.13a.8.8 0 0 1-.52-.59c-.13-.48.48.26.48.26s.56.59.49.15a5.15 5.15 0 0 0-.49-1.15l.49.45.2 1.08s-.08-.17.15-.42a1.28 1.28 0 0 1 .54-.32l.13-.34-.28.66-.16.86-.05.26"/><path class="cls-3" d="M23.64 43.23a1.08 1.08 0 0 0 0-.32c0-.26-.29-.82 0-1s.43-1 .43-1l-.07-.36a4.83 4.83 0 0 1-.15.79 5.92 5.92 0 0 1-.61.78l.09.41v.53h-.24l.12-.15-.07-.62-.31.82v.15h.8zM19.13 42.55l-.13-.14a6 6 0 0 0-.78-.88c-.3-.26.45.12.45.12a.8.8 0 0 1-.52-.58c-.13-.49.48.25.48.25s.56.59.49.15a5 5 0 0 0-.49-1.14l.49.45.2 1.08s-.07-.18.16-.42a1.11 1.11 0 0 1 .53-.32l.13-.34-.28.66-.16.85-.05.26"/><path class="cls-3" d="M20.08 43a1.08 1.08 0 0 0 0-.32c0-.25-.29-.82 0-1s.43-1 .43-1l-.09-.35a4.57 4.57 0 0 1-.15.78 5.92 5.92 0 0 1-.61.78l.09.41v.54h-.24l.12-.16-.03-.68-.32.82V43h.8z"/><g class="cls-27"><path class="cls-3" d="M27.48 43l-.16-.22a11.88 11.88 0 0 0-1.15-1.29c-.45-.38.65.18.65.18a1.18 1.18 0 0 1-.76-.86c-.19-.72.71.37.71.37s.82.87.71.23a7 7 0 0 0-.72-1.69l.72.66.31 1.6s-.12-.26.22-.62a1.88 1.88 0 0 1 .79-.48l.19-.5-.41 1-.23 1.26-.07.38"/></g><g class="cls-27"><path class="cls-3" d="M26.87 41.21L26.7 41a11 11 0 0 0-1.14-1.3c-.46-.38.65.19.65.19a1.18 1.18 0 0 1-.76-.87c-.2-.71.71.38.71.38s.82.86.71.22a7 7 0 0 0-.72-1.69l.72.66.3 1.6s-.11-.26.23-.62a1.8 1.8 0 0 1 .79-.47l.19-.51-.41 1-.23 1.26-.08.38"/></g><g class="cls-27"><path class="cls-3" d="M24.15 41.08l-.15-.22a11 11 0 0 0-1.15-1.3c-.45-.37.66.19.66.19a1.2 1.2 0 0 1-.77-.86c-.19-.72.71.37.71.37s.83.87.72.23a7.19 7.19 0 0 0-.72-1.7l.72.67.3 1.59s-.11-.25.23-.62a1.75 1.75 0 0 1 .79-.47l.18-.5-.41 1-.26 1.23-.07.39"/></g><path class="cls-3" d="M26.92 41.57l-.11-.13a5.9 5.9 0 0 0-.7-.79c-.27-.23.41.11.41.11a.73.73 0 0 1-.47-.53c-.12-.43.43.23.43.23s.5.53.44.14a4.41 4.41 0 0 0-.44-1l.44.4.18 1s-.07-.16.14-.38a1.13 1.13 0 0 1 .48-.29l.12-.31-.26.6-.13.77-.05.23"/><path class="cls-3" d="M27.78 42a1.82 1.82 0 0 0 0-.29c0-.23-.27-.74 0-.88s.39-.92.39-.92l-.08-.32a4.71 4.71 0 0 1-.14.71 4.9 4.9 0 0 1-.54.69l.08.38v.48h-.21l.1-.14-.05-.56-.29.74V42h.73zM23.72 41.36l-.11-.13a6.59 6.59 0 0 0-.7-.79c-.27-.23.4.12.4.12a.72.72 0 0 1-.46-.53c-.12-.44.43.23.43.23s.5.53.44.14a4.56 4.56 0 0 0-.44-1l.44.41.18 1s-.07-.16.14-.38a1.05 1.05 0 0 1 .48-.28l.12-.31-.26.59-.13.77-.05.23"/><path class="cls-3" d="M24.58 41.77a1.63 1.63 0 0 0 0-.28c0-.24-.27-.74 0-.88s.39-.92.39-.92l-.08-.33a4.49 4.49 0 0 1-.14.71 5.27 5.27 0 0 1-.54.7l.08.37v.48h-.21l.1-.14-.05-.56-.29.74v.13h.73z"/><g class="cls-27"><path class="cls-3" d="M31.06 43.72l-.16-.22a11.88 11.88 0 0 0-1.15-1.29c-.45-.38.66.19.66.19a1.21 1.21 0 0 1-.77-.87c-.19-.72.71.38.71.38s.82.86.71.22a7 7 0 0 0-.72-1.69l.72.66.31 1.6s-.12-.26.22-.62a1.88 1.88 0 0 1 .79-.48l.19-.5-.41 1-.23 1.26-.07.38"/></g><g class="cls-27"><path class="cls-3" d="M30.45 41.89l-.16-.21a11.12 11.12 0 0 0-1.15-1.3c-.45-.38.65.19.65.19a1.18 1.18 0 0 1-.79-.87c-.19-.71.71.38.71.38s.82.86.71.22a7 7 0 0 0-.72-1.69l.72.66.31 1.6s-.12-.26.22-.62a1.8 1.8 0 0 1 .79-.47l.19-.51-.41 1-.23 1.26-.07.38"/></g><g class="cls-27"><path class="cls-3" d="M27.73 41.76l-.17-.22a11.87 11.87 0 0 0-1.15-1.3c-.45-.37.66.19.66.19a1.2 1.2 0 0 1-.77-.86c-.19-.72.72.37.72.37s.82.87.71.23a7 7 0 0 0-.73-1.69l.72.66.3 1.59s-.11-.25.23-.61a1.88 1.88 0 0 1 .79-.48l.19-.5-.42 1-.22 1.25-.08.39"/></g><path class="cls-3" d="M30.5 42.25l-.1-.13a7.59 7.59 0 0 0-.7-.79c-.28-.23.4.11.4.11a.72.72 0 0 1-.47-.52c-.12-.44.43.22.43.22s.51.53.44.14a4.41 4.41 0 0 0-.44-1l.44.4.18 1s-.07-.16.14-.38a1.13 1.13 0 0 1 .48-.3l.12-.31-.25.6L31 42l-.05.23"/><path class="cls-3" d="M31.36 42.66a1.82 1.82 0 0 0 0-.29c0-.23-.26-.74 0-.87s.39-.93.39-.93l-.08-.32a5.91 5.91 0 0 1-.13.71 5.18 5.18 0 0 1-.55.7l.08.37v.48h-.21l.1-.14v-.56l-.29.74v.14h.73zM27.3 42.05l-.1-.13a6.8 6.8 0 0 0-.7-.8c-.28-.23.4.12.4.12a.73.73 0 0 1-.47-.53c-.12-.44.43.23.43.23s.5.53.44.14a4.41 4.41 0 0 0-.44-1l.44.4.18 1s-.07-.15.14-.37a1.13 1.13 0 0 1 .48-.29l.12-.31-.26.6-.13.76v.24"/><path class="cls-3" d="M28.16 42.45a1.63 1.63 0 0 0 0-.28c0-.24-.26-.74 0-.88s.39-.92.39-.92l-.08-.32a5.5 5.5 0 0 1-.13.7 5.18 5.18 0 0 1-.55.7l.08.37v.48h-.21l.1-.14-.05-.56-.29.74v.13h.73z"/><g class="cls-27"><path class="cls-3" d="M34.25 42.52l-.17-.21A10.27 10.27 0 0 0 32.93 41c-.45-.38.66.19.66.19a1.18 1.18 0 0 1-.76-.87c-.2-.72.71.38.71.38s.82.86.71.22a7 7 0 0 0-.72-1.69l.72.66.3 1.6s-.11-.26.23-.62a1.8 1.8 0 0 1 .79-.47l.19-.51-.42 1-.22 1.26-.08.38"/></g><g class="cls-27"><path class="cls-3" d="M31.52 42.39l-.16-.22a12 12 0 0 0-1.15-1.3c-.45-.37.66.19.66.19a1.18 1.18 0 0 1-.77-.86c-.19-.72.71.37.71.37s.82.87.71.23a7.19 7.19 0 0 0-.72-1.7l.72.67.31 1.59s-.12-.26.22-.62a1.8 1.8 0 0 1 .79-.47l.19-.5-.41 1-.23 1.23-.07.39"/></g><path class="cls-3" d="M34.29 42.88a1 1 0 0 0-.1-.13 5.9 5.9 0 0 0-.7-.79c-.27-.23.4.11.4.11a.71.71 0 0 1-.46-.53c-.12-.43.43.23.43.23s.5.53.43.14a4.11 4.11 0 0 0-.43-1l.43.4.19 1s-.07-.16.14-.38a1.08 1.08 0 0 1 .48-.29l.11-.31-.25.6-.14.77v.23"/><path class="cls-3" d="M35.15 43.29a.91.91 0 0 0 0-.29c0-.23-.26-.74 0-.88s.39-.92.39-.92l-.08-.32a4.71 4.71 0 0 1-.14.71 5.66 5.66 0 0 1-.55.69l.09.38v.48h-.21l.1-.14-.05-.56-.29.74v.14h.72zM31.09 42.67l-.1-.13a6.59 6.59 0 0 0-.7-.79c-.27-.23.4.12.4.12a.71.71 0 0 1-.46-.53c-.12-.44.43.23.43.23s.5.53.43.14a4.13 4.13 0 0 0-.44-1l.44.41.19 1s-.07-.16.14-.38a1 1 0 0 1 .48-.28l.11-.31-.25.59-.14.77v.23"/><path class="cls-3" d="M32 43.08a.82.82 0 0 0 0-.28c0-.24-.26-.74 0-.88s.39-.92.39-.92l-.08-.33a4.49 4.49 0 0 1-.14.71 5.18 5.18 0 0 1-.55.7l.09.37v.48h-.21l.1-.14-.05-.56-.29.74v.13H32z"/><g class="cls-27"><path class="cls-3" d="M34.24 42.78l-.17-.22a10.91 10.91 0 0 0-1.15-1.29c-.45-.38.66.18.66.18a1.2 1.2 0 0 1-.77-.86c-.19-.72.72.38.72.38s.82.86.71.22a7 7 0 0 0-.72-1.69l.72.66.3 1.6s-.11-.26.23-.62a1.88 1.88 0 0 1 .79-.48l.19-.5-.42 1-.22 1.26-.08.38"/></g><path class="cls-3" d="M33.81 43.07l-.1-.13a5.4 5.4 0 0 0-.71-.79c-.27-.23.41.11.41.11a.73.73 0 0 1-.47-.53c-.12-.43.43.23.43.23s.5.53.44.14a4.41 4.41 0 0 0-.44-1l.44.4.18 1s-.07-.15.14-.37a1.13 1.13 0 0 1 .48-.29l.12-.31-.26.6-.13.76-.05.24"/><g class="cls-27"><path class="cls-3" d="M62.65 45.42l-.17-.22a10.91 10.91 0 0 0-1.15-1.29c-.45-.38.66.19.66.19a1.21 1.21 0 0 1-.77-.87c-.19-.72.71.38.71.38s.83.86.72.22a7.5 7.5 0 0 0-.72-1.69l.72.66.3 1.6s-.11-.26.22-.62a1.88 1.88 0 0 1 .8-.48l.18-.5-.41 1-.23 1.2-.07.38"/></g><g class="cls-27"><path class="cls-3" d="M48.88 42.54l-.16-.21A10.27 10.27 0 0 0 47.57 41c-.45-.38.66.19.66.19a1.19 1.19 0 0 1-.77-.87c-.19-.71.71.38.71.38s.82.86.71.22a7 7 0 0 0-.72-1.69l.72.66.31 1.6s-.11-.26.22-.62a1.8 1.8 0 0 1 .79-.47l.19-.51-.41 1-.23 1.26-.07.38"/></g><g class="cls-27"><path class="cls-3" d="M48.5 41.08l-.12-.16a7.77 7.77 0 0 0-.85-1c-.33-.28.49.14.49.14a.92.92 0 0 1-.57-.64c-.14-.52.53.28.53.28s.6.63.52.16a5.11 5.11 0 0 0-.5-1.19l.53.49.22 1.17s-.08-.19.17-.46a1.28 1.28 0 0 1 .58-.34l.13-.37-.3.71-.17.93-.05.28"/></g><g class="cls-27"><path class="cls-3" d="M66.18 43.56l-.18-.22a11.88 11.88 0 0 0-1.15-1.29c-.45-.38.65.18.65.18a1.18 1.18 0 0 1-.76-.86c-.19-.72.71.37.71.37s.82.87.71.23a7 7 0 0 0-.72-1.69l.72.66.31 1.59s-.12-.25.22-.61a1.88 1.88 0 0 1 .79-.48l.19-.5-.41 1-.23 1.25-.07.39"/></g><g class="cls-27"><path class="cls-3" d="M65.57 41.73a2.7 2.7 0 0 0-.17-.22 11.8 11.8 0 0 0-1.14-1.29c-.46-.38.65.19.65.19a1.21 1.21 0 0 1-.76-.87c-.2-.72.71.38.71.38s.82.86.71.22a7 7 0 0 0-.72-1.69l.72.66.3 1.6s-.11-.26.23-.62a1.88 1.88 0 0 1 .79-.48l.19-.5-.42 1-.22 1.26-.08.38"/></g><g class="cls-27"><path class="cls-3" d="M62.85 41.59l-.17-.21a11 11 0 0 0-1.15-1.3c-.45-.37.66.19.66.19a1.2 1.2 0 0 1-.77-.87c-.19-.71.71.38.71.38s.83.87.72.23a7.19 7.19 0 0 0-.72-1.7l.72.67.3 1.59s-.11-.26.23-.62a1.75 1.75 0 0 1 .79-.47l.18-.5-.41 1-.23 1.26-.07.38"/></g><path class="cls-3" d="M65.62 42.09l-.11-.09a5.9 5.9 0 0 0-.7-.79c-.27-.23.41.11.41.11a.73.73 0 0 1-.47-.53c-.12-.43.43.23.43.23s.5.53.44.14a4.41 4.41 0 0 0-.44-1l.44.4.18 1s-.07-.15.14-.37a1.13 1.13 0 0 1 .48-.29l.12-.31-.26.6-.13.76-.05.24"/><path class="cls-3" d="M66.48 42.5a1.82 1.82 0 0 0 0-.29c0-.23-.27-.74 0-.88s.39-.92.39-.92l-.08-.32a4.71 4.71 0 0 1-.14.71 4.9 4.9 0 0 1-.54.69l.08.38v.48h-.21l.1-.14v-.56l-.29.74v.14h.73zM62.42 41.88l-.11-.13a6.59 6.59 0 0 0-.7-.79c-.27-.23.4.12.4.12a.72.72 0 0 1-.46-.53c-.12-.44.43.23.43.23s.5.53.44.14a4.56 4.56 0 0 0-.44-1l.44.41.18 1s-.07-.16.14-.38a1.13 1.13 0 0 1 .48-.29l.12-.3-.26.59-.13.77-.05.23"/><path class="cls-3" d="M63.28 42.29a1.73 1.73 0 0 0 0-.29c0-.23-.27-.73 0-.87s.39-.92.39-.92l-.08-.33a4.71 4.71 0 0 1-.14.71 5.27 5.27 0 0 1-.54.7l.08.37v.48h-.21l.1-.13v-.56l-.29.74v.13h.73z"/><path class="cls-3" d="M63.05 41.12a6.62 6.62 0 0 0 .46-2.87c-.25-1-.2 3.42-.2 3.42l.5.65v-1l.23 1 .52.2.41.68-1-4.11 1.53 5.11 1.21-.11-.36-3.86 1 5.07"/><g class="cls-27"><path class="cls-3" d="M67 45.49a2.7 2.7 0 0 0-.17-.22 10.91 10.91 0 0 0-1.2-1.27c-.45-.38.66.19.66.19a1.21 1.21 0 0 1-.76-.87c-.2-.72.71.38.71.38s.82.86.71.22a7 7 0 0 0-.72-1.69l.72.66.3 1.6s-.11-.26.23-.62a1.88 1.88 0 0 1 .79-.48l.19-.5-.42 1-.22 1.26-.08.38"/></g><g class="cls-27"><path class="cls-3" d="M66.38 43.93l-.16-.21a11 11 0 0 0-1.15-1.3c-.45-.38.66.19.66.19a1.19 1.19 0 0 1-.77-.87c-.19-.71.71.38.71.38s.83.87.71.23a7.19 7.19 0 0 0-.72-1.7l.72.66.31 1.6s-.11-.26.22-.62a1.8 1.8 0 0 1 .8-.47l.18-.51-.41 1-.23 1.26-.07.38"/></g><g class="cls-27"><path class="cls-3" d="M62.85 43.53l-.17-.22A11 11 0 0 0 61.53 42c-.45-.37.66.19.66.19a1.2 1.2 0 0 1-.77-.86c-.19-.72.71.37.71.37s.83.87.72.23a7 7 0 0 0-.72-1.69l.72.66.3 1.59s-.11-.25.23-.61a1.82 1.82 0 0 1 .79-.48l.18-.5-.41 1-.23 1.25-.07.39"/></g><path class="cls-3" d="M64.1 45.22l-.1-.13a7.59 7.59 0 0 0-.7-.79c-.28-.23.4.12.4.12a.73.73 0 0 1-.47-.53c-.11-.44.44.23.44.23s.5.53.43.14a4.13 4.13 0 0 0-.44-1l.44.41.19 1s-.07-.16.14-.38a1 1 0 0 1 .48-.28l.11-.31-.25.59-.14.77v.23M46.57 42.24l-.1-.13a6.69 6.69 0 0 0-.7-.79c-.28-.23.4.11.4.11a.73.73 0 0 1-.47-.53c-.12-.43.44.23.44.23s.5.53.43.14a4.41 4.41 0 0 0-.44-1l.44.4.18 1s-.06-.16.14-.38a1.13 1.13 0 0 1 .48-.29l.12-.31-.25.6-.14.71-.05.23"/><path class="cls-3" d="M65.32 44a1.82 1.82 0 0 0 0-.29c0-.23-.26-.74 0-.88s.4-.92.4-.92l-.09-.32a5.91 5.91 0 0 1-.13.71 5.66 5.66 0 0 1-.5.7l.08.38v.48h-.21l.11-.14-.06-.56-.29.74v.1h.73zM62.42 43.82a1 1 0 0 0-.11-.13 6 6 0 0 0-.7-.8c-.27-.23.4.12.4.12a.72.72 0 0 1-.46-.53c-.12-.44.43.23.43.23s.5.53.44.14a4.56 4.56 0 0 0-.44-1l.44.41.18 1s-.07-.15.14-.37a1.13 1.13 0 0 1 .48-.29l.12-.31-.26.6-.13.76-.05.24"/><path class="cls-3" d="M61.79 44.29a.91.91 0 0 0 0-.29c0-.23-.26-.74 0-.87s.39-.93.39-.93l-.08-.32a4.71 4.71 0 0 1-.14.71 5.18 5.18 0 0 1-.55.7l.08.37v.48h-.22l.11-.14-.06-.56-.28.74v.14h.72z"/><g class="cls-27"><path class="cls-3" d="M70.39 43.56l-.17-.22a10.91 10.91 0 0 0-1.15-1.29c-.45-.38.66.18.66.18a1.2 1.2 0 0 1-.77-.86c-.19-.72.71.37.71.37s.83.87.72.23a7 7 0 0 0-.72-1.69l.72.66.3 1.59s-.11-.25.23-.61a1.82 1.82 0 0 1 .79-.48l.18-.5-.41 1-.23 1.25-.07.39"/></g><g class="cls-27"><path class="cls-3" d="M69.77 41.73l-.16-.22a10.91 10.91 0 0 0-1.15-1.29c-.45-.38.66.19.66.19a1.21 1.21 0 0 1-.77-.87c-.19-.72.71.38.71.38s.82.86.71.22a7 7 0 0 0-.72-1.69l.72.66.31 1.6s-.11-.26.22-.62a1.88 1.88 0 0 1 .79-.48l.19-.5-.41 1-.23 1.26-.07.38"/></g><g class="cls-27"><path class="cls-3" d="M67.05 41.59l-.17-.21a11 11 0 0 0-1.15-1.3c-.45-.37.66.19.66.19a1.18 1.18 0 0 1-.76-.87c-.2-.71.71.38.71.38s.82.87.71.23a7.19 7.19 0 0 0-.72-1.7l.72.67.3 1.59s-.11-.26.23-.62a1.8 1.8 0 0 1 .79-.47l.19-.5-.42 1-.22 1.26-.08.38"/></g><path class="cls-3" d="M69.82 42.09l-.1-.13a6.69 6.69 0 0 0-.7-.79c-.28-.23.4.11.4.11a.73.73 0 0 1-.47-.53c-.12-.43.44.23.44.23s.5.53.43.14a4.41 4.41 0 0 0-.44-1l.44.4.18 1s-.06-.15.14-.37a1.14 1.14 0 0 1 .49-.29l.11-.31-.25.6-.14.76v.24"/><path class="cls-3" d="M70.68 42.5a1.82 1.82 0 0 0 0-.29c0-.23-.26-.74 0-.88s.39-.92.39-.92l-.07-.32a4.71 4.71 0 0 1-.14.71 5.66 5.66 0 0 1-.55.69l.08.38v.48h-.22l.11-.14-.06-.56-.29.74v.14h.73zM67.52 42.44l-.1-.13a7.59 7.59 0 0 0-.7-.79c-.28-.23.4.11.4.11a.72.72 0 0 1-.47-.52c-.12-.44.44.23.44.23s.5.52.43.13a4.41 4.41 0 0 0-.44-1l.44.41.19 1s-.07-.16.13-.38a1.14 1.14 0 0 1 .49-.29l.11-.3-.25.59-.14.77v.23M69.14 42.16a.87.87 0 0 0 0-.29c0-.23-.26-.73 0-.87s.39-.92.39-.92l-.08-.33a4.71 4.71 0 0 1-.14.71 5.27 5.27 0 0 1-.54.7l.08.37V42h-.21l.1-.13-.05-.56-.29.73v.14h.72z"/><g class="cls-27"><path class="cls-3" d="M75.53 43.18l-.17-.18a10.27 10.27 0 0 0-1.15-1.3c-.45-.38.66.19.66.19a1.2 1.2 0 0 1-.77-.89c-.19-.71.71.38.71.38s.83.86.72.22a7 7 0 0 0-.72-1.69l.72.66.3 1.6s-.11-.26.23-.62a1.8 1.8 0 0 1 .79-.47l.19-.51-.42 1-.22 1.23-.08.38"/></g><g class="cls-27"><path class="cls-3" d="M84.88 46.47l-.16-.22A12 12 0 0 0 83.57 45c-.45-.37.66.19.66.19a1.18 1.18 0 0 1-.77-.86c-.19-.72.71.37.71.37s.82.87.71.23a7.19 7.19 0 0 0-.72-1.7l.72.67.31 1.59s-.12-.25.22-.61a1.88 1.88 0 0 1 .79-.48l.19-.5-.41 1-.23 1.25-.07.39"/></g><g class="cls-27"><path class="cls-3" d="M74.91 41.35l-.16-.21a11 11 0 0 0-1.15-1.3c-.45-.38.66.19.66.19a1.19 1.19 0 0 1-.77-.87c-.19-.71.71.38.71.38s.83.87.71.23a7.19 7.19 0 0 0-.72-1.7l.72.66.31 1.6s-.11-.26.22-.62a1.8 1.8 0 0 1 .8-.47l.18-.51-.41 1-.23 1.27-.07.38"/></g><g class="cls-27"><path class="cls-3" d="M72.19 41.22A2.7 2.7 0 0 0 72 41a11.8 11.8 0 0 0-1.14-1.29c-.46-.38.65.19.65.19a1.21 1.21 0 0 1-.76-.87c-.2-.72.71.38.71.38s.82.86.71.22a7 7 0 0 0-.72-1.69l.72.66.3 1.6s-.11-.26.23-.62a1.88 1.88 0 0 1 .79-.48l.19-.5-.42 1-.22 1.26-.08.38"/></g><path class="cls-3" d="M75 41.71l-.1-.13a7.59 7.59 0 0 0-.7-.79c-.28-.23.4.12.4.12a.75.75 0 0 1-.47-.53c-.11-.44.44.23.44.23s.5.52.43.13a4.41 4.41 0 0 0-.44-1l.44.41.19 1s-.07-.16.13-.38a1.14 1.14 0 0 1 .49-.29l.11-.3-.25.59-.14.77v.23"/><path class="cls-3" d="M75.82 42.12a1.73 1.73 0 0 0 0-.29c0-.23-.26-.74 0-.87s.39-.93.39-.93l-.08-.32a4.71 4.71 0 0 1-.14.71 5.18 5.18 0 0 1-.55.7l.08.37v.48h-.22l.11-.13-.06-.57-.25.73v.14h.72zM71.76 41.51l-.1-.13a6.69 6.69 0 0 0-.7-.79c-.28-.23.4.11.4.11a.73.73 0 0 1-.47-.53c-.12-.43.44.23.44.23s.5.53.43.14a4.41 4.41 0 0 0-.44-1l.44.4.18 1s-.06-.15.14-.37a1.14 1.14 0 0 1 .49-.29l.11-.31-.25.6-.14.76-.05.24"/><path class="cls-3" d="M72.62 41.92a1.82 1.82 0 0 0 0-.29c0-.23-.26-.74 0-.88s.39-.92.39-.92l-.08-.32a4.71 4.71 0 0 1-.14.71 5.66 5.66 0 0 1-.55.69l.08.38v.48h-.22l.11-.14-.03-.63-.29.74v.14h.73zM73.57 41a6.66 6.66 0 0 0 .43-2.89c-.25-1-.2 3.42-.2 3.42l.5.65v-1l.23 1 .52.2.41.68-1-4.11 1.52 5.12 1.28-.07-.36-3.86 1 5.07"/><g class="cls-27"><path class="cls-3" d="M77.39 44.92l-.17-.21a11 11 0 0 0-1.15-1.3c-.45-.37.66.19.66.19a1.2 1.2 0 0 1-.77-.86c-.19-.72.71.37.71.37s.83.87.72.23a7.19 7.19 0 0 0-.72-1.7l.72.67.3 1.59s-.11-.26.23-.62a1.75 1.75 0 0 1 .79-.47l.18-.5-.41 1-.23 1.26-.07.38"/></g><g class="cls-27"><path class="cls-3" d="M80.72 46.89l-.16-.22a11.88 11.88 0 0 0-1.15-1.29c-.46-.38.65.18.65.18a1.18 1.18 0 0 1-.76-.86c-.19-.72.71.37.71.37s.82.87.71.23a7 7 0 0 0-.72-1.69l.72.66.3 1.59s-.11-.25.23-.61a1.88 1.88 0 0 1 .79-.48l.19-.5-.41 1-.23 1.25-.07.39"/></g><g class="cls-27"><path class="cls-3" d="M80.11 45.06a2.7 2.7 0 0 0-.17-.22 11.8 11.8 0 0 0-1.14-1.29c-.46-.38.65.19.65.19a1.21 1.21 0 0 1-.76-.87c-.2-.72.71.38.71.38s.82.86.71.22a7 7 0 0 0-.72-1.69l.72.66.3 1.6s-.11-.26.23-.62a1.88 1.88 0 0 1 .79-.48l.19-.5-.42 1-.2 1.24-.08.38"/></g><path class="cls-3" d="M80.16 45.42l-.11-.13a5.9 5.9 0 0 0-.7-.79c-.27-.23.4.11.4.11a.72.72 0 0 1-.46-.53c-.12-.43.43.23.43.23s.5.53.44.14a4.41 4.41 0 0 0-.44-1l.44.4.18 1s-.07-.15.14-.37a1.13 1.13 0 0 1 .48-.29l.12-.31-.26.6-.13.77v.23"/><path class="cls-3" d="M81 45.83a1.82 1.82 0 0 0 0-.29c0-.23-.27-.74 0-.88s.39-.92.39-.92l-.08-.32a4.71 4.71 0 0 1-.14.71 4.9 4.9 0 0 1-.54.69l.08.38v.48h-.21l.1-.14v-.56l-.29.74v.14H81z"/><g class="cls-27"><path class="cls-3" d="M79.62 45.77l.17-.21a10.27 10.27 0 0 1 1.15-1.3c.45-.38-.66.19-.66.19a1.18 1.18 0 0 0 .76-.87c.2-.71-.71.38-.71.38s-.82.86-.71.22a7 7 0 0 1 .72-1.69l-.72.66-.3 1.6s.11-.26-.23-.62a1.8 1.8 0 0 0-.79-.47l-.19-.51.42 1 .22 1.26.08.38"/></g><path class="cls-3" d="M79.58 46.13a1 1 0 0 1 .1-.13 5.9 5.9 0 0 1 .7-.79c.27-.23-.4.11-.4.11a.71.71 0 0 0 .46-.53c.12-.43-.43.23-.43.23s-.5.53-.43.14a4 4 0 0 1 .44-1l-.44.4-.19 1s.07-.16-.14-.38a1.08 1.08 0 0 0-.48-.29l-.11-.31.25.6.14.77v.23"/><path class="cls-3" d="M78.72 46.54a.91.91 0 0 1 0-.29c0-.23.26-.74 0-.88s-.39-.92-.39-.92l.08-.32a4.71 4.71 0 0 0 .14.71 5 5 0 0 0 .55.69l-.09.38v.48h.21l-.1-.14.05-.56.29.74v.14h-.72z"/><g class="cls-27"><path class="cls-3" d="M73 44.11l.17-.21a11 11 0 0 1 1.15-1.3c.45-.37-.66.19-.66.19a1.2 1.2 0 0 0 .77-.86c.19-.72-.71.37-.71.37s-.83.87-.72.23a7.19 7.19 0 0 1 .72-1.7l-.72.67-.3 1.59s.11-.26-.23-.62a1.8 1.8 0 0 0-.79-.47l-.19-.5.42 1 .22 1.26.08.38"/></g><g class="cls-27"><path class="cls-3" d="M73.65 42.29l.16-.22A10.91 10.91 0 0 1 75 40.78c.45-.38-.66.18-.66.18a1.18 1.18 0 0 0 .77-.86c.19-.72-.71.37-.71.37s-.83.87-.71.23a7 7 0 0 1 .68-1.7l-.72.66-.31 1.59s.11-.25-.22-.61a1.88 1.88 0 0 0-.8-.48l-.18-.5.41 1 .23 1.25.07.39"/></g><path class="cls-3" d="M73.6 42.65l.1-.13a6.8 6.8 0 0 1 .7-.8c.28-.23-.4.12-.4.12a.73.73 0 0 0 .47-.53c.11-.44-.44.23-.44.23s-.5.53-.43.14a4.41 4.41 0 0 1 .44-1l-.44.4-.19 1s.07-.15-.13-.37a1.14 1.14 0 0 0-.49-.29l-.11-.31.25.6.14.76.05.24"/><path class="cls-3" d="M72.74 43.05a1.63 1.63 0 0 1 0-.28c0-.24.26-.74 0-.88s-.39-.92-.39-.92l.08-.32a4.42 4.42 0 0 0 .14.7 5.18 5.18 0 0 0 .55.7l-.08.37v.48h.22l-.11-.14.06-.56.28.74v.13h-.72z"/><g class="cls-27"><path class="cls-3" d="M69.05 45.77l.16-.22a11.88 11.88 0 0 1 1.15-1.29c.46-.38-.65.18-.65.18a1.18 1.18 0 0 0 .76-.86c.19-.72-.71.38-.71.38s-.82.86-.71.22a7 7 0 0 1 .72-1.69l-.72.66-.3 1.6s.11-.26-.23-.62a1.88 1.88 0 0 0-.79-.48l-.19-.5.41 1 .23 1.26.07.38"/></g><g class="cls-27"><path class="cls-3" d="M69.66 43.94l.17-.21a11 11 0 0 1 1.17-1.3c.46-.38-.65.19-.65.19a1.18 1.18 0 0 0 .76-.87c.2-.71-.71.38-.71.38s-.82.86-.71.22a7 7 0 0 1 .72-1.69l-.72.66-.3 1.6s.11-.26-.23-.62a1.8 1.8 0 0 0-.79-.47l-.19-.51.42 1 .22 1.26.08.38"/></g><path class="cls-3" d="M69.61 44.3l.11-.13a5.9 5.9 0 0 1 .7-.79c.27-.23-.4.11-.4.11a.72.72 0 0 0 .46-.53c.12-.43-.43.23-.43.23s-.5.53-.44.14a4.41 4.41 0 0 1 .44-1l-.44.4-.18 1s.07-.16-.14-.38a1.13 1.13 0 0 0-.48-.29l-.12-.31.26.6.13.77v.23"/><path class="cls-3" d="M68.75 44.71a1.82 1.82 0 0 1 0-.29c0-.23.27-.74 0-.88s-.39-.92-.39-.92l.08-.32a4.71 4.71 0 0 0 .14.71 4.9 4.9 0 0 0 .54.69l-.08.38v.48h.21l-.1-.14v-.56l.29.74v.14h-.73z"/><g class="cls-27"><path class="cls-3" d="M81.81 47.48l.17-.21A10.27 10.27 0 0 1 83.13 46c.45-.38-.66.19-.66.19a1.18 1.18 0 0 0 .76-.87c.2-.72-.71.38-.71.38s-.82.86-.71.22a7 7 0 0 1 .72-1.69l-.72.66-.3 1.6s.11-.26-.23-.62a1.88 1.88 0 0 0-.79-.48l-.19-.5.42 1 .22 1.26.08.38"/></g><g class="cls-27"><path class="cls-3" d="M82.42 45.65l.17-.21a10.27 10.27 0 0 1 1.15-1.3c.45-.38-.66.19-.66.19a1.2 1.2 0 0 0 .77-.87c.19-.71-.72.38-.72.38s-.82.86-.71.22a7 7 0 0 1 .72-1.69l-.72.66-.3 1.6s.11-.26-.23-.62a1.8 1.8 0 0 0-.79-.47l-.19-.54.42 1 .22 1.26.08.38"/></g><path class="cls-3" d="M82.38 46l.1-.13a7.59 7.59 0 0 1 .7-.79c.28-.23-.4.11-.4.11a.72.72 0 0 0 .47-.52c.11-.44-.44.22-.44.22s-.5.53-.43.14a4 4 0 0 1 .44-1l-.44.4-.19 1s.07-.16-.14-.38a1.08 1.08 0 0 0-.48-.29l-.11-.31.25.6.14.77v.23"/><path class="cls-3" d="M81.52 46.42a.91.91 0 0 1 0-.29c0-.23.26-.74 0-.87s-.39-.93-.39-.93l.07-.33a4.71 4.71 0 0 0 .14.71 5.18 5.18 0 0 0 .55.7l-.08.37v.48h.22l-.11-.14.06-.56.28.74v.14h-.72z"/><g class="cls-27"><path class="cls-3" d="M83.65 48.11l.17-.22A10.91 10.91 0 0 1 85 46.6c.45-.38-.66.18-.66.18a1.2 1.2 0 0 0 .77-.86c.19-.72-.71.37-.71.37s-.83.87-.72.23a7 7 0 0 1 .72-1.69l-.72.66-.3 1.59s.11-.25-.23-.61a1.82 1.82 0 0 0-.79-.48l-.18-.5.41 1 .23 1.25.07.39"/></g><g class="cls-27"><path class="cls-3" d="M84.27 46.28l.16-.22a10.91 10.91 0 0 1 1.15-1.29c.45-.38-.66.19-.66.19a1.21 1.21 0 0 0 .77-.87c.19-.72-.71.38-.71.38s-.82.86-.71.22A7 7 0 0 1 85 43l-.72.66-.28 1.6s.11-.26-.22-.62a1.88 1.88 0 0 0-.79-.48l-.19-.5.41 1 .23 1.26.07.38"/></g><path class="cls-3" d="M84.22 46.64l.1-.13a6.69 6.69 0 0 1 .7-.79c.28-.23-.4.11-.4.11a.73.73 0 0 0 .47-.53c.12-.43-.44.23-.44.23s-.5.53-.43.14a4.41 4.41 0 0 1 .44-1l-.44.4L84 46s.06-.15-.14-.37a1.14 1.14 0 0 0-.49-.29L83.3 45l.25.6.14.76v.24"/><path class="cls-3" d="M83.36 47.05a1.82 1.82 0 0 1 0-.29c0-.23.26-.74 0-.88S83 45 83 45l.08-.32a4.71 4.71 0 0 0 .14.71 5.66 5.66 0 0 0 .55.69l-.08.38v.48h.22l-.11-.14.06-.56.29.74v.14h-.73z"/><g class="cls-27"><path class="cls-3" d="M81.34 49.09l.17-.21a11 11 0 0 1 1.14-1.3c.46-.38-.65.19-.65.19a1.18 1.18 0 0 0 .76-.87c.2-.71-.71.38-.71.38s-.82.87-.71.23a7.19 7.19 0 0 1 .72-1.7l-.72.66-.3 1.6s.11-.26-.23-.62A1.8 1.8 0 0 0 80 47l-.19-.51.41 1 .23 1.26.08.38"/></g><g class="cls-27"><path class="cls-3" d="M82 47.26l.17-.21a11 11 0 0 1 1.15-1.3c.45-.37-.66.19-.66.19a1.18 1.18 0 0 0 .76-.87c.2-.71-.71.38-.71.38s-.82.87-.71.23a7.19 7.19 0 0 1 .72-1.7l-.72.67-.3 1.59s.11-.26-.23-.62a1.8 1.8 0 0 0-.79-.47l-.19-.5.42 1 .22 1.26.08.38"/></g><path class="cls-3" d="M81.91 47.62a1 1 0 0 1 .1-.13 6.59 6.59 0 0 1 .7-.79c.27-.23-.4.12-.4.12a.73.73 0 0 0 .46-.53c.12-.44-.43.23-.43.23s-.5.53-.43.14a4.24 4.24 0 0 1 .43-1l-.43.41-.19 1s.07-.16-.14-.38a1.08 1.08 0 0 0-.48-.29L81 46l.25.59.14.77v.23"/><path class="cls-3" d="M81.05 48a.87.87 0 0 1 0-.29c0-.23.26-.73 0-.87s-.39-.92-.39-.92l.08-.33a4.71 4.71 0 0 0 .14.71 5.27 5.27 0 0 0 .54.7l-.08.37v.48h.21l-.1-.13v-.56l.29.73V48h-.72z"/><g class="cls-27"><path class="cls-3" d="M86.82 46.08l.17-.21a10.27 10.27 0 0 1 1.15-1.3c.45-.38-.66.19-.66.19a1.19 1.19 0 0 0 .77-.87c.19-.71-.71.38-.71.38s-.83.86-.72.22a7.37 7.37 0 0 1 .73-1.69l-.73.66-.3 1.6s.11-.26-.22-.62a1.8 1.8 0 0 0-.8-.47l-.18-.51.41 1L86 45.7l.07.38"/></g><g class="cls-27"><path class="cls-3" d="M87.44 44.25l.16-.25a12 12 0 0 1 1.15-1.3c.45-.38-.66.19-.66.19a1.19 1.19 0 0 0 .77-.87c.19-.71-.71.38-.71.38s-.82.87-.71.23a7.19 7.19 0 0 1 .72-1.7l-.72.66-.31 1.6s.12-.26-.22-.62a1.8 1.8 0 0 0-.79-.47l-.19-.51.41 1 .23 1.26.07.38"/></g><path class="cls-3" d="M87.39 44.61l.1-.13a7.59 7.59 0 0 1 .7-.79c.28-.23-.4.12-.4.12a.75.75 0 0 0 .47-.53c.12-.44-.44.23-.44.23s-.5.52-.43.13a4.41 4.41 0 0 1 .44-1l-.44.41-.18 1s.06-.16-.14-.38a1.13 1.13 0 0 0-.48-.29l-.12-.3.25.59.14.77v.23"/><path class="cls-3" d="M86.53 45a1.73 1.73 0 0 1 0-.29c0-.23.26-.74 0-.87s-.39-.93-.39-.93l.09-.32a5.91 5.91 0 0 0 .13.71 5.18 5.18 0 0 0 .55.7l-.08.37v.48h.22l-.11-.13.06-.57.29.74V45h-.73z"/><g class="cls-27"><path class="cls-3" d="M87.81 43.41l-.14-.19a11 11 0 0 0-1-1.14c-.4-.33.58.17.58.17a1 1 0 0 1-.68-.76c-.16-.63.63.33.63.33s.72.76.62.2a6.06 6.06 0 0 0-.63-1.49l.63.58.27 1.4s-.1-.22.2-.54a1.58 1.58 0 0 1 .69-.41l.17-.45-.37.86-.2 1.11-.06.33"/></g><path class="cls-3" d="M88.23 42.39l-.09-.11a6 6 0 0 0-.62-.7c-.24-.2.35.1.35.1a.63.63 0 0 1-.4-.46c-.11-.38.38.2.38.2s.44.46.38.12a3.9 3.9 0 0 0-.39-.91l.39.36.16.85s-.06-.14.12-.33a1 1 0 0 1 .42-.25L89 41l-.22.52-.12.68v.2M89.66 43.08l-.09-.08a4.49 4.49 0 0 0-.61-.69c-.24-.2.35.1.35.1a.63.63 0 0 1-.41-.47c-.1-.38.38.21.38.21s.44.46.38.12a3.81 3.81 0 0 0-.38-.91l.38.35.16.86s-.06-.14.13-.33a.93.93 0 0 1 .42-.26l.1-.27-.22.53-.12.67v.2"/><path class="cls-3" d="M88.07 42.48a1.34 1.34 0 0 0 0-.25c0-.21-.23-.65 0-.77s.34-.81.34-.81l-.07-.28a4.22 4.22 0 0 1-.12.62 4.31 4.31 0 0 1-.48.61l.07.33v.42h-.19l.09-.12v-.49l-.26.65v.12h.64zM11 42.47a7.4 7.4 0 0 0 .5-3.2c-.28-1.12-.22 3.81-.22 3.81l.55.72v-1.11l.26 1.11.58.22.46.76L12 40.21l1.7 5.69 1.35-.13-.41-4.29 1.12 5.64"/><g class="cls-27"><path class="cls-3" d="M26.93 44s.07-.1.19-.24a11.77 11.77 0 0 1 1.27-1.44c.51-.42-.73.21-.73.21a1.34 1.34 0 0 0 .86-1c.21-.79-.8.42-.8.42s-.91 1-.79.25a7.79 7.79 0 0 1 .8-1.88l-.8.74-.33 1.77s.12-.29-.26-.69a1.94 1.94 0 0 0-.88-.52l-.21-.56.46 1.08.29 1.46.08.43"/></g><path class="cls-3" d="M28.79 42.78l.12-.15a7.22 7.22 0 0 1 .78-.88c.3-.25-.45.13-.45.13a.8.8 0 0 0 .52-.59c.13-.48-.48.26-.48.26s-.56.59-.49.15a5.15 5.15 0 0 1 .49-1.15l-.49.45-.2 1.08s.07-.17-.16-.42a1.27 1.27 0 0 0-.53-.32l-.13-.34.28.66.15.86.06.26M31.4 43a1.08 1.08 0 0 1 0-.32c0-.25.29-.82 0-1s-.43-1-.43-1l.09-.35a4.57 4.57 0 0 0 .15.78 5.18 5.18 0 0 0 .61.78l-.09.41v.54h.24l-.12-.16.06-.62.32.82V43h-.8zM24.18 42.05l.1-.13a6.8 6.8 0 0 1 .7-.8c.28-.23-.4.12-.4.12a.73.73 0 0 0 .47-.53c.12-.44-.43.23-.43.23s-.51.53-.44.14a4.41 4.41 0 0 1 .44-1l-.44.4-.18 1s.06-.15-.14-.37a1.13 1.13 0 0 0-.48-.29l-.12-.31.25.6.14.76.05.24"/><g class="cls-27"><path class="cls-3" d="M20 42.39l.17-.22a11 11 0 0 1 1.15-1.3c.45-.37-.66.19-.66.19a1.2 1.2 0 0 0 .77-.86c.19-.72-.71.37-.71.37s-.83.87-.72.23a7.19 7.19 0 0 1 .72-1.7l-.72.67-.3 1.59s.11-.26-.23-.62a1.75 1.75 0 0 0-.79-.47l-.18-.5.41 1 .18 1.23.07.39"/></g><path class="cls-3" d="M16.81 43.48a1.82 1.82 0 0 1 0-.29c0-.23.26-.74 0-.88s-.39-.92-.39-.92l.08-.32a5.91 5.91 0 0 0 .13.71 5.66 5.66 0 0 0 .55.69l-.08.38v.48h.21l-.1-.14.05-.56.29.74v.14h-.73z"/><g class="cls-27"><path class="cls-3" d="M14.49 43.46l.17-.22A10.91 10.91 0 0 1 15.81 42c.45-.38-.66.19-.66.19a1.21 1.21 0 0 0 .76-.87c.2-.72-.71.38-.71.38s-.82.86-.71.22a7 7 0 0 1 .72-1.69l-.72.66-.3 1.6s.11-.26-.23-.62a1.88 1.88 0 0 0-.79-.48l-.19-.5.42 1 .22 1.26.08.38"/></g><path class="cls-3" d="M11.39 42a7.39 7.39 0 0 0 .51-3.2c-.28-1.12-.22 3.81-.22 3.81l.55.72v-1.09l.26 1.11.58.21.46.77-1.07-4.57 1.7 5.68 1.35-.12L15.1 41l1.12 5.63"/><g class="cls-27"><path class="cls-3" d="M55 35.87s0 .21-.39-.33a1.5 1.5 0 0 0-1.4-.54c-.47 0-.16-.48-.16-.48h3.79a3.69 3.69 0 0 0 1.23-.2c.39-.13.53 0 .51 0a14.7 14.7 0 0 1-2.17 1.24 7 7 0 0 0-1.21.5"/></g><path class="cls-6" d="M51 58.91c-12.68 0-24.64-2.92-33.66-8.21C8 45.22 2.88 37.84 2.88 29.9S8 14.59 17.34 9.11c9-5.29 21-8.2 33.66-8.2s24.64 2.91 33.66 8.2C94 14.59 99.12 22 99.12 29.9S94 45.22 84.66 50.7C75.64 56 63.69 58.91 51 58.91zm0-57.3c-12.56 0-24.39 2.88-33.3 8.11C8.59 15.06 3.58 22.23 3.58 29.9s5 14.85 14.12 20.19c8.91 5.23 20.74 8.11 33.3 8.11s24.39-2.88 33.3-8.11c9.11-5.34 14.12-12.51 14.12-20.19s-5-14.84-14.12-20.18C75.39 4.49 63.56 1.61 51 1.61z"/><path class="cls-3" d="M84.66 37a14.26 14.26 0 0 1-.19 1.69 5.77 5.77 0 0 0 .28 1.94h7.56a1 1 0 0 0 0-.23 5 5 0 0 0 .93-.46 5.27 5.27 0 0 0-1.12-.29 4.33 4.33 0 0 1-1.65-1.08 3.34 3.34 0 0 0-2-.77 5.67 5.67 0 0 1-1.13-.38c-.44-.18-1-1.28-1.32-1.92a1.72 1.72 0 0 0-1.59-.87 1 1 0 0 0-.83.49.68.68 0 0 1-.27.35c-.2.11-.37.58-.37.58a.79.79 0 0 1 .64-.06A3.44 3.44 0 0 1 84.66 37z"/><g class="cls-7"><path class="cls-8" d="M83.49 35.44h.25s-.14.25-.07.26.44.11.32.14-.25.12-.25.17v.1a.57.57 0 0 0-.47-.06l-.24.09s.17-.37.21-.42v-.05z"/></g><path class="cls-6" d="M84.61 35.5a.2.2 0 0 1-.24-.15.19.19 0 0 1 .15-.23.2.2 0 0 1 .24.14.21.21 0 0 1-.15.24zm-.07-.31a.11.11 0 0 0-.09.14.11.11 0 0 0 .14.09.12.12 0 0 0 .09-.14.13.13 0 0 0-.14-.09z"/><path class="cls-9" d="M85.75 35.1l.34.44a1.78 1.78 0 0 1-.23-.1 2.22 2.22 0 0 0-.83-.18c-.19.05.07.15.14.22a7.54 7.54 0 0 1 .34 1s-.22.09-.28.18a1.69 1.69 0 0 0-.18.43c0 .12-.39.16-.39.16a.81.81 0 0 0 0-.18 2.52 2.52 0 0 0-.51-.63c-.09-.09-.41-.35-.41-.35V36a.2.2 0 0 1 .13-.12l.12-.05-.07-.07h-.25v-.07l.08-.19h-.18a1.58 1.58 0 0 1 .21-.42 1.41 1.41 0 0 1 .46-.3 1.58 1.58 0 0 1 .8 0 2.76 2.76 0 0 1 .71.32z"/><g class="cls-7"><path class="cls-11" d="M85.58 35.34s.5.92.62 1.16.68 1.07 1 1.17a4.61 4.61 0 0 0 1.17.32c.2-.05.19-.15.19-.15a5.05 5.05 0 0 1-1.13-.38 4 4 0 0 1-.67-.71l-.27-.51-.38-.7z"/></g><path d="M88.8 40.2V40.04a8.1 8.1 0 0 0-.12-1.2c0-.08-.14-.34-.07-.3A5.14 5.14 0 0 1 89 39.9a.94.94 0 0 1-.2.3z" fill="#9c6042"/><ellipse class="cls-14" cx="84.5" cy="35.4" rx=".25" ry=".18" transform="rotate(-12.93 84.52 35.409)"/><path class="cls-14" d="M83.68 35.72a.08.08 0 0 1-.06-.1v-.13a.08.08 0 0 1-.1 0 .08.08 0 0 1 .06-.1l.31-.07-.11.39a.06.06 0 0 1-.1.01z"/><g class="cls-7"><path class="cls-16" d="M83.12 36a1 1 0 0 1 .34-.11h.29c.06 0 0 .09 0 .09v.1l-.17-.08h-.55l.12-.25z"/></g><path d="M88.29 40.67l.76-.06.44.06h2v-.28l-.24-.56-.39-.34-.37-.24-.6-.26-.41-.29-.13-.23-.31-.19-.29-.12-.23-.18-.25-.15-.22-.07-.67-.26-.18-.12-.68-.38a1.68 1.68 0 0 0 .26 1.53c.42.62 1.16 1.66 1.51 2.14z" fill="#dadada"/><path class="cls-10" d="M89 38.22h.09a1 1 0 0 1 .44.42c.07.19 1 .55 1 .55s.8.45.94.86a4.05 4.05 0 0 1 .11.6h.74v-.23l.35-.15.58-.31a4 4 0 0 0-.67-.17 3.75 3.75 0 0 1-.95-.33 6.25 6.25 0 0 1-1-.75 4.28 4.28 0 0 0-1.08-.68 6.63 6.63 0 0 0-1-.11c-.1.08.45.3.45.3z"/><path class="cls-9" d="M89.55 40.67h.16l-.31-.41c-.11-.14.08.35.08.35zM90.05 40.67h.26a2 2 0 0 0-.36-.9c-.24-.19-1.28-1.38-1.28-1.38s1 1.53 1.12 1.78a5 5 0 0 0 .26.5zM90.29 39.79a2.8 2.8 0 0 1 .33.88h.11v-.2a1.87 1.87 0 0 0-.53-1.12 13.71 13.71 0 0 0-1.12-.84 14.19 14.19 0 0 1 1.21 1.28z"/><path class="cls-9" d="M90.89 40.67h.16a2.23 2.23 0 0 0-.39-.41.77.77 0 0 0 .19.36zM91.16 40.67h.12v-.13a2.72 2.72 0 0 0-.44-.77c-.25-.25-.33-.27-.33-.27a5.42 5.42 0 0 1 .61.88c-.01.06.01.17.04.29z"/><g class="cls-27"><path class="cls-3" d="M87.28 41.81l-.15-.19a9.24 9.24 0 0 0-1-1.14c-.39-.33.58.17.58.17a1.07 1.07 0 0 1-.67-.76c-.17-.63.62.33.62.33s.72.76.63.2a6.17 6.17 0 0 0-.64-1.49l.64.58.26 1.4s-.1-.23.2-.54a1.6 1.6 0 0 1 .69-.42l.17-.44-.36.86-.2 1.1-.07.34"/></g><path class="cls-3" d="M87.32 42.12l-.09-.12a6 6 0 0 0-.62-.7c-.24-.2.35.1.35.1a.63.63 0 0 1-.4-.46c-.11-.38.38.2.38.2s.44.47.38.12a3.76 3.76 0 0 0-.39-.9l.39.35.16.86s-.06-.14.12-.34A1 1 0 0 1 88 41l.1-.27-.22.52-.12.68v.2M84.51 41.94l-.09-.11a7 7 0 0 0-.61-.7c-.25-.2.35.11.35.11a.63.63 0 0 1-.41-.47c-.1-.38.38.2.38.2s.44.47.38.12a3.76 3.76 0 0 0-.39-.9l.39.35.16.86s-.06-.14.12-.33a.94.94 0 0 1 .43-.26l.1-.27-.23.53-.12.67v.2"/><path class="cls-3" d="M85.26 42.3a.67.67 0 0 0 0-.25c0-.2-.23-.65 0-.77s.34-.81.34-.81l-.07-.28a4.22 4.22 0 0 1-.12.62 4.31 4.31 0 0 1-.48.61l.07.33v.42h-.18l.09-.12-.05-.5-.25.65v.12h.63z"/><g class="cls-27"><path class="cls-3" d="M84.89 41.69l-.15-.19a10 10 0 0 0-1-1.14c-.39-.33.58.17.58.17a1 1 0 0 1-.67-.76c-.17-.63.62.33.62.33s.72.76.63.2a6.49 6.49 0 0 0-.63-1.49l.63.58.26 1.4s-.1-.22.2-.54a1.52 1.52 0 0 1 .69-.41l.17-.45-.36.86-.2 1.1-.07.34"/></g><path class="cls-3" d="M91.31 41.22l-.08-.1a4.44 4.44 0 0 0-.54-.6c-.21-.18.31.08.31.08a.55.55 0 0 1-.36-.4c-.09-.33.34.18.34.18s.38.4.33.1a3.63 3.63 0 0 0-.34-.79l.34.31.14.74s0-.12.1-.28a.83.83 0 0 1 .37-.22L92 40l-.19.46-.11.58v.18"/><path class="cls-3" d="M92 41.07l-.08-.1a5.05 5.05 0 0 0-.53-.6c-.21-.18.3.09.3.09a.55.55 0 0 1-.35-.41c-.09-.33.33.18.33.18s.38.4.33.1a3.24 3.24 0 0 0-.34-.78l.34.3.14.75s0-.12.11-.29a.77.77 0 0 1 .36-.22l.09-.24-.19.46-.11.58v.18"/><path class="cls-6" d="M28 48.43l.31-.18.39.15 1.05-1.69a.87.87 0 0 0-.22-.11 1.21 1.21 0 0 0-1 0 1.31 1.31 0 0 0-.7.76l-.73.07q.86-1.82 3.33-.89l.18.07-1.22 2 2 .74.55-.88a3 3 0 0 1 1.26-1.17 1.87 1.87 0 0 1 1.5-.06 1.64 1.64 0 0 1 .49.27l-.45.37a1.07 1.07 0 0 0-.49-.5.69.69 0 0 0-.65.08 3.09 3.09 0 0 0-.71.84l-1.4 2.19a6.12 6.12 0 0 0-.55.95.33.33 0 0 0 .23.46 4.55 4.55 0 0 0 .46.14l-.11.18-1.72-.32 1.42-2.27-2-.74-.22.35a2.92 2.92 0 0 1-1.35 1.17 2.17 2.17 0 0 1-1.62 0 1.55 1.55 0 0 1-.86-.74l.62-.29a1 1 0 0 0 .69.86c.57.21 1.11-.1 1.63-.94l.44-.7z"/><path class="cls-6" d="M35 52.22l-.15.29a2 2 0 0 1-1.5.41.43.43 0 0 1-.33-.62 3.17 3.17 0 0 1 .22-.53l.55-1.08a4.73 4.73 0 0 0 .27-.62c0-.18 0-.3-.14-.34a2.51 2.51 0 0 0-.56 0l.1-.19 1.75-.08-.54 1-.77 1.53a2 2 0 0 0-.21.47c0 .14 0 .23.13.26s.64-.14 1.18-.5zm-.31-3.55l.34-.38 1.09-.35-.45.52zM35.49 53.47l.44-1 .65-1.59a2.83 2.83 0 0 0 .17-.49c0-.14 0-.22-.16-.24s-.59.14-1.13.54l.12-.3a2 2 0 0 1 1.42-.51.45.45 0 0 1 .39.6c0 .11-.09.29-.19.55l-.32.79a5.66 5.66 0 0 1 1.2-1.2 1.47 1.47 0 0 1 1-.34.51.51 0 0 1 .34.25.7.7 0 0 1 .07.48 3 3 0 0 1-.15.45l-.32.78a4.71 4.71 0 0 1 1.14-1.2 1.42 1.42 0 0 1 1-.35.55.55 0 0 1 .47.74 2.42 2.42 0 0 1-.15.46l-.63 1.56a3.25 3.25 0 0 0-.18.49.19.19 0 0 0 .16.25q.33.06 1.14-.54l-.12.3a2.09 2.09 0 0 1-1.47.53.45.45 0 0 1-.39-.6 3 3 0 0 1 .19-.55l.82-1.55a1.47 1.47 0 0 0 .11-.31c0-.19 0-.29-.15-.32q-.58-.1-2.07 1.68L38.42 54l-.66-.08 1-2.55a1.51 1.51 0 0 0 .14-.37c0-.18 0-.29-.15-.32s-.45.12-.85.45a9.26 9.26 0 0 0-1.23 1.26l-.47 1.13zM42.84 54.76l.34-1 .47-1.65a4.4 4.4 0 0 0 .12-.5c0-.14-.05-.22-.18-.23s-.58.2-1.08.66l.09-.3A2 2 0 0 1 44 51c.33 0 .47.21.45.55a4 4 0 0 1-.13.57l-.24.82h.05a5.18 5.18 0 0 1 1.07-1.33 1.39 1.39 0 0 1 1-.44.46.46 0 0 1 .36.21.61.61 0 0 1 .12.46 2 2 0 0 1-.1.47l-.23.81a5 5 0 0 1 1-1.31 1.44 1.44 0 0 1 1-.46c.4 0 .58.26.55.69a1.92 1.92 0 0 1-.1.46l-.46 1.63a2.27 2.27 0 0 0-.12.5.18.18 0 0 0 .18.23c.22 0 .58-.2 1.07-.66l-.09.31a2 2 0 0 1-1.4.69.44.44 0 0 1-.45-.55 3 3 0 0 1 .13-.57l.47-1.63a1.8 1.8 0 0 0 .08-.32c0-.19-.05-.29-.19-.3-.39 0-1 .6-1.88 1.89L45.81 55h-.66l.75-2.64A1.72 1.72 0 0 0 46 52c0-.2 0-.3-.18-.31s-.43.17-.8.54a9.23 9.23 0 0 0-1.12 1.37l-.35 1.18zM53 54.28l-.05.26a3.46 3.46 0 0 1-1.85.74 1 1 0 0 1-.78-.35 1.29 1.29 0 0 1-.3-.88 2.72 2.72 0 0 1 .76-1.8 2.13 2.13 0 0 1 1.57-.83.68.68 0 0 1 .49.21.71.71 0 0 1 .18.54 1.35 1.35 0 0 1-.67 1.11 2.66 2.66 0 0 1-1.6.45v.16c0 .66.24 1 .72 1a2.91 2.91 0 0 0 1.53-.61zm-2.24-.75a2.3 2.3 0 0 0 1.19-.38 1 1 0 0 0 .44-.86c0-.35-.12-.52-.37-.52a1 1 0 0 0-.8.53 2.52 2.52 0 0 0-.5 1.23zM55.88 54l-.05.32a2.13 2.13 0 0 1-1.35.87c-.32 0-.49-.15-.5-.5a2.7 2.7 0 0 1 .05-.58l.38-2.36a3.65 3.65 0 0 1 .85-2 2.23 2.23 0 0 1 1.63-.74 2 2 0 0 1 .61.05l-.45.5a1.59 1.59 0 0 0-.68-.15.9.9 0 0 0-.8.42 4.21 4.21 0 0 0-.44 1.51l-.43 2.71a4.37 4.37 0 0 0-.06.51c0 .15.07.21.21.21s.44-.22.86-.64z"/><path class="cls-6" d="M56.65 55.07l.17-1.07.18-1.68a2.23 2.23 0 0 0 0-.44c0-.19-.09-.29-.23-.28s-.56.31-1 .86v-.31a2.07 2.07 0 0 1 1.29-1c.32 0 .5.15.53.52a3.57 3.57 0 0 1 0 .56l-.1.83a5.09 5.09 0 0 1 .84-1.46 1.59 1.59 0 0 1 1-.63.87.87 0 0 1 .43.07l-.4.65a.7.7 0 0 0-.35-.1c-.44 0-1 .73-1.6 2.09L57.37 55zM63.27 53.33v.26a3.44 3.44 0 0 1-1.72 1 1 1 0 0 1-.83-.23 1.25 1.25 0 0 1-.42-.82 2.68 2.68 0 0 1 .48-1.89 2.11 2.11 0 0 1 1.44-1.06.61.61 0 0 1 .51.14.74.74 0 0 1 .26.49 1.35 1.35 0 0 1-.51 1.21 2.72 2.72 0 0 1-1.51.69v.15c.09.65.38.95.86.88a2.92 2.92 0 0 0 1.44-.82zm-2.33-.41a2.23 2.23 0 0 0 1.13-.56 1 1 0 0 0 .3-.91c0-.34-.2-.5-.45-.46s-.5.25-.7.65a2.53 2.53 0 0 0-.28 1.28zM66.42 52.62v.32a2 2 0 0 1-1.16 1c-.32.06-.51-.08-.58-.42a3.67 3.67 0 0 1 0-.57v-1.17a4.81 4.81 0 0 0 0-.68q-.06-.27-.27-.24a2.16 2.16 0 0 0-.52.22v-.21l1.48-.87-.05 1.12v1.71a4.46 4.46 0 0 0 0 .51q0 .22.24.18c.23-.02.51-.33.86-.9zm-1.85-3l.14-.5.82-.79-.17.67zM69.72 51.9v.27a3.57 3.57 0 0 1-1.6 1.17 1 1 0 0 1-.85-.13 1.23 1.23 0 0 1-.5-.79 2.64 2.64 0 0 1 .29-1.94 2.18 2.18 0 0 1 1.4-1.2 2 2 0 0 1 .81 0v.9l-.2.05v-.05a.9.9 0 0 0 0-.23c-.07-.31-.31-.41-.73-.31a1.16 1.16 0 0 0-.81.86 3 3 0 0 0 0 1.66c.15.59.45.84.89.73a2.82 2.82 0 0 0 1.3-.99zM70.89 52.59l-.09-1.08-.28-2.38A3.65 3.65 0 0 1 70.8 47a2.24 2.24 0 0 1 1.36-1.16 3 3 0 0 1 .61-.13l-.3.61a1.7 1.7 0 0 0-.7 0 .92.92 0 0 0-.65.63 4.4 4.4 0 0 0 0 1.57l.22 1.87a5.06 5.06 0 0 1 .48-1.63 1.53 1.53 0 0 1 .78-.82c.36-.11.6 0 .73.42a3.61 3.61 0 0 1 .1.48l.2 1.69a4.6 4.6 0 0 0 .08.51.19.19 0 0 0 .26.14c.21-.07.46-.42.73-1v.32a2.08 2.08 0 0 1-1 1.18.45.45 0 0 1-.63-.34 3.87 3.87 0 0 1-.1-.57l-.2-1.69a1.73 1.73 0 0 0-.07-.32c0-.18-.15-.25-.28-.2-.41.13-.77 1-1.08 2.51l.15 1.23zM44.49 48.05v-.31a5.25 5.25 0 0 0 0-1.42c-.09-.36-.22-.54-.4-.55s-.41.14-.65.49l.1-.33q.45-.51.81-.48c.52 0 .73.72.62 2v.13l.2-.21a3 3 0 0 0 1-1.38.57.57 0 0 0-.12-.39h.49a.55.55 0 0 1 .08.31.79.79 0 0 1-.19.41 8.17 8.17 0 0 1-.74.78l-.89.88zM47.59 48.25a.65.65 0 0 1-.49-.25.87.87 0 0 1-.17-.58 1.81 1.81 0 0 1 .54-1.19 1.42 1.42 0 0 1 1.1-.51.66.66 0 0 1 .51.25.81.81 0 0 1 .18.58 1.77 1.77 0 0 1-.54 1.21 1.49 1.49 0 0 1-1.13.49zm.27-.19c.22 0 .42-.13.61-.41a1.89 1.89 0 0 0 .29-1c0-.5-.12-.76-.43-.77s-.41.13-.6.42a2.06 2.06 0 0 0-.3 1c-.02.5.12.75.43.76zM49.85 48.3l.16-.7.21-1.12a3.35 3.35 0 0 0 .05-.34.12.12 0 0 0-.14-.14c-.14 0-.37.17-.67.5v-.21a1.32 1.32 0 0 1 .89-.54c.22 0 .33.11.33.34a3 3 0 0 1 0 .38l-.1.56a3.48 3.48 0 0 1 .62-.94.94.94 0 0 1 .63-.36.34.34 0 0 1 .26.12.5.5 0 0 1 .11.3 2 2 0 0 1 0 .31l-.1.56a3.42 3.42 0 0 1 .58-.94.94.94 0 0 1 .63-.36c.27 0 .4.13.4.42a1.24 1.24 0 0 1 0 .31l-.21 1.11a3.35 3.35 0 0 0 0 .34c0 .1 0 .15.14.14s.37-.17.67-.5v.21a1.3 1.3 0 0 1-.89.54A.3.3 0 0 1 53 48a3 3 0 0 1 .05-.38l.21-1.11a1.22 1.22 0 0 0 0-.22c0-.12-.05-.19-.14-.19-.26 0-.64.47-1.13 1.38l-.16.82h-.45l.34-1.8a1.22 1.22 0 0 0 0-.22c0-.13 0-.19-.14-.19s-.28.14-.5.4a6.29 6.29 0 0 0-.64 1l-.15.81zM31.05 12.63l-.57-2.07A7.44 7.44 0 0 0 29.26 8a1.29 1.29 0 0 0-1.43-.57 1.57 1.57 0 0 0-.94 1.11h-.18c.35-.89.78-1.42 1.3-1.58a1.66 1.66 0 0 1 1.82.67 8.36 8.36 0 0 1 1.39 3l.14.42.64-4.21.3-.2c.15.34.3.69.47 1l.2.41c.26.54.6 1.31 1 2.31l.3-1.67a7.64 7.64 0 0 0 .2-2.38q-.06-.18-.45-.06h-.12v-.23l1.44-.44v.23l-.29.19-1 5.65-.32.19-.12-.42a17.57 17.57 0 0 0-1.45-3.47l-.75 4.51zM39.5 9.42v.29a3.55 3.55 0 0 1-1.75 1.16 1.05 1.05 0 0 1-.88-.18 1.32 1.32 0 0 1-.49-.84 2.81 2.81 0 0 1 .38-2 2.22 2.22 0 0 1 1.44-1.23.69.69 0 0 1 .55.11.81.81 0 0 1 .31.51 1.43 1.43 0 0 1-.46 1.3 2.81 2.81 0 0 1-1.55.82v.16c.14.68.46 1 1 .87a3 3 0 0 0 1.45-.97zM37 9.14a2.31 2.31 0 0 0 1.15-.65 1.08 1.08 0 0 0 .26-1c-.07-.36-.24-.51-.5-.46s-.51.3-.7.73A2.61 2.61 0 0 0 37 9.14zM42.74 8.84v.34a2.15 2.15 0 0 1-1.27 1.05.47.47 0 0 1-.59-.46 3.66 3.66 0 0 1 0-.61l.06-1.28a4.67 4.67 0 0 0 0-.71c0-.2-.12-.29-.27-.26a2.12 2.12 0 0 0-.56.2v-.22l1.65-.83-.09 1.18L41.55 9a4.41 4.41 0 0 0 0 .54.2.2 0 0 0 .25.2c.2.01.54-.31.94-.9zM40.9 5.55l.17-.55.9-.8-.21.7zM43.37 9.87l.17-1.12.22-1.75v-.55c0-.09-.09-.21-.23-.2s-.57.31-1 .87v-.33a2.1 2.1 0 0 1 1.34-1c.35 0 .53.14.56.5a3.73 3.73 0 0 1 0 .61l-.11.9a5.67 5.67 0 0 1 .88-1.56 1.51 1.51 0 0 1 1-.63.52.52 0 0 1 .42.16.66.66 0 0 1 .2.46 3 3 0 0 1 0 .5l-.1.88a5 5 0 0 1 .82-1.54 1.45 1.45 0 0 1 1-.64c.42 0 .65.17.68.62a2.89 2.89 0 0 1 0 .5L49 8.31a2.62 2.62 0 0 0 0 .55c0 .15.08.22.22.21s.58-.31 1-.87v.33a2.18 2.18 0 0 1-1.34 1 .48.48 0 0 1-.57-.5v-.62l.22-1.77a1.59 1.59 0 0 0 0-.35c0-.2-.1-.29-.25-.28-.41 0-1 .8-1.63 2.29l-.15 1.28-.7.1.34-2.89a1.57 1.57 0 0 0 0-.35c0-.2-.09-.29-.24-.28s-.43.24-.74.69a9.1 9.1 0 0 0-.9 1.63l-.16 1.29zM53.35 7.44h-.06a4.92 4.92 0 0 1-1 1.46 1.6 1.6 0 0 1-1.08.56c-.5 0-.75-.32-.75-1a3.22 3.22 0 0 1 .86-2 2.63 2.63 0 0 1 2.11-1h1.08l-.27 1.06-.37 1.77c-.06.28-.08.46-.09.54s.07.23.21.23.6-.26 1.08-.78l-.07.37a2.13 2.13 0 0 1-1.43.83q-.53 0-.51-.54a3.38 3.38 0 0 1 .09-.61zM53.66 6a2.11 2.11 0 0 0-.9-.21q-.65 0-1 .81a4.36 4.36 0 0 0-.48 1.76c0 .37.11.56.33.56s.5-.21.89-.64a7.59 7.59 0 0 0 1-1.47zM55.66 9.51L56 8.42l.46-1.72a2.34 2.34 0 0 0 .08-.46c0-.21 0-.31-.19-.32s-.64.23-1.14.74l.08-.32a2.26 2.26 0 0 1 1.5-.8c.34 0 .5.23.48.63a3.43 3.43 0 0 1-.1.57l-.23.86a5.2 5.2 0 0 1 1.11-1.4 1.65 1.65 0 0 1 1.1-.5.88.88 0 0 1 .44.14l-.52.62a.74.74 0 0 0-.35-.17c-.46 0-1.13.62-2 1.94l-.35 1.29zM62.46 8.16h-.06a4.94 4.94 0 0 1-1.16 1.33 1.59 1.59 0 0 1-1.13.43c-.5-.06-.71-.41-.63-1A3.17 3.17 0 0 1 60.57 7a2.61 2.61 0 0 1 2.22-.76c.34 0 .69.1 1.06.17l-.39 1-.58 1.71a3.7 3.7 0 0 0-.15.53.2.2 0 0 0 .19.25c.23 0 .62-.19 1.16-.65l-.08.31a2.12 2.12 0 0 1-1.51.66.47.47 0 0 1-.45-.6 3.72 3.72 0 0 1 .17-.6zm.47-1.38a2.11 2.11 0 0 0-.86-.32 1.2 1.2 0 0 0-1.14.69 4.24 4.24 0 0 0-.68 1.68c0 .38 0 .58.26.6s.52-.15 1-.53a7.08 7.08 0 0 0 1.2-1.34zM64.44 10.49l.48-1 .7-1.67a4.25 4.25 0 0 0 .19-.51c0-.15 0-.24-.16-.26s-.64.14-1.21.56l.13-.31a2.08 2.08 0 0 1 1.55-.55.47.47 0 0 1 .4.63 3.32 3.32 0 0 1-.2.58l-.32.8a5.37 5.37 0 0 1 1.29-1.25 1.62 1.62 0 0 1 1.15-.34c.38.08.53.33.44.76a3.1 3.1 0 0 1-.16.5l-.69 1.64a4.87 4.87 0 0 0-.19.52.19.19 0 0 0 .16.26c.24.05.64-.14 1.21-.56l-.13.31a2.14 2.14 0 0 1-1.55.55.47.47 0 0 1-.4-.64 3.63 3.63 0 0 1 .2-.58l.7-1.65a2.53 2.53 0 0 0 .13-.28c0-.19 0-.3-.16-.33-.44-.09-1.21.49-2.3 1.75l-.51 1.21zM72.53 11.39l-.12.25a3.66 3.66 0 0 1-2.09.25 1.08 1.08 0 0 1-.71-.57 1.31 1.31 0 0 1 0-1 2.82 2.82 0 0 1 1.26-1.62 2.21 2.21 0 0 1 1.83-.42.68.68 0 0 1 .44.35.79.79 0 0 1 0 .59 1.41 1.41 0 0 1-1 .95 2.82 2.82 0 0 1-1.75 0v.15c-.18.68 0 1.08.46 1.22a3.07 3.07 0 0 0 1.68-.15zM70.45 10a2.37 2.37 0 0 0 1.32 0 1.13 1.13 0 0 0 .68-.75c.1-.36 0-.57-.24-.64a1.06 1.06 0 0 0-.95.33 2.7 2.7 0 0 0-.81 1.06zM73.24 12.72l.62-1 .92-1.53a2.56 2.56 0 0 0 .2-.42c.07-.19 0-.31-.1-.36s-.67.05-1.3.4l.17-.28a2.2 2.2 0 0 1 1.66-.36c.32.11.42.36.29.73a3.66 3.66 0 0 1-.26.53l-.45.75h.05a5 5 0 0 1 1.44-1.05 1.61 1.61 0 0 1 1.2-.18.86.86 0 0 1 .38.26l-.66.45a.65.65 0 0 0-.3-.25c-.44-.16-1.25.28-2.44 1.31L74 12.93z"/></svg>