<svg xmlns="http://www.w3.org/2000/svg" viewBox="0 0 103 60"><defs><style>.cls-1{fill:#fff;}.cls-2{opacity:0.53;}.cls-3{fill:#1c602b;}.cls-4{opacity:0.67;}.cls-5{fill:#063;}.cls-6{opacity:0.08;}.cls-7{fill:#009fe3;}.cls-8{opacity:0.66;}.cls-9{fill:#1d1d1b;}.cls-10{fill:#7d8497;}.cls-11{opacity:0.48;}.cls-12{fill:#7c807f;}.cls-13{fill:#ae7953;}.cls-14{fill:#3f272c;}.cls-15{fill:#9a877b;}.cls-16{opacity:0.35;}.cls-17{fill:#f6f6f6;}.cls-18{fill:#9c6042;}.cls-19{fill:#d8d3d2;}.cls-20{fill:#987f6b;}.cls-21{opacity:0.65;}.cls-22{fill:#656766;}.cls-23{opacity:0.61;}.cls-24{fill:#575756;}.cls-25{fill:#3c3c3b;}.cls-26{opacity:0.49;}.cls-27{opacity:0.2;}.cls-28{opacity:0.76;}.cls-29{opacity:0.09;}.cls-30{opacity:0.21;}.cls-31{opacity:0.31;}.cls-32{opacity:0.27;}.cls-33{opacity:0.4;}</style></defs><title>colorWiH-Logo</title><path class="cls-1" d="M51.3,1.62c-12.82,0-24.89,2.94-34,8.28C8,15.35,2.89,22.67,2.89,30.5S8,45.66,17.31,51.11c9.1,5.34,21.17,8.28,34,8.28s24.9-2.94,34-8.28c9.29-5.45,14.41-12.77,14.41-20.61S94.59,15.35,85.3,9.9C76.2,4.56,64.13,1.62,51.3,1.62Z"/><g class="cls-2"><path class="cls-3" d="M37.47,40.61s8-4.28,9.14-4.39a41.37,41.37,0,0,0,7-1.92c1.51-.67,4.68-2.8,5.12-2.8s.85-.41,1.16-.69,4.37-.59,6.43-.47,5.5.54,5.78.61,5.15,2.64,5.15,2.64a11.81,11.81,0,0,0,2.62,1.34,11.28,11.28,0,0,1,2.68,0c1,.21,4.4,1.93,5,1.93A21.61,21.61,0,0,1,91.23,38c.41.21,3,1.32,3,1.25l-.94,1.46Z"/></g><g class="cls-4"><path class="cls-5" d="M50.39,35.53s-.12.58,0,.59,1.79.43,2.18,0,1.53-.38,1.53-.38l1.12,1.1,2.25-1.1,1.86-.45,2.06-.82.85,1.65S61,38.93,60.17,39a3.31,3.31,0,0,0-1.76.91L56.6,40l-3.29.49H48.42l-9.36.1,4.82-3Z"/></g><g class="cls-6"><path class="cls-7" d="M51,59.08c-12.62,0-24.51-2.9-33.48-8.16C8.32,45.51,3.25,38.23,3.25,30.43S8.32,15.35,17.54,9.94C26.51,4.68,38.4,1.78,51,1.78S75.53,4.68,84.5,9.94c9.22,5.41,14.29,12.68,14.29,20.49S93.72,45.51,84.5,50.92C75.53,56.18,63.64,59.08,51,59.08Z"/><path class="cls-5" d="M51,59.43c-12.69,0-24.64-2.91-33.66-8.21C8,45.75,2.89,38.36,2.89,30.43S8,15.11,17.36,9.64c9-5.3,21-8.21,33.66-8.21S75.66,4.34,84.68,9.64C94,15.11,99.14,22.49,99.14,30.43S94,45.75,84.68,51.22C75.66,56.52,63.7,59.43,51,59.43Zm0-57.3c-12.56,0-24.39,2.88-33.3,8.11C8.61,15.59,3.6,22.75,3.6,30.43s5,14.84,14.12,20.19c8.91,5.23,20.74,8.11,33.3,8.11s24.39-2.88,33.3-8.11c9.11-5.35,14.12-12.52,14.12-20.19s-5-14.84-14.12-20.19C75.41,5,63.58,2.13,51,2.13Z"/></g><g class="cls-8"><polyline class="cls-5" points="38.03 40.62 22.88 38.97 20.77 38.97 8.03 40.62 10.68 43.74 14.14 46.83 17.11 48.91 19.55 50.34 22.47 51.8 25.91 53.24 29.22 54.39 33.33 55.53 36.93 56.3 42.63 57.14 47.47 57.49 52.65 57.58 56.81 57.35 61.51 56.88 66.4 56.05 70.65 55.02 74.91 53.69 80.82 51.2 84.62 49.1 88.27 46.54 90.65 44.46 92.86 42.05 94.78 39.28"/></g><path class="cls-9" d="M51,57.76c-12.39,0-24.05-2.83-32.81-8S4.56,37.75,4.56,30.43,9.41,16.24,18.21,11.08s20.42-8,32.81-8,24,2.83,32.81,8,13.64,12,13.64,19.35S92.63,44.62,83.83,49.78,63.41,57.76,51,57.76ZM51,3.45c-25.42,0-46.1,12.1-46.1,27s20.68,27,46.1,27,46.1-12.1,46.1-27S76.44,3.45,51,3.45Z"/><path class="cls-10" d="M78.28,40.61H78l-.8-.33s.59.39.43.33A14.62,14.62,0,0,1,76.25,40c-.16-.11-.42-.33-.42-.33a5.39,5.39,0,0,1-1.27-1.38,3.23,3.23,0,0,1-.51-1.39,7.77,7.77,0,0,1,.11-3.09A18.47,18.47,0,0,0,74.78,32,3.63,3.63,0,0,0,74,30.7a.85.85,0,0,0-.7-.09s.3-.46.54-.53a.74.74,0,0,0,.37-.32,1.13,1.13,0,0,1,1-.31,1.9,1.9,0,0,1,1.5,1.33,5.16,5.16,0,0,0,.94,2.38,5.38,5.38,0,0,0,1.12.69,3.65,3.65,0,0,1,1.92,1.31,4.74,4.74,0,0,0,1.51,1.57c.37.18,1.14.5,1.12.59a5.13,5.13,0,0,1-1.11.27S82.1,38,82,38s-.12.34-.24.34-.35-.06-.35.13a1.93,1.93,0,0,1-.71,1.43,4.2,4.2,0,0,1-1.27.64Z"/><g class="cls-11"><path class="cls-12" d="M73.91,30h.29s-.22.23-.15.26.45.23.31.23-.29.07-.3.13a.62.62,0,0,0,0,.11.62.62,0,0,0-.49-.19l-.28,0s.28-.35.33-.4l0,0Z"/></g><path class="cls-9" d="M75.1,30.36a.21.21,0,0,1-.22-.21.22.22,0,0,1,.44,0A.21.21,0,0,1,75.1,30.36Zm0-.34a.13.13,0,1,0,.13.13A.13.13,0,0,0,75.1,30Z"/><path class="cls-13" d="M76.43,30.21l.26.57a1.34,1.34,0,0,1-.23-.18,2.6,2.6,0,0,0-.85-.39c-.21,0,0,.18.1.27a7.77,7.77,0,0,1,.12,1.13s-.25,0-.34.12a2,2,0,0,0-.3.42c-.07.12-.46.08-.46.08a.71.71,0,0,0,0-.19,3,3,0,0,0-.4-.82c-.07-.11-.35-.46-.35-.46l0-.11a.22.22,0,0,1,.17-.11l.13,0,0-.09-.11-.07-.08,0-.07,0v-.08L74.2,30H74a1.76,1.76,0,0,1,.33-.39,1.28,1.28,0,0,1,.56-.21,1.75,1.75,0,0,1,.86.22A3,3,0,0,1,76.43,30.21Z"/><path class="cls-9" d="M78.7,41.54a1.92,1.92,0,0,0-.21-.16l0-.08a1.52,1.52,0,0,1,.23.18Z"/><polygon class="cls-9" points="79.17 41.37 79.1 41.32 79.24 41.12 79.31 41.17 79.17 41.37"/><path class="cls-14" d="M79.13,34.37s-.51-.38-.39-.4a6.3,6.3,0,0,1,1,.35,5.22,5.22,0,0,1,1,1,7.25,7.25,0,0,0,.91,1.06,4.23,4.23,0,0,0,.94.59,3.31,3.31,0,0,1,.67.35l-.69.19-.42.08-.1.28L82,38l-.09.06-.15.28h-.25l-.08,0,0,.08-.06.4-.08.25a1,1,0,0,1-.07-.49A7.17,7.17,0,0,0,81.33,37c0-.48-.79-1.16-.79-1.16s-.93-.61-1-.84a1.07,1.07,0,0,0-.37-.56Z"/><g class="cls-11"><path class="cls-15" d="M76.18,30.43s.31,1.12.38,1.41a3.69,3.69,0,0,0,.78,1.49,4.69,4.69,0,0,0,1.17.63c.23,0,.24-.11.24-.11a5.28,5.28,0,0,1-1.12-.69,4.07,4.07,0,0,1-.54-.93c0-.09-.17-.61-.17-.61l-.23-.84Z"/></g><g class="cls-16"><path class="cls-17" d="M76.78,32.45a1.88,1.88,0,0,0-.09,1.71c.4,1,1.22,3,1.22,3a4.15,4.15,0,0,1,1.22,1.13c.26.53-.51.29-.51.29l.89.35.27.38.47.38.4.2.57-.78-.07-.49.1-.52v-.51l.09-.3-.12-.65-.34-.47-.34-.35L80,35.38,79.59,35l-.08-.28-.29-.28-.28-.2-.2-.24-.23-.23-.23-.14-.65-.44L77.47,33Z"/></g><path class="cls-18" d="M78.45,36.45s0,.13-.07.11,0-.12.07-.29A8.53,8.53,0,0,0,78.62,35c0-.09-.06-.4,0-.33a5.56,5.56,0,0,1,.11,1.55A1.11,1.11,0,0,1,78.45,36.45Z"/><path class="cls-18" d="M78.73,36.84c-.06.08-.25.38-.22.43s.19-.05.22-.13A1.44,1.44,0,0,0,78.73,36.84Z"/><path class="cls-18" d="M78.75,34.47s.72,1.9.76,2.19a3.45,3.45,0,0,1,.19,1.61c-.16.72.25-.44.25-.59s0-1.16-.16-1.41S78.75,34.47,78.75,34.47Z"/><path class="cls-18" d="M79.13,34.69a16.69,16.69,0,0,1,1,1.69,2.77,2.77,0,0,1,0,1.43c-.17.49-.06.6-.06.6a4.4,4.4,0,0,0,.25-.91,2,2,0,0,0,0-.29,2,2,0,0,0-.29-1.33A13.77,13.77,0,0,0,79.13,34.69Z"/><path class="cls-18" d="M80.6,38.35a2.65,2.65,0,0,0,0-.94.84.84,0,0,1-.12-.44s.39.51.35.71S80.6,38.35,80.6,38.35Z"/><path class="cls-18" d="M80.43,36.12a6.08,6.08,0,0,1,.44,1.09c0,.2,0,.77,0,.95s.14-.69.14-.73a2.88,2.88,0,0,0-.29-.94C80.52,36.16,80.43,36.12,80.43,36.12Z"/><path class="cls-18" d="M79.08,37.06s-.09-.57,0-.4a4.13,4.13,0,0,1,.42,1.27,1.83,1.83,0,0,1-.06.25s-.12-.48-.16-.7A1.29,1.29,0,0,0,79.08,37.06Z"/><path class="cls-14" d="M79.38,40.52l-.1.63s.25.61.36.63.4.28.34.28h-.33s.64.45.51.46a4.23,4.23,0,0,1-.73-.12l-.41.12-.21.35-.07-.45a2.39,2.39,0,0,1-.57.18c-.17,0-.09-.27-.09-.27s.57.13.7-.08a3.14,3.14,0,0,0,.29-.85c0-.06-.29.05-.29.05l-.64.71s-.36.27-.36.45a2.9,2.9,0,0,1,0,.41s-.47-.11-.47-.17-.58.27-.66.26-.07-.14-.07-.14a1.3,1.3,0,0,1-.29.08,1.28,1.28,0,0,1-.15-.12s-.34.22-.43.18.08-.27.08-.27a4.37,4.37,0,0,0,.92-.14,4.72,4.72,0,0,0,1-.63c.22-.23.81-.79.81-.79l-.32-.09.1-.58Z"/><path class="cls-19" d="M79.38,40.52a4.2,4.2,0,0,0,1.27-.64A3.77,3.77,0,0,1,80,39.5c-.08-.11-.38-.38-.63-.62a22.77,22.77,0,0,0-3.55-1.19H75l-.45.59a5.39,5.39,0,0,0,1.27,1.38s.26.22.42.33a14.62,14.62,0,0,0,1.35.62c.16.06-.43-.33-.43-.33l.8.33h.31l-.1.58.32.09-.24.23h.47l0-.06s.29-.11.29-.05l0,.11h.39a3.4,3.4,0,0,1-.16-.36Z"/><path class="cls-20" d="M77.83,42.48s0-.3.08-.41a3.9,3.9,0,0,1,.52-.49,1.6,1.6,0,0,1,.35-.13l-.64.71Z"/><path class="cls-20" d="M79,42.52a.79.79,0,0,1,.18-.29l.24-.18-.21.41Z"/><g class="cls-21"><path class="cls-14" d="M75.1,38.85,75,38.58l-.1-.31a1.48,1.48,0,0,0,.41-.24,1,1,0,0,1,.46-.22s.66.27.66.27l.8.1s1.71,1,1.72,1.1a3.12,3.12,0,0,0,.1.36s-.11.11-.13.09-.17-.21-.23-.2-.12,0-.13.08-.21.12-.21.12.1.2,0,.2-.21-.07-.23-.15,0-.25-.1-.3-.16-.25-.22-.22,0,.3-.07.29-.14.1-.23.08a8.12,8.12,0,0,1-.78-.52s-.08.09-.05.15.25.41.15.38-.1-.1-.2-.13-.06.11-.06.14,0,.14,0,.14-.2-.11-.22-.11,0,.23,0,.23,0,.12,0,.12S75.1,38.85,75.1,38.85Z"/></g><path class="cls-14" d="M76.26,39.64l-1-.88-.06-.22-.05-.18a1.06,1.06,0,0,0,.33-.22.84.84,0,0,1,.33-.16l.6.25h0l.77.1c.19.11,1.41.84,1.62,1v0l-.11,0h0a.23.23,0,0,0-.25.18l-.06,0h-.05a.41.41,0,0,0-.13-.23l0-.06a.34.34,0,0,0-.26-.19l-.09,0c-.12.06-.12.2-.12.31l0,0h0a7.9,7.9,0,0,1-.71-.48.2.2,0,0,0-.11,0,.19.19,0,0,0-.16.09.33.33,0,0,0,0,.29v0a.16.16,0,0,0-.08.06.16.16,0,0,0,0,.11h-.13l0,.07A.09.09,0,0,0,76.26,39.64Z"/><ellipse class="cls-14" cx="75.01" cy="30.23" rx="0.27" ry="0.2"/><path class="cls-14" d="M74.05,30.38h0a.09.09,0,0,1,0-.12l.07-.14H74A.08.08,0,0,1,73.9,30a.09.09,0,0,1,.09-.09h.36l-.22.39A.1.1,0,0,1,74.05,30.38Z"/><g class="cls-11"><path class="cls-22" d="M73.38,30.53a1.12,1.12,0,0,1,.4,0c.14,0,.25.06.31.06s0,.1,0,.1l0,.11-.15-.12-.13-.05-.21,0-.16,0-.12,0,.19-.24Z"/></g><path class="cls-1" d="M20.34,25.92a18.81,18.81,0,0,0,1.49-1.31,5.68,5.68,0,0,0,.31-1.41,1.69,1.69,0,0,0,.31-.72A8.65,8.65,0,0,0,21,20.17L19.42,18.6s-.29-.51-.1-.74a.59.59,0,0,1,.75-.17c.22.14,1.55,1.35,1.69,1.42s2,1.35,2.31,1.49a2.56,2.56,0,0,0,1,.2c.3,0,1.64-.43,2-.46s1.39-.18,1.86-.21,3,.17,3.64.15,5.7-.7,6.1-.79,4.55-1.22,4.9-1.28l2.08-.41s2.48-.1,3-.07a4.17,4.17,0,0,0,1,.07c.27-.07.68-.27.87-.29a7.84,7.84,0,0,0,1-.11c.19-.07.45-.29.7-.29s1.93-.19,2.12-.24,4.56-1.66,5-1.72S60.57,15,60.72,15a5.59,5.59,0,0,1,1,.18,5.74,5.74,0,0,0,.8.18,4.26,4.26,0,0,1,.77.39c.07,0,1.41,1.3,1.53,1.45a8.64,8.64,0,0,1,.53,1.36c0,.13,3.13,2.49,3.13,2.49s.39.35.4.46a.56.56,0,0,1-.12.45c-.15.15-2.24,1.54-2.24,1.54a1.55,1.55,0,0,1-1,.08,11.28,11.28,0,0,1-2-.8c-.13-.07-1.35-.84-1.35-.84a1.71,1.71,0,0,1,0,.36.56.56,0,0,1-.65-.07,1.63,1.63,0,0,0-.4-.28s-1.19.19-1.38.19a15,15,0,0,0-1.7.74,19.41,19.41,0,0,0-2.86,1A17.08,17.08,0,0,0,53.78,26a2.74,2.74,0,0,1-.2,1.26c-.28.43-1.15,1.51-1.15,1.51L49.9,31.47A4.8,4.8,0,0,0,49,33.19c0,.6-.78,3.74-.78,3.74l-.32,5h-2.2s0-5.16-.09-5.37-.09-2.41-.09-2.41-.37,0-.37-.24a4.39,4.39,0,0,0,0-1,1.76,1.76,0,0,0-.26-.35,20,20,0,0,1-4-.72c-1.2-.48-5.26-1.79-5.72-1.94A15.74,15.74,0,0,0,32,29c-.78,0-1.2-.18-1.13.11a12.67,12.67,0,0,1,.67,2.4,16.2,16.2,0,0,1-1.46,2.12c-.11,0-3.39,1.7-3.93,1.9S23.32,37,23,37.77a1.51,1.51,0,0,0-.11,1.2H20.76a9.31,9.31,0,0,1-.85-1.27c0-.15-.37-.94-.24-1.13a19.93,19.93,0,0,1,2.47-1.42,22.62,22.62,0,0,0,2.58-1.62,2.86,2.86,0,0,0,.35-2.14,3.34,3.34,0,0,0-.79-1.11s-3.65,2-3.76,2.18a4.15,4.15,0,0,1-1.26,1c-.59.28-1.05.74-1.44.72a10.76,10.76,0,0,0-2,.53,10.9,10.9,0,0,0-1.59.28c-.42.15-2.16.72-2.43.79a9.8,9.8,0,0,0-3.14,2.14,8.15,8.15,0,0,0-.89,1.94l-1-1.76s.71-1,.71-1.12A11.81,11.81,0,0,1,8.6,34.45a2.46,2.46,0,0,1,1.33-.61,12.17,12.17,0,0,0,3-1c.33-.26,5.29-3.58,5.48-4s1-1.82,1.2-2.08S20.34,25.92,20.34,25.92Z"/><path class="cls-1" d="M47.93,42h-2.2a.09.09,0,0,1-.09-.09c0-2.07-.06-5.2-.09-5.36s-.08-1.91-.09-2.34c-.16,0-.37-.11-.37-.32s0-.16,0-.27a2.31,2.31,0,0,0,0-.65,1.17,1.17,0,0,0-.22-.3,19.18,19.18,0,0,1-4-.73c-1-.4-4.09-1.41-5.26-1.79L35.19,30l-.4-.14A11.92,11.92,0,0,0,32,29.1a5.68,5.68,0,0,1-.66,0,1.18,1.18,0,0,0-.39,0s0,0,0,0,.09.29.18.54a5.39,5.39,0,0,1,.49,1.91,14.19,14.19,0,0,1-1.51,2.17l-.68.34c-1.06.53-2.85,1.42-3.25,1.56s-2.81,1.47-3.12,2.18A1.51,1.51,0,0,0,23,38.93.11.11,0,0,1,23,39a.1.1,0,0,1-.08.05H20.76a.13.13,0,0,1-.07,0,6.35,6.35,0,0,1-.86-1.32,2,2,0,0,0-.09-.3c-.14-.41-.24-.73-.14-.88a20.21,20.21,0,0,1,2.5-1.45,22.25,22.25,0,0,0,2.55-1.6,2.87,2.87,0,0,0,.34-2,3.71,3.71,0,0,0-.72-1c-1.43.8-3.55,2-3.68,2.13a4.32,4.32,0,0,1-1.29,1,5,5,0,0,0-.6.35,1.65,1.65,0,0,1-.89.38,9.85,9.85,0,0,0-1.91.52h0a10.32,10.32,0,0,0-1.57.28c-.43.16-2.18.73-2.43.79a10,10,0,0,0-3.1,2.1,8.3,8.3,0,0,0-.88,1.92.07.07,0,0,1-.07.06.08.08,0,0,1-.09,0l-1-1.76a.07.07,0,0,1,0-.09,11.37,11.37,0,0,0,.69-1.09,12.22,12.22,0,0,1,1.12-2.54,2.56,2.56,0,0,1,1.39-.63,12.47,12.47,0,0,0,2.9-1c.09-.08.55-.39,1.18-.82,1.34-.93,4.14-2.86,4.27-3.1s1-1.81,1.22-2.09.75-.85.78-.87h0a15.32,15.32,0,0,0,1.48-1.29,5.91,5.91,0,0,0,.29-1.37s0,0,0-.05a1.48,1.48,0,0,0,.29-.65,8.82,8.82,0,0,0-1.44-2.26l-1.57-1.57v0c0-.06-.3-.57-.08-.84a.67.67,0,0,1,.85-.19c.13.08.53.44.93.78s.7.61.76.64l.69.45c.61.4,1.44.95,1.62,1a2.36,2.36,0,0,0,1,.19,7.4,7.4,0,0,0,1-.23,8.29,8.29,0,0,1,1-.23l.62-.07c.44-.06.94-.12,1.23-.14s1,0,1.8.08,1.54.08,1.84.08c.61,0,5.68-.7,6.09-.8l1.6-.42,3.3-.86,2.09-.41c.11,0,2.49-.1,3-.06l.46.05a1.16,1.16,0,0,0,.49,0l.41-.14a2.12,2.12,0,0,1,.48-.15h.12a4.47,4.47,0,0,0,.81-.1l.21-.1a1.1,1.1,0,0,1,.52-.19c.24,0,1.91-.18,2.1-.23l1.21-.43c1.84-.66,3.51-1.26,3.79-1.3s1.31-.17,1.48-.18a5,5,0,0,1,1.06.19,5.25,5.25,0,0,0,.77.17,2.78,2.78,0,0,1,.72.35l.09.05c.1,0,1.47,1.36,1.56,1.48a9,9,0,0,1,.54,1.37c.14.18,2,1.6,3.11,2.46.19.18.42.41.43.52v0a.6.6,0,0,1-.15.5c-.15.15-2,1.4-2.25,1.54a1.52,1.52,0,0,1-1,.1,10.84,10.84,0,0,1-2-.81l-1.23-.76c0,.2,0,.23,0,.24a.36.36,0,0,1-.24.11.72.72,0,0,1-.55-.15,3.43,3.43,0,0,0-.35-.26c-.18,0-1.19.19-1.37.19a12.54,12.54,0,0,0-1.66.73,16.67,16.67,0,0,0-2.84,1,17.67,17.67,0,0,0-1.43,2v.17a1.94,1.94,0,0,1-.21,1.11c-.28.44-1.11,1.48-1.15,1.52L50,31.53a4.78,4.78,0,0,0-.86,1.66c0,.61-.75,3.63-.78,3.76l-.31,5A.09.09,0,0,1,47.93,42Zm-2.12-.18h2l.31-4.92s.75-3.16.78-3.75a4.81,4.81,0,0,1,.89-1.76l2.54-2.74s.86-1.08,1.13-1.5a1.94,1.94,0,0,0,.19-1,.66.66,0,0,1,0-.2,15.65,15.65,0,0,1,1.48-2.15,17.39,17.39,0,0,1,2.9-1A12.18,12.18,0,0,1,59.79,22c.15,0,1-.13,1.37-.19h0s.12,0,.43.29a.48.48,0,0,0,.53.08c0-.05,0-.19,0-.3a.08.08,0,0,1,0-.07.08.08,0,0,1,.09,0l1.35.84a11.19,11.19,0,0,0,1.93.78,1.46,1.46,0,0,0,.92-.07c.83-.55,2.11-1.41,2.22-1.52a.42.42,0,0,0,.09-.36v0a1.9,1.9,0,0,0-.37-.41,33.31,33.31,0,0,1-3.16-2.53,8.55,8.55,0,0,0-.51-1.32c-.12-.16-1.41-1.38-1.5-1.44l-.1,0a3.45,3.45,0,0,0-.64-.32,6.52,6.52,0,0,1-.82-.19,6.27,6.27,0,0,0-1-.18c-.14,0-1,.12-1.46.19-.28,0-2.45.82-3.75,1.28L54.28,17c-.21.05-1.89.24-2.14.24a1,1,0,0,0-.43.16,1.33,1.33,0,0,1-.24.12,4.89,4.89,0,0,1-.86.11h-.12a1.92,1.92,0,0,0-.43.13,3.18,3.18,0,0,1-.43.15,1.33,1.33,0,0,1-.56,0,3.88,3.88,0,0,0-.44-.05c-.47,0-2.92.06-2.94.06l-2.08.42c-.22,0-2,.51-3.28.85l-1.61.42c-.41.1-5.51.79-6.12.8-.31,0-1.1,0-1.86-.08S29.2,20.2,29,20.22s-.78.08-1.22.13l-.63.08a7.64,7.64,0,0,0-.95.22,7.48,7.48,0,0,1-1.08.24,2.55,2.55,0,0,1-1-.21c-.19-.1-1-.63-1.64-1.05l-.67-.44c-.07,0-.35-.28-.79-.67s-.8-.69-.91-.76a.51.51,0,0,0-.63.16c-.12.14,0,.5.1.63L21,20.1a8.61,8.61,0,0,1,1.49,2.37,1.48,1.48,0,0,1-.31.76,5.09,5.09,0,0,1-.32,1.43A16.12,16.12,0,0,1,20.4,26c0,.06-.56.61-.77.86s-1,1.68-1.19,2.06a41,41,0,0,1-4.34,3.16l-1.16.82a12.19,12.19,0,0,1-3,1,2.39,2.39,0,0,0-1.27.59A11.81,11.81,0,0,0,7.6,36.94s0,.11-.69,1.12l.88,1.54a7.94,7.94,0,0,1,.85-1.77,10,10,0,0,1,3.19-2.18c.26-.06,2-.63,2.42-.78a9.86,9.86,0,0,1,1.6-.29,10.63,10.63,0,0,1,2-.53,1.53,1.53,0,0,0,.78-.35c.19-.12.4-.25.62-.36a4.2,4.2,0,0,0,1.23-.93c.11-.16,2.93-1.73,3.79-2.21a.08.08,0,0,1,.1,0,3.47,3.47,0,0,1,.81,1.15,2.93,2.93,0,0,1-.37,2.23,20.44,20.44,0,0,1-2.6,1.63,23.29,23.29,0,0,0-2.43,1.39c-.07.1.08.53.15.74a1.28,1.28,0,0,1,.1.35,8.6,8.6,0,0,0,.81,1.18h2a1.79,1.79,0,0,1,.15-1.15c.35-.8,2.71-2.09,3.22-2.27s2.24-1.07,3.24-1.56l.69-.34a18.13,18.13,0,0,0,1.41-2.07A7.2,7.2,0,0,0,31,29.7c-.09-.28-.16-.48-.18-.56a.22.22,0,0,1,0-.2c.09-.09.25-.08.54-.05s.39,0,.65,0a12,12,0,0,1,2.84.8,3.32,3.32,0,0,0,.4.14l.46.16C36.87,30.4,40,31.4,41,31.81a19.59,19.59,0,0,0,4,.71l0,0a1.49,1.49,0,0,1,.28.38,2.22,2.22,0,0,1,0,.73c0,.11,0,.2,0,.26s.23.15.29.16a.09.09,0,0,1,.08.08c0,.61,0,2.21.08,2.39S45.81,41,45.81,41.85Z"/><g class="cls-23"><path class="cls-24" d="M20.34,25.92a18.81,18.81,0,0,0,1.49-1.31,5.68,5.68,0,0,0,.31-1.41,1.69,1.69,0,0,0,.31-.72A8.65,8.65,0,0,0,21,20.17L19.42,18.6s-.29-.51-.1-.74a.59.59,0,0,1,.75-.17c.22.14,1.55,1.35,1.69,1.42s2,1.35,2.31,1.49a2.56,2.56,0,0,0,1,.2c.3,0,1.64-.43,2-.46s1.39-.18,1.86-.21,3,.17,3.64.15,5.7-.7,6.1-.79,4.55-1.22,4.9-1.28l2.08-.41s2.48-.1,3-.07a4.17,4.17,0,0,0,1,.07c.27-.07.68-.27.87-.29a7.84,7.84,0,0,0,1-.11c.19-.07.45-.29.7-.29s1.93-.19,2.12-.24,4.56-1.66,5-1.72S60.57,15,60.72,15a5.59,5.59,0,0,1,1,.18,5.74,5.74,0,0,0,.8.18,4.26,4.26,0,0,1,.77.39c.07,0,1.41,1.3,1.53,1.45a8.64,8.64,0,0,1,.53,1.36c0,.13,3.13,2.49,3.13,2.49s.39.35.4.46a.56.56,0,0,1-.12.45c-.15.15-2.24,1.54-2.24,1.54a1.55,1.55,0,0,1-1,.08,11.28,11.28,0,0,1-2-.8c-.13-.07-1.35-.84-1.35-.84a1.71,1.71,0,0,1,0,.36.56.56,0,0,1-.65-.07,1.63,1.63,0,0,0-.4-.28s-1.19.19-1.38.19a15,15,0,0,0-1.7.74,19.41,19.41,0,0,0-2.86,1A17.08,17.08,0,0,0,53.78,26a2.74,2.74,0,0,1-.2,1.26c-.28.43-1.15,1.51-1.15,1.51L49.9,31.47A4.8,4.8,0,0,0,49,33.19c0,.6-.78,3.74-.78,3.74l-.32,5h-2.2s0-5.16-.09-5.37-.09-2.41-.09-2.41-.37,0-.37-.24a4.39,4.39,0,0,0,0-1,1.76,1.76,0,0,0-.26-.35,20,20,0,0,1-4-.72c-1.2-.48-5.26-1.79-5.72-1.94A15.74,15.74,0,0,0,32,29c-.78,0-1.2-.18-1.13.11a12.67,12.67,0,0,1,.67,2.4,16.2,16.2,0,0,1-1.46,2.12c-.11,0-3.39,1.7-3.93,1.9S23.32,37,23,37.77a1.51,1.51,0,0,0-.11,1.2H20.76a9.31,9.31,0,0,1-.85-1.27c0-.15-.37-.94-.24-1.13a19.93,19.93,0,0,1,2.47-1.42,22.62,22.62,0,0,0,2.58-1.62,2.86,2.86,0,0,0,.35-2.14,3.34,3.34,0,0,0-.79-1.11s-3.65,2-3.76,2.18a4.15,4.15,0,0,1-1.26,1c-.59.28-1.05.74-1.44.72a10.76,10.76,0,0,0-2,.53,10.9,10.9,0,0,0-1.59.28c-.42.15-2.16.72-2.43.79a9.8,9.8,0,0,0-3.14,2.14,8.15,8.15,0,0,0-.89,1.94l-1-1.76s.71-1,.71-1.12A11.81,11.81,0,0,1,8.6,34.45a2.46,2.46,0,0,1,1.33-.61,12.17,12.17,0,0,0,3-1c.33-.26,5.29-3.58,5.48-4s1-1.82,1.2-2.08S20.34,25.92,20.34,25.92Z"/><path class="cls-25" d="M47.93,42h-2.2a.09.09,0,0,1-.09-.09c0-2.07-.06-5.2-.09-5.36s-.08-1.91-.09-2.34c-.16,0-.37-.11-.37-.32s0-.16,0-.27a2.31,2.31,0,0,0,0-.65,1.17,1.17,0,0,0-.22-.3,19.18,19.18,0,0,1-4-.73c-1-.4-4.09-1.41-5.26-1.79L35.19,30l-.4-.14A11.92,11.92,0,0,0,32,29.1a5.68,5.68,0,0,1-.66,0,1.18,1.18,0,0,0-.39,0s0,0,0,0,.09.29.18.54a5.39,5.39,0,0,1,.49,1.91,14.19,14.19,0,0,1-1.51,2.17l-.68.34c-1.06.53-2.85,1.42-3.25,1.56s-2.81,1.47-3.12,2.18A1.51,1.51,0,0,0,23,38.93.11.11,0,0,1,23,39a.1.1,0,0,1-.08.05H20.76a.13.13,0,0,1-.07,0,6.35,6.35,0,0,1-.86-1.32,2,2,0,0,0-.09-.3c-.14-.41-.24-.73-.14-.88a20.21,20.21,0,0,1,2.5-1.45,22.25,22.25,0,0,0,2.55-1.6,2.87,2.87,0,0,0,.34-2,3.71,3.71,0,0,0-.72-1c-1.43.8-3.55,2-3.68,2.13a4.32,4.32,0,0,1-1.29,1,5,5,0,0,0-.6.35,1.65,1.65,0,0,1-.89.38,9.85,9.85,0,0,0-1.91.52h0a10.32,10.32,0,0,0-1.57.28c-.43.16-2.18.73-2.43.79a10,10,0,0,0-3.1,2.1,8.3,8.3,0,0,0-.88,1.92.07.07,0,0,1-.07.06.08.08,0,0,1-.09,0l-1-1.76a.07.07,0,0,1,0-.09,11.37,11.37,0,0,0,.69-1.09,12.22,12.22,0,0,1,1.12-2.54,2.56,2.56,0,0,1,1.39-.63,12.47,12.47,0,0,0,2.9-1c.09-.08.55-.39,1.18-.82,1.34-.93,4.14-2.86,4.27-3.1s1-1.81,1.22-2.09.75-.85.78-.87h0a15.32,15.32,0,0,0,1.48-1.29,5.91,5.91,0,0,0,.29-1.37s0,0,0-.05a1.48,1.48,0,0,0,.29-.65,8.82,8.82,0,0,0-1.44-2.26l-1.57-1.57v0c0-.06-.3-.57-.08-.84a.67.67,0,0,1,.85-.19c.13.08.53.44.93.78s.7.61.76.64l.69.45c.61.4,1.44.95,1.62,1a2.36,2.36,0,0,0,1,.19,7.4,7.4,0,0,0,1-.23,8.29,8.29,0,0,1,1-.23l.62-.07c.44-.06.94-.12,1.23-.14s1,0,1.8.08,1.54.08,1.84.08c.61,0,5.68-.7,6.09-.8l1.6-.42,3.3-.86,2.09-.41c.11,0,2.49-.1,3-.06l.46.05a1.16,1.16,0,0,0,.49,0l.41-.14a2.12,2.12,0,0,1,.48-.15h.12a4.47,4.47,0,0,0,.81-.1l.21-.1a1.1,1.1,0,0,1,.52-.19c.24,0,1.91-.18,2.1-.23l1.21-.43c1.84-.66,3.51-1.26,3.79-1.3s1.31-.17,1.48-.18a5,5,0,0,1,1.06.19,5.25,5.25,0,0,0,.77.17,2.78,2.78,0,0,1,.72.35l.09.05c.1,0,1.47,1.36,1.56,1.48a9,9,0,0,1,.54,1.37c.14.18,2,1.6,3.11,2.46.19.18.42.41.43.52v0a.6.6,0,0,1-.15.5c-.15.15-2,1.4-2.25,1.54a1.52,1.52,0,0,1-1,.1,10.84,10.84,0,0,1-2-.81l-1.23-.76c0,.2,0,.23,0,.24a.36.36,0,0,1-.24.11.72.72,0,0,1-.55-.15,3.43,3.43,0,0,0-.35-.26c-.18,0-1.19.19-1.37.19a12.54,12.54,0,0,0-1.66.73,16.67,16.67,0,0,0-2.84,1,17.67,17.67,0,0,0-1.43,2v.17a1.94,1.94,0,0,1-.21,1.11c-.28.44-1.11,1.48-1.15,1.52L50,31.53a4.78,4.78,0,0,0-.86,1.66c0,.61-.75,3.63-.78,3.76l-.31,5A.09.09,0,0,1,47.93,42Zm-2.12-.18h2l.31-4.92s.75-3.16.78-3.75a4.81,4.81,0,0,1,.89-1.76l2.54-2.74s.86-1.08,1.13-1.5a1.94,1.94,0,0,0,.19-1,.66.66,0,0,1,0-.2,15.65,15.65,0,0,1,1.48-2.15,17.39,17.39,0,0,1,2.9-1A12.18,12.18,0,0,1,59.79,22c.15,0,1-.13,1.37-.19h0s.12,0,.43.29a.48.48,0,0,0,.53.08c0-.05,0-.19,0-.3a.08.08,0,0,1,0-.07.08.08,0,0,1,.09,0l1.35.84a11.19,11.19,0,0,0,1.93.78,1.46,1.46,0,0,0,.92-.07c.83-.55,2.11-1.41,2.22-1.52a.42.42,0,0,0,.09-.36v0a1.9,1.9,0,0,0-.37-.41,33.31,33.31,0,0,1-3.16-2.53,8.55,8.55,0,0,0-.51-1.32c-.12-.16-1.41-1.38-1.5-1.44l-.1,0a3.45,3.45,0,0,0-.64-.32,6.52,6.52,0,0,1-.82-.19,6.27,6.27,0,0,0-1-.18c-.14,0-1,.12-1.46.19-.28,0-2.45.82-3.75,1.28L54.28,17c-.21.05-1.89.24-2.14.24a1,1,0,0,0-.43.16,1.33,1.33,0,0,1-.24.12,4.89,4.89,0,0,1-.86.11h-.12a1.92,1.92,0,0,0-.43.13,3.18,3.18,0,0,1-.43.15,1.33,1.33,0,0,1-.56,0,3.88,3.88,0,0,0-.44-.05c-.47,0-2.92.06-2.94.06l-2.08.42c-.22,0-2,.51-3.28.85l-1.61.42c-.41.1-5.51.79-6.12.8-.31,0-1.1,0-1.86-.08S29.2,20.2,29,20.22s-.78.08-1.22.13l-.63.08a7.64,7.64,0,0,0-.95.22,7.48,7.48,0,0,1-1.08.24,2.55,2.55,0,0,1-1-.21c-.19-.1-1-.63-1.64-1.05l-.67-.44c-.07,0-.35-.28-.79-.67s-.8-.69-.91-.76a.51.51,0,0,0-.63.16c-.12.14,0,.5.1.63L21,20.1a8.61,8.61,0,0,1,1.49,2.37,1.48,1.48,0,0,1-.31.76,5.09,5.09,0,0,1-.32,1.43A16.12,16.12,0,0,1,20.4,26c0,.06-.56.61-.77.86s-1,1.68-1.19,2.06a41,41,0,0,1-4.34,3.16l-1.16.82a12.19,12.19,0,0,1-3,1,2.39,2.39,0,0,0-1.27.59A11.81,11.81,0,0,0,7.6,36.94s0,.11-.69,1.12l.88,1.54a7.94,7.94,0,0,1,.85-1.77,10,10,0,0,1,3.19-2.18c.26-.06,2-.63,2.42-.78a9.86,9.86,0,0,1,1.6-.29,10.63,10.63,0,0,1,2-.53,1.53,1.53,0,0,0,.78-.35c.19-.12.4-.25.62-.36a4.2,4.2,0,0,0,1.23-.93c.11-.16,2.93-1.73,3.79-2.21a.08.08,0,0,1,.1,0,3.47,3.47,0,0,1,.81,1.15,2.93,2.93,0,0,1-.37,2.23,20.44,20.44,0,0,1-2.6,1.63,23.29,23.29,0,0,0-2.43,1.39c-.07.1.08.53.15.74a1.28,1.28,0,0,1,.1.35,8.6,8.6,0,0,0,.81,1.18h2a1.79,1.79,0,0,1,.15-1.15c.35-.8,2.71-2.09,3.22-2.27s2.24-1.07,3.24-1.56l.69-.34a18.13,18.13,0,0,0,1.41-2.07A7.2,7.2,0,0,0,31,29.7c-.09-.28-.16-.48-.18-.56a.22.22,0,0,1,0-.2c.09-.09.25-.08.54-.05s.39,0,.65,0a12,12,0,0,1,2.84.8,3.32,3.32,0,0,0,.4.14l.46.16C36.87,30.4,40,31.4,41,31.81a19.59,19.59,0,0,0,4,.71l0,0a1.49,1.49,0,0,1,.28.38,2.22,2.22,0,0,1,0,.73c0,.11,0,.2,0,.26s.23.15.29.16a.09.09,0,0,1,.08.08c0,.61,0,2.21.08,2.39S45.81,41,45.81,41.85Z"/></g><g class="cls-26"><path class="cls-24" d="M52.36,28.93s1.48.38,1.63.67a2.54,2.54,0,0,1-.07,1.68c-.23.22-1.74,1.27-1.88,1.52s-.41.78-.69.82-2.42.19-2.42.19a4.44,4.44,0,0,1,.36-1.1,1.39,1.39,0,0,0,.36-.55c0-.12,0-.74.25-.69s.56-.13.63-.1a2.87,2.87,0,0,0,1.08-.44c0-.13.09-.57-.06-.59s-.63,0-.63,0Z"/><path class="cls-25" d="M48.93,33.9a.07.07,0,0,1-.06,0,.08.08,0,0,1,0-.08,4,4,0,0,1,.37-1.14,1.33,1.33,0,0,0,.34-.49s0-.59.2-.74a.16.16,0,0,1,.16,0,1,1,0,0,0,.39-.07.45.45,0,0,1,.24,0,3.58,3.58,0,0,0,1-.39.82.82,0,0,0,0-.47c-.14,0-.6,0-.6,0a.11.11,0,0,1-.09-.05s0-.08,0-.1l1.44-1.44a.08.08,0,0,1,.08,0c.25.06,1.52.4,1.69.71s.19,1.54-.09,1.79l-.57.44a10.64,10.64,0,0,0-1.3,1.05l0,.09c-.16.29-.4.73-.69.78s-2.35.18-2.43.19Zm1-2.34c-.06,0-.14.35-.14.6s-.33.54-.39.61a3.59,3.59,0,0,0-.31.95c.45,0,2-.13,2.3-.18s.44-.47.57-.7l.05-.09a8.39,8.39,0,0,1,1.34-1.1l.57-.43a2.73,2.73,0,0,0,.05-1.58A4.56,4.56,0,0,0,52.38,29l-1.23,1.24a2.85,2.85,0,0,1,.4,0,.17.17,0,0,1,.13.07,1,1,0,0,1,0,.63c0,.05-.07.12-.37.25,0,0-.7.3-.82.24l-.14,0A1,1,0,0,1,49.88,31.56Z"/></g><g class="cls-27"><path class="cls-9" d="M59.9,18.55a6.09,6.09,0,0,1-.31-.89c0-.09.11-.27.2-.25a2.3,2.3,0,0,1,.21.92C60,18.41,59.9,18.55,59.9,18.55Z"/><path class="cls-9" d="M59.9,18.63h0a.1.1,0,0,1-.08-.05,4.82,4.82,0,0,1-.32-.93.47.47,0,0,1,.16-.29.18.18,0,0,1,.15,0,.12.12,0,0,1,.09.08,2.61,2.61,0,0,1,.18.95,1.79,1.79,0,0,1-.1.22A.08.08,0,0,1,59.9,18.63Zm-.14-1.12a.42.42,0,0,0-.09.16,5.62,5.62,0,0,0,.24.65v0A3.16,3.16,0,0,0,59.76,17.51Z"/></g><g class="cls-26"><path class="cls-24" d="M64,18.49a.92.92,0,0,1,.44-.27c.17,0,.51,0,.53.06s-.2.24-.2.24-.36.14-.41.11a1.54,1.54,0,0,0-.3,0S64,18.49,64,18.49Z"/><path class="cls-25" d="M64.34,18.72h-.06l-.16,0-.12,0a.23.23,0,0,1-.13-.16.19.19,0,0,1,0-.08,1,1,0,0,1,.51-.29c.57,0,.6.07.62.11s0,.12-.23.34h0A1.33,1.33,0,0,1,64.34,18.72Zm-.27-.21h.07a.87.87,0,0,1,.21,0l.34-.11.12-.11a2.3,2.3,0,0,0-.4,0,.79.79,0,0,0-.34.2Z"/></g><g class="cls-27"><path class="cls-9" d="M67.47,20.34s0,.9,0,1,.07.34.06.44a3,3,0,0,1-.14.47,4.35,4.35,0,0,1-.33.42s-.41.41-.43.48a.68.68,0,0,0,0,.21l2.13-1.4.12-.37-.12-.31-1.28-1Z"/><path class="cls-9" d="M66.66,23.42h0a.09.09,0,0,1-.06-.06.74.74,0,0,1,0-.25c0-.06.08-.14.34-.4l.1-.11.1-.12c.06-.07.19-.23.22-.28s0-.06,0-.14a1.34,1.34,0,0,0,.09-.3c0-.06,0-.18,0-.27a.69.69,0,0,1,0-.16c0-.08,0-.95,0-1v0l0-.08a.07.07,0,0,1,.06,0,.11.11,0,0,1,.08,0l1.28,1s0,0,0,0l.13.31v.06l-.13.37a.09.09,0,0,1,0,.05l-2.13,1.4Zm.9-3c0,.33,0,.85,0,.91s0,.07,0,.13a2.31,2.31,0,0,1,0,.32,2.56,2.56,0,0,1-.1.34.79.79,0,0,0,0,.13s0,.09-.26.36l-.08.1-.13.14a4,4,0,0,0-.3.32v0l2-1.3.1-.31-.1-.26Z"/></g><g class="cls-28"><path class="cls-24" d="M67.72,22.51A1.49,1.49,0,0,1,68,22s.05-.08.07-.18.08-.35.16-.35.09-.09.26-.07a.85.85,0,0,1,.37.19s0,.2,0,.2l-.41.46-.63.43Z"/><path class="cls-24" d="M67.81,22.72h0l-.06,0-.08-.12a.14.14,0,0,1,0-.06,1.45,1.45,0,0,1,.28-.62.31.31,0,0,0,0-.12c.09-.43.21-.43.25-.43l0,0a.33.33,0,0,1,.24,0c.09,0,.44.15.44.27s0,.19,0,.19a.1.1,0,0,1,0,.07l-.41.46h0l-.63.43Zm0-.24,0,0,.55-.38.38-.41a.61.61,0,0,0,0-.14.84.84,0,0,0-.3-.14c-.07,0-.08,0-.11,0a.18.18,0,0,1-.11,0,1,1,0,0,0-.09.29c0,.11-.05.2-.11.23A2.25,2.25,0,0,0,67.81,22.48Zm.12-.61h0Z"/></g><g class="cls-27"><path class="cls-9" d="M53.33,25.79a1,1,0,0,1,.14-.75c.2-.37.71-1.21.76-1.26s.86-.85,1-.88a10.66,10.66,0,0,1,1.31-.65c.18,0,1.38-.27,1.55-.28a5.91,5.91,0,0,0,1.13-.54c.11-.07.21-.51.47-.57s.47-.29.57-.21a4.1,4.1,0,0,1,.45.83,3.76,3.76,0,0,1-.59.39c-.13,0-1,.35-1,.37s-.54.43-.54.43l-1.72.59-1.53.61L54,25.57l-.23.4Z"/><path class="cls-9" d="M53.78,26.06h0l-.45-.18a.08.08,0,0,1,0-.08s0-.08,0-.11a1.07,1.07,0,0,1,.16-.68c.18-.33.72-1.22.78-1.28a13.05,13.05,0,0,1,1-.91l.29-.15a4.27,4.27,0,0,1,1.05-.5c.09,0,.5-.08.83-.15a6.74,6.74,0,0,1,.72-.13,6.69,6.69,0,0,0,1.08-.52.76.76,0,0,0,.1-.15c.08-.16.2-.38.4-.43a1.2,1.2,0,0,0,.28-.13c.14-.08.26-.15.36-.07a3.5,3.5,0,0,1,.49.91.09.09,0,0,1-.06.07l-.07.06a2,2,0,0,1-.54.34c-.11,0-.93.32-1,.36l-.52.42h0l-1.72.6-1.5.6-1.21,1.67-.23.4A.08.08,0,0,1,53.78,26.06Zm-.37-.33.33.13.19-.34,1.23-1.7,0,0,1.53-.61,1.7-.59a4.07,4.07,0,0,1,.55-.43s.93-.36,1.08-.38a2.51,2.51,0,0,0,.45-.3l.05,0a4.18,4.18,0,0,0-.41-.72L60,20.8a1.43,1.43,0,0,1-.33.15c-.13,0-.22.2-.29.34a.56.56,0,0,1-.15.22,6.39,6.39,0,0,1-1.17.54l-.69.13c-.46.09-.77.16-.87.16a5.65,5.65,0,0,0-1,.48,2.25,2.25,0,0,1-.31.16c-.08.05-.73.67-.92.86s-.55.88-.75,1.25a.83.83,0,0,0-.13.58Z"/></g><g class="cls-29"><path class="cls-9" d="M7.49,39.41a8.36,8.36,0,0,1,.47-2c.26-.37.16-.79.82-1.15s1.37-.93,1.76-.93-1.43,1-1.61,1.24A7.63,7.63,0,0,0,8,38.17c-.06.37-.14,1.08-.32,1.16Z"/><path class="cls-9" d="M7.49,39.49h0a.08.08,0,0,1,0-.08,8.12,8.12,0,0,1,.48-2.07A1.49,1.49,0,0,0,8.06,37a1.31,1.31,0,0,1,.68-.82c.23-.12.45-.26.68-.4a2.71,2.71,0,0,1,1.12-.54c.1,0,.13,0,.14.08s-.09.22-.86.72a4.87,4.87,0,0,0-.82.58v0a6.09,6.09,0,0,0-.91,1.57l0,.2c-.09.55-.16.94-.34,1l-.18.08Zm2.9-4.08a5.34,5.34,0,0,0-.88.48,7.06,7.06,0,0,1-.69.42,1.16,1.16,0,0,0-.6.73,2,2,0,0,1-.19.39,7.26,7.26,0,0,0-.43,1.83h0c.1,0,.19-.64.23-.9a1.77,1.77,0,0,0,0-.2,6,6,0,0,1,.93-1.64l0,0a4.15,4.15,0,0,1,.86-.63C9.94,35.72,10.23,35.54,10.39,35.41Z"/></g><g class="cls-29"><path class="cls-9" d="M8.91,34.91a1.69,1.69,0,0,1,.45-.52c.15-.06.68-.33.73-.33s1.51-.47,1.66-.5.69-.29.69-.29a3.39,3.39,0,0,1-.55.25,9,9,0,0,0-1.51.71,8.86,8.86,0,0,1-.76.68s-.27.23-.43.19A.54.54,0,0,1,8.91,34.91Z"/><path class="cls-9" d="M9.22,35.19H9.17A.64.64,0,0,1,8.84,35a.08.08,0,0,1,0-.08,1.56,1.56,0,0,1,.5-.57l.25-.12a1.75,1.75,0,0,1,.51-.22l.82-.25.82-.25a5.71,5.71,0,0,0,.67-.28.08.08,0,0,1,.12,0,.08.08,0,0,1,0,.11,2.55,2.55,0,0,1-.57.27,7.84,7.84,0,0,0-1.46.68c-.12.15-.71.63-.77.69A.94.94,0,0,1,9.22,35.19ZM9,34.9A.41.41,0,0,0,9.2,35a.75.75,0,0,0,.37-.18c.17-.14.65-.55.74-.66a1,1,0,0,1,.26-.17,3.2,3.2,0,0,1-.48.13l-.43.21-.26.12A1.46,1.46,0,0,0,9,34.9Z"/></g><g class="cls-27"><path class="cls-9" d="M11.28,35.39l.19-.26c.26-.37.71-1,.76-1s1-.93,1-.93.19-.48.32-.53-.37.77-.59,1a7.56,7.56,0,0,0-1.07,1.18,2.56,2.56,0,0,1-.48.59Z"/><path class="cls-9" d="M11.46,35.48h-.18a.1.1,0,0,1-.08,0,.1.1,0,0,1,0-.09l.19-.26a6.77,6.77,0,0,1,.78-1l1-.92c.06-.17.22-.51.36-.56a.1.1,0,0,1,.13,0c.09.16-.5,1-.63,1.1a7.15,7.15,0,0,0-1,1.14,3,3,0,0,1-.51.63Zm.48-.85-.4.55v0a1.89,1.89,0,0,0,.33-.43A.41.41,0,0,1,11.94,34.63Zm.66-.73-.31.27s-.07.08-.33.44A5.69,5.69,0,0,1,12.6,33.9Z"/></g><g class="cls-29"><path class="cls-9" d="M20.49,37.3a.9.9,0,0,1-.18-.63,4.44,4.44,0,0,1,1.32-.93c.24,0,2.86-1.57,3-1.56a26.87,26.87,0,0,1-2.17,2,4.59,4.59,0,0,1-1.1.87A3.94,3.94,0,0,1,20.49,37.3Z"/><path class="cls-9" d="M20.49,37.38h-.06a1,1,0,0,1-.2-.74,4.43,4.43,0,0,1,1.39-1,18.06,18.06,0,0,0,1.65-.85,6.08,6.08,0,0,1,1.37-.7.1.1,0,0,1,.08.06c0,.09.05.13-2,1.9l-.23.2a5,5,0,0,1-1.14.89,3.34,3.34,0,0,1-.89.23Zm3.81-3-.95.52a11.37,11.37,0,0,1-1.72.88,5.31,5.31,0,0,0-1.25.88,1.15,1.15,0,0,0,.14.49,3.06,3.06,0,0,0,.81-.21,5.08,5.08,0,0,0,1.07-.85l.24-.21C23,35.62,23.86,34.85,24.3,34.43Z"/></g><g class="cls-30"><path class="cls-9" d="M24.64,30.27A14,14,0,0,1,27.12,29c.62-.12,2.9-.41,3.26-.41s.5.57.5.57l.67,2.4-1.46,2.12L26.5,35.39l-1.13.46-1.05.6L23,37.59s-.22.14-.22,0a1.88,1.88,0,0,1,.59-.83c.21-.15,2.42-1.64,2.55-1.69a6.26,6.26,0,0,0,1.38-1.39c.13-.34.47-1.11.16-1.64a6.86,6.86,0,0,0-2-1.35Z"/><path class="cls-9" d="M22.81,37.73l-.08,0a.17.17,0,0,1-.08-.16,1.81,1.81,0,0,1,.63-.9c.14-.1,2.42-1.64,2.57-1.7a6.75,6.75,0,0,0,1.33-1.34l0-.07c.15-.36.42-1,.15-1.5a7.32,7.32,0,0,0-1.93-1.31l-.82-.38a.08.08,0,0,1-.05-.07.09.09,0,0,1,0-.08,13.53,13.53,0,0,1,2.51-1.33c.61-.12,2.9-.41,3.28-.41s.57.61.58.64l.68,2.4a.17.17,0,0,1,0,.07l-1.47,2.12,0,0-3.59,1.75-1.14.47-1,.59L23,37.65A.4.4,0,0,1,22.81,37.73Zm2-7.47.67.31a7,7,0,0,1,2,1.38,2,2,0,0,1-.13,1.65l0,.07a6.27,6.27,0,0,1-1.42,1.44c-.14.06-2.27,1.49-2.54,1.68a1.93,1.93,0,0,0-.56.76h0a.21.21,0,0,0,.1,0l1.35-1.13,1.05-.6,1.15-.47L30,33.57l1.43-2.07-.67-2.36s-.13-.5-.41-.5-2.61.28-3.24.4A12.55,12.55,0,0,0,24.82,30.26Z"/></g><g class="cls-27"><path class="cls-9" d="M30.51,28.45s2.85.08,3.32.22a5.31,5.31,0,0,1,1.52.86c.08.14.48.62.48.62l-2.84-1-.4-.1L32.12,29,31,29l-.23-.06Z"/><path class="cls-9" d="M35.83,30.24h0l-2.85-1-.39-.1-.47-.07L31,29.05,30.78,29l-.06,0-.29-.45a.08.08,0,0,1,0-.09.08.08,0,0,1,.08-.05,32.66,32.66,0,0,1,3.35.23,5.15,5.15,0,0,1,1.57.9c.06.1.36.47.47.6a.09.09,0,0,1,0,.11A.12.12,0,0,1,35.83,30.24Zm-5-1.41.2,0,1.07.06.48.07.41.11,2.56.86-.3-.39a5.37,5.37,0,0,0-1.46-.83,31.33,31.33,0,0,0-3.14-.21Z"/></g><g class="cls-31"><path class="cls-9" d="M45,28.93s.93,1,.87,1.18a9.39,9.39,0,0,1-.77,1.33,3.46,3.46,0,0,0-.2,1.17s-.49-.14-.57-.14a.48.48,0,0,0,.33-.22,1.51,1.51,0,0,0,.19-.75c0-.2.71-.73.68-1s.11-.24-.1-.67S45,28.93,45,28.93Z"/><path class="cls-9" d="M44.92,32.7h0l-.54-.15h0a.1.1,0,0,1-.06-.1.14.14,0,0,1,.08-.07h0a.35.35,0,0,0,.27-.18,1.32,1.32,0,0,0,.18-.7c0-.12.11-.25.31-.47s.39-.42.38-.54a.76.76,0,0,1,0-.23c0-.09,0-.15-.11-.42L44.94,29a.08.08,0,0,1,0-.11.09.09,0,0,1,.11,0c.65.7,1,1.13.9,1.27a9.44,9.44,0,0,1-.79,1.36A3.09,3.09,0,0,0,45,32.62s0,.05,0,.06Zm-.29-.26.2.06c0-.12,0-.29,0-.47a.88.88,0,0,1-.12.26A.61.61,0,0,1,44.63,32.44Zm.58-1.28a1.38,1.38,0,0,0-.26.34v.11a.55.55,0,0,1,.11-.23A2.53,2.53,0,0,0,45.21,31.16Zm.19-1.66c0,.09.08.18.13.27a.77.77,0,0,1,.12.52.53.53,0,0,0,0,.13,3.36,3.36,0,0,0,.17-.34A2.87,2.87,0,0,0,45.4,29.5Z"/></g><g class="cls-32"><path class="cls-1" d="M61.36,22s-1.11-1-1.15-1.39-.07-2-.08-2.17a4.3,4.3,0,0,1,0-.59s-.06,0,0,0a6.29,6.29,0,0,1,.18,1.33,10,10,0,0,0,.12,1.69,10.88,10.88,0,0,1,.93.86A.41.41,0,0,1,61.36,22Z"/></g><g class="cls-27"><path class="cls-9" d="M22.4,22A2.16,2.16,0,0,1,23,21.3a1,1,0,0,1,.38-.17s-.65.68-.71.78A.41.41,0,0,1,22.4,22Z"/><path class="cls-9" d="M22.4,22.13a.08.08,0,0,1-.07,0,.08.08,0,0,1,0-.09,2.27,2.27,0,0,1,.59-.78.92.92,0,0,1,.43-.17.08.08,0,0,1,.08.05.07.07,0,0,1,0,.09c-.25.26-.66.7-.7.77a.5.5,0,0,1-.29.17ZM23,21.4a1.44,1.44,0,0,0-.24.25Z"/></g><g class="cls-32"><path class="cls-1" d="M19.94,17.84s1.53,1.39,1.71,1.53A24.69,24.69,0,0,0,24,20.8a14.09,14.09,0,0,0-1.6-1.16C22.25,19.55,19.94,17.84,19.94,17.84Z"/></g><g class="cls-30"><path class="cls-9" d="M25.17,28.55a14,14,0,0,1,2-2.42A5.16,5.16,0,0,1,28.7,26c.21.11-.65.94-1.05,1.05a12.11,12.11,0,0,0-2.12,1.26A1,1,0,0,1,25.17,28.55Z"/><path class="cls-9" d="M25.17,28.64a.13.13,0,0,1-.07,0,.09.09,0,0,1,0-.1c.39-.56,1.68-2.4,2-2.46l.13,0a4.05,4.05,0,0,1,1.47-.1.17.17,0,0,1,.09.16c0,.29-.8,1-1.15,1.05a12.19,12.19,0,0,0-2.07,1.25,1,1,0,0,1-.4.25Zm3.29-2.59a9.39,9.39,0,0,0-1.17.14l-.13,0a9.5,9.5,0,0,0-1.65,2A11.89,11.89,0,0,1,27.62,27a2.34,2.34,0,0,0,1-.89Z"/></g><g class="cls-30"><path class="cls-9" d="M22.2,25.9s-.37-.95,0-1.26,1-.43.93.15a5.69,5.69,0,0,1-1.25,3,11,11,0,0,1-2.52,1.64c-.24,0,1.3-1.16,1.44-1.31s.61-2,.94-2.08Z"/><path class="cls-9" d="M19.35,29.51a.09.09,0,0,1-.09-.06c-.05-.09,0-.15,1-1,.23-.18.44-.36.48-.4a4.88,4.88,0,0,0,.23-.61c.29-.83.51-1.41.75-1.49l.37-.11c-.09-.26-.29-1,.06-1.27a.87.87,0,0,1,.86-.23c.1.05.22.17.21.46a5.73,5.73,0,0,1-1.28,3,10.72,10.72,0,0,1-2.56,1.66Zm3.45-5a1,1,0,0,0-.54.23c-.27.23-.07.92,0,1.17a.09.09,0,0,1,0,.07s0,0-.06,0a3.59,3.59,0,0,0-.45.13c-.17.05-.47.91-.63,1.37a2.88,2.88,0,0,1-.27.67c-.05.06-.22.2-.49.43s-.49.4-.7.59a12.75,12.75,0,0,0,2.14-1.46A5.64,5.64,0,0,0,23,24.79a.3.3,0,0,0-.11-.3Z"/></g><g class="cls-30"><path class="cls-9" d="M46.74,30.5a10.45,10.45,0,0,1,.64-1.74c.27-.39.53-.72.51-.86s-.2-.77-.46-.66-1.44,1.2-1.07,2.23Z"/><path class="cls-9" d="M46.74,30.59a.08.08,0,0,1-.08-.06l-.38-1c-.39-1.08.82-2.22,1.11-2.34a.24.24,0,0,1,.22,0c.25.14.37.71.37.72s-.1.31-.34.66l-.19.26a11.07,11.07,0,0,0-.63,1.72.09.09,0,0,1-.08.06Zm.75-3.28h0c-.25.11-1.36,1.16-1,2.12l.28.78a8.22,8.22,0,0,1,.58-1.5,3.16,3.16,0,0,1,.18-.27,1.9,1.9,0,0,0,.31-.53,1.11,1.11,0,0,0-.28-.6Z"/></g><g class="cls-30"><path class="cls-9" d="M48,28.21s-.64,3-.62,3.39.07,3.16,0,3.47a18.27,18.27,0,0,0-.4,3.78c.2.27,1.18-3.3,1.18-3.6a20.76,20.76,0,0,1,.49-3.61c.21-.27-.71.09-.86,0l-.14-.14Z"/><path class="cls-9" d="M47,39a.11.11,0,0,1-.1-.05c-.24-.33.38-3.82.39-3.85.06-.29,0-3,0-3.45s.6-3.28.62-3.41a.09.09,0,0,1,.1-.06.08.08,0,0,1,.08.09l-.35,3.21.11.1a1.17,1.17,0,0,0,.43,0c.26,0,.42-.07.47,0a.16.16,0,0,1,0,.18,21.72,21.72,0,0,0-.48,3.55,15.63,15.63,0,0,1-.47,1.91c-.51,1.71-.66,1.76-.72,1.79Zm.7-8.85a11.54,11.54,0,0,0-.24,1.49c0,.32.07,3.16,0,3.5A24.71,24.71,0,0,0,47,38.71a10.06,10.06,0,0,0,.58-1.65,16.69,16.69,0,0,0,.46-1.81,21.74,21.74,0,0,1,.49-3.62,1.18,1.18,0,0,0-.25,0c-.29,0-.48.07-.57,0l-.15-.13a.11.11,0,0,1,0-.08Z"/></g><g class="cls-27"><path class="cls-1" d="M48.13,28.32s1.1,1.29.8,1.81-.92,1.36-1,1.32A26.79,26.79,0,0,1,48.13,28.32Z"/></g><g class="cls-27"><path class="cls-9" d="M57.47,21.28a17,17,0,0,1,1.29-1.93,2.11,2.11,0,0,0,.55-.48c.09-.16-.15,1.06-.46,1.21s-1,1.35-1.18,1.28Z"/><path class="cls-9" d="M57.69,21.45h0l-.2-.07a.09.09,0,0,1-.06-.06.17.17,0,0,1,0-.07,16,16,0,0,1,1.32-2l.11-.09a1.38,1.38,0,0,0,.41-.36c0-.07.09-.07.11-.06a.11.11,0,0,1,.07.08c0,.14-.2,1.15-.52,1.31a2.64,2.64,0,0,0-.56.63C58,21.21,57.84,21.45,57.69,21.45Zm-.09-.21.1,0a3.1,3.1,0,0,0,.49-.58,2.42,2.42,0,0,1,.62-.69c.16-.08.32-.56.39-.87l-.27.2-.12.09A13.79,13.79,0,0,0,57.6,21.24Z"/></g><g class="cls-27"><path class="cls-9" d="M59.16,17.05a1.83,1.83,0,0,1,.17-.66c.13-.17,0,.39,0,.39Z"/><path class="cls-9" d="M59.16,17.14h0a.09.09,0,0,1-.06-.09,1.74,1.74,0,0,1,.19-.7c.06-.08.11-.08.15-.06s.11,0,0,.52a0,0,0,0,1,0,0l-.17.26A.08.08,0,0,1,59.16,17.14Z"/></g><g class="cls-29"><path class="cls-9" d="M63,15.8a10.31,10.31,0,0,1,1.67,1.51c.1.31.37.68.22.67s-.86-.34-1.27.07-.73-.15-.73-.15Z"/><path class="cls-9" d="M63.26,18.29H63.2a.69.69,0,0,1-.44-.35.06.06,0,0,1,0,0l.11-2.1a.09.09,0,0,1,0-.08.09.09,0,0,1,.09,0,9.08,9.08,0,0,1,1.71,1.55,1.73,1.73,0,0,0,.14.34c.1.21.15.32.1.4a.15.15,0,0,1-.12.05l-.16,0c-.26-.08-.74-.22-1,.08A.52.52,0,0,1,63.26,18.29Zm-.33-.41a.47.47,0,0,0,.3.23A.31.31,0,0,0,63.5,18a1.22,1.22,0,0,1,1.22-.13h0l-.08-.17a3.88,3.88,0,0,1-.15-.36A8.15,8.15,0,0,0,63,16Z"/></g><g class="cls-29"><path class="cls-9" d="M64.93,23a1.73,1.73,0,0,1,.41-1c.34-.28.73-.78,1.06-.8s.84-.13.9-.06.26.68,0,.91a5,5,0,0,0-.8,1c-.08.17,0,.36-.37.36s-1.3-.12-1.25-.28Z"/><path class="cls-9" d="M66.15,23.52h0c-.15,0-1.16-.07-1.31-.28a.11.11,0,0,1,0-.12l0-.15a1.79,1.79,0,0,1,.43-1c.1-.08.2-.18.31-.28a1.58,1.58,0,0,1,.8-.54l.31,0c.43-.05.6-.07.67,0s.31.75,0,1a4.86,4.86,0,0,0-.78,1,.53.53,0,0,0,0,.12C66.52,23.38,66.48,23.52,66.15,23.52ZM65,23.15a3.75,3.75,0,0,0,1.16.19c.22,0,.23,0,.25-.15a.34.34,0,0,1,0-.16,4.93,4.93,0,0,1,.82-1c.21-.18.05-.69,0-.78a2,2,0,0,0-.51,0l-.33,0c-.2,0-.46.27-.69.49a3,3,0,0,1-.32.3A1.69,1.69,0,0,0,65,23v0Zm2.28-1.94Z"/></g><g class="cls-29"><path class="cls-9" d="M63.13,19.75s.27-1.06.45-1.12.54.22.54.22-.06.38,0,.41.6.38.46.49-.43.57-.62.57a2.58,2.58,0,0,1-.83-.38S63.13,19.75,63.13,19.75Z"/><path class="cls-9" d="M64,20.4a2.48,2.48,0,0,1-.91-.41.39.39,0,0,1,0-.25h0c.11-.42.32-1.12.51-1.18s.56.18.62.23a.11.11,0,0,1,0,.09,1,1,0,0,0,0,.32c.11.07.49.3.51.49a.16.16,0,0,1,0,.14,1.39,1.39,0,0,0-.16.17C64.32,20.19,64.13,20.4,64,20.4Zm-.76-.51a2.76,2.76,0,0,0,.76.34c.09,0,.28-.23.39-.35a1.72,1.72,0,0,1,.17-.19,1.58,1.58,0,0,0-.43-.35s-.12-.05-.07-.45c-.13-.09-.33-.2-.42-.17a3.58,3.58,0,0,0-.39,1.05A.57.57,0,0,0,63.2,19.89Zm1-.71h0Z"/></g><g class="cls-29"><path class="cls-9" d="M65.34,18.69a28.26,28.26,0,0,1,3.23,2.52c-.12.14-.36-.06-.36-.06l-2.92-2.3-.05-.37Z"/><path class="cls-9" d="M68.46,21.35a.49.49,0,0,1-.31-.14l-2.92-2.29a.09.09,0,0,1,0-.05l0-.38a.09.09,0,0,1,.06-.09.08.08,0,0,1,.11,0l.09.2a21.81,21.81,0,0,1,3.25,2.54.24.24,0,0,1,0,.09.3.3,0,0,1-.16.08ZM65.58,19l2.68,2.11a.37.37,0,0,0,.2.09h0A34.14,34.14,0,0,0,65.58,19Z"/></g><g class="cls-29"><path class="cls-9" d="M62.29,15.93s0,.1.07,0,.09-.29,0-.34a5.86,5.86,0,0,0-.92-.35C61.39,15.24,62.29,15.93,62.29,15.93Z"/><path class="cls-9" d="M62.33,16.06h0a.12.12,0,0,1-.1-.07c-.86-.67-.85-.71-.82-.78a.1.1,0,0,1,.09-.06,4.63,4.63,0,0,1,1,.39c.09.11,0,.41,0,.42S62.36,16.06,62.33,16.06Zm-.53-.63c.14.12.33.26.51.4a.82.82,0,0,0,0-.18Z"/></g><g class="cls-30"><path class="cls-9" d="M31.83,28.4c0-.18.1-.68.33-.76s3-.14,3.94.91,3.73,2.23,3.78,2.38.3.41,0,.39a21.18,21.18,0,0,1-3.55-1.11c-.06-.15.09-.48-.07-.69a11.35,11.35,0,0,0-2.7-1.13l-1.48-.06A.57.57,0,0,0,31.83,28.4Z"/><path class="cls-9" d="M39.9,31.41h0a16.25,16.25,0,0,1-1.89-.5c-1.68-.52-1.72-.62-1.74-.67a.87.87,0,0,1,0-.28.57.57,0,0,0-.05-.39,11.76,11.76,0,0,0-2.64-1.09c-.37,0-1.34-.06-1.47-.06a.46.46,0,0,0-.2,0,.08.08,0,0,1-.08,0,.08.08,0,0,1-.05-.07c0-.19.1-.75.38-.85s3-.18,4,.93a13,13,0,0,0,3,1.91c.67.36.8.43.82.51L40,31c.06.1.12.2.07.29A.23.23,0,0,1,39.9,31.41Zm-3.49-1.24a25.15,25.15,0,0,0,3.47,1.07h0s0-.07-.06-.11A.51.51,0,0,1,39.8,31c-.07,0-.41-.24-.74-.41a13.06,13.06,0,0,1-3-1.95c-.95-1-3.66-.95-3.85-.88s-.25.34-.27.54a.41.41,0,0,1,.16,0l1.48.06a10.45,10.45,0,0,1,2.77,1.17.67.67,0,0,1,.08.51A.6.6,0,0,0,36.41,30.17Z"/></g><g class="cls-30"><path class="cls-9" d="M16.41,34.3a1.3,1.3,0,0,0,.68-.55,25.15,25.15,0,0,1,3-2.59c.18,0-3.39,1.8-3.67,2s-.78.7-1.08.71-1,.35-1,.55-.35.58,0,.49Z"/><path class="cls-9" d="M14.2,35.05a.15.15,0,0,1-.12,0c-.07-.09,0-.21.06-.35a.52.52,0,0,0,.08-.2c0-.27.81-.61,1.11-.62a2.77,2.77,0,0,0,1-.66l0,0c.15-.13,1-.61,2.29-1.28l1.22-.66a.84.84,0,0,1,.2-.13.09.09,0,0,1,.11.06c0,.05,0,.07-.27.24a31.52,31.52,0,0,0-2.74,2.42,1.32,1.32,0,0,1-.73.59c-.16,0-1.82.57-2.13.65Zm4.87-3.22-.35.18c-.94.51-2.11,1.13-2.25,1.26l0,0a2.6,2.6,0,0,1-1.09.7,1.63,1.63,0,0,0-.94.48,2.16,2.16,0,0,1-.1.25l-.07.14h0c.31-.08,2.11-.64,2.13-.65h0a1.24,1.24,0,0,0,.6-.5A19.09,19.09,0,0,1,19.07,31.83Z"/></g><g class="cls-30"><path class="cls-9" d="M26,21.59s1,.38,1.41,0,1-.43,1-.79-1.88.07-2.13.19-.49.23-.47.31A1.44,1.44,0,0,0,26,21.59Z"/><path class="cls-9" d="M26.83,21.84a3,3,0,0,1-.9-.17l0,0a1.07,1.07,0,0,1-.22-.32c0-.13.13-.23.52-.41.22-.1,1.85-.5,2.18-.26a.17.17,0,0,1,.08.16c0,.26-.26.37-.51.5a2.32,2.32,0,0,0-.52.34A.82.82,0,0,1,26.83,21.84ZM26,21.51c.28.1,1,.29,1.29,0a2.58,2.58,0,0,1,.56-.37c.24-.12.4-.21.41-.36a4.76,4.76,0,0,0-2,.28,2.3,2.3,0,0,0-.41.22A1.06,1.06,0,0,0,26,21.51Z"/></g><g class="cls-30"><path class="cls-9" d="M50.4,30.15A18.55,18.55,0,0,0,52,27.08a34,34,0,0,0-.15-5.29c0-.14-.18-1.05.07-1.15s1.07,4.3.87,5.33a4.71,4.71,0,0,0,0,1.9s-2.09,2.75-2.29,2.63A.33.33,0,0,1,50.4,30.15Z"/><path class="cls-9" d="M50.55,30.59h0a.44.44,0,0,1-.19-.45l0,0a18.83,18.83,0,0,0,1.6-3,28.48,28.48,0,0,0-.12-4.92c0-.23,0-.32,0-.35s0-.08,0-.15c0-.5-.09-1,.15-1.09a.14.14,0,0,1,.12,0A15.54,15.54,0,0,1,52.9,26a4.77,4.77,0,0,0,0,1.86.08.08,0,0,1,0,.08C51.08,30.33,50.67,30.59,50.55,30.59Zm-.07-.41a.25.25,0,0,0,.09.23,20,20,0,0,0,2.18-2.56,4.64,4.64,0,0,1,0-1.89,17.35,17.35,0,0,0-.79-5.21,1.88,1.88,0,0,0,0,.87c0,.08,0,.14,0,.17s0,.16,0,.34a28,28,0,0,1,.12,5A17.4,17.4,0,0,1,50.48,30.18Z"/></g><g class="cls-30"><path class="cls-9" d="M49.5,22s-.53-.41-.57-.63.27-1.07.39-1,2.37,3.2,2,4.55-.35-.51-.35-.51Z"/><path class="cls-9" d="M51.07,25.45h0c-.07,0-.22,0-.19-1.06l-1.43-2.33c-.11-.09-.54-.44-.58-.68a2.18,2.18,0,0,1,.36-1.1c.06-.05.1-.05.13,0a7,7,0,0,1,1.07,1.52c.57,1,1.21,2.34,1,3.14C51.26,25.3,51.18,25.45,51.07,25.45Zm-1.76-5a2.2,2.2,0,0,0-.29.92c0,.14.33.42.53.58l0,0L51,24.31s0,0,0,.05a4.09,4.09,0,0,0,0,.85,1.88,1.88,0,0,0,.13-.37C51.57,23.64,49.65,20.78,49.31,20.42Z"/></g><g class="cls-29"><path class="cls-9" d="M40.6,31.63s1.42-.06,2.23-.06.87.21,1.2-.2.52-.2.61-.87a10.4,10.4,0,0,0,0-1.13c0-.42.34-.2.34-.2s.71.69.58,1.15a3.86,3.86,0,0,1-.83,1.13,1.65,1.65,0,0,1,0,.65c-.07.15-.55.44-.55.44s-2.6-.41-3-.55l-.62-.23Z"/><path class="cls-9" d="M44.2,32.62h0c-.1,0-2.61-.41-3-.55l-.63-.23a.08.08,0,0,1-.05-.08v-.13a.08.08,0,0,1,.08-.08s1.44-.07,2.24-.07a4,4,0,0,1,.58,0c.29,0,.36,0,.56-.2a1.28,1.28,0,0,1,.31-.29c.14-.09.22-.15.27-.54a2.19,2.19,0,0,0,0-.68,1.61,1.61,0,0,1,0-.45.37.37,0,0,1,.18-.32.36.36,0,0,1,.31.06s.74.74.6,1.24a3.49,3.49,0,0,1-.82,1.14,1.47,1.47,0,0,1,0,.66,2.07,2.07,0,0,1-.59.47Zm-3.47-.9.52.19c.35.12,2.63.49,2.93.54a2.06,2.06,0,0,0,.49-.39,1.38,1.38,0,0,0,0-.59.07.07,0,0,1,0-.08,3.93,3.93,0,0,0,.8-1.1c.1-.33-.36-.88-.55-1.06a.15.15,0,0,0-.12,0s-.06.08-.08.18a1.61,1.61,0,0,0,0,.39,2.2,2.2,0,0,1,0,.73c-.06.45-.16.54-.34.67a1,1,0,0,0-.28.25.61.61,0,0,1-.71.26c-.14,0-.31,0-.56,0C42.17,31.66,41.1,31.7,40.73,31.72Z"/></g><g class="cls-29"><path class="cls-9" d="M61,17.76s.1.16,0-.4-.25-.93-.51-1.08"/><path class="cls-9" d="M61,17.87a.11.11,0,0,1-.1-.06l.14-.1s0,0-.06,0a.08.08,0,0,0,0,0,1.47,1.47,0,0,0-.05-.37c-.1-.57-.25-.89-.46-1l.09-.15c.26.16.43.5.55,1.14.07.41.05.49,0,.52Z"/></g><g class="cls-29"><path class="cls-9" d="M62.24,21.71s.6-2.42.6-2.7a3.24,3.24,0,0,1,0-.38"/><path class="cls-9" d="M62.32,21.73l-.17,0c.24-1,.6-2.48.6-2.68v-.38h.17V19C62.93,19.3,62.38,21.49,62.32,21.73Z"/></g><g class="cls-32"><path class="cls-1" d="M62.65,18.35s-.16-2-.22-2.2.08-.41.11-.54A12.09,12.09,0,0,1,62.76,18Z"/></g><g class="cls-32"><path class="cls-1" d="M25.08,21a2.55,2.55,0,0,1-1-.21.09.09,0,0,1,0-.12.1.1,0,0,1,.12,0,2.36,2.36,0,0,0,1,.19,7.4,7.4,0,0,0,1-.23,8.29,8.29,0,0,1,1-.23l.62-.07c.44-.06.94-.12,1.23-.13s1,0,1.81.07,1.53.09,1.83.08c.61,0,5.68-.7,6.09-.8l1.6-.42c1.37-.36,3.08-.81,3.3-.85l2.09-.42c.11,0,2.49-.09,3-.06l.46.05a1.16,1.16,0,0,0,.49,0,2.5,2.5,0,0,0,.41-.14,1.64,1.64,0,0,1,.48-.14h.12a5.59,5.59,0,0,0,.81-.1,1.08,1.08,0,0,0,.21-.11,1.2,1.2,0,0,1,.52-.18c.24,0,1.9-.19,2.1-.24s.59-.21,1.21-.43c1.84-.66,3.51-1.25,3.79-1.29S60.55,15,60.72,15a6.82,6.82,0,0,1,1.06.19.08.08,0,0,1,0,.11.09.09,0,0,1-.11.06,5.32,5.32,0,0,0-1-.18c-.14,0-1,.12-1.46.18-.28,0-2.45.82-3.75,1.29l-1.23.43c-.21.05-1.89.24-2.14.24a.93.93,0,0,0-.43.17,2.35,2.35,0,0,1-.24.11,4.89,4.89,0,0,1-.86.11h-.12a2.07,2.07,0,0,0-.43.14c-.15.05-.3.11-.43.14a1.33,1.33,0,0,1-.56,0L48.63,18c-.47,0-2.92.07-2.94.07l-2.08.41c-.22,0-2,.51-3.29.85l-1.6.42c-.41.1-5.51.79-6.12.8-.31,0-1.1,0-1.85-.08s-1.55-.08-1.79-.07-.78.08-1.22.13l-.63.08a7.64,7.64,0,0,0-.95.22A7.48,7.48,0,0,1,25.08,21Z"/></g><g class="cls-29"><path class="cls-9" d="M24.64,30.5s2.25,1.32,2.31,1.86.87,1.2-.94,2.43.19-.18.2-.33-.32-.16-.18-.59.71-.31.49-1A12.41,12.41,0,0,0,24.64,30.5Z"/><path class="cls-9" d="M25.24,35.37a0,0,0,0,1,0,0c-.06-.08-.06-.08.27-.34a7.91,7.91,0,0,0,.66-.55.12.12,0,0,0-.05-.05.47.47,0,0,1-.13-.56.66.66,0,0,1,.33-.38c.17-.12.28-.2.17-.54a13,13,0,0,0-1.86-2.36.08.08,0,0,1,0-.11.07.07,0,0,1,.11,0c.24.13,2.29,1.35,2.36,1.92a1.65,1.65,0,0,0,.09.33c.18.49.43,1.16-1.07,2.18C25.47,35.26,25.31,35.37,25.24,35.37Zm-.1-4.46a8.66,8.66,0,0,1,1.47,2,.53.53,0,0,1-.24.73.57.57,0,0,0-.26.29c-.07.24,0,.31.08.38a.29.29,0,0,1,.11.2h0c1-.8.83-1.32.68-1.74a1.4,1.4,0,0,1-.11-.37C26.83,32.08,25.94,31.42,25.14,30.91Z"/></g><g class="cls-32"><path class="cls-1" d="M59.33,17.41a.21.21,0,0,1-.06-.36,2.91,2.91,0,0,0,.19-1c0-.1-.24-.28,0-.32s.61.44.63.67,0,.65.12.73.29.19.19.24-.33-.08-.33-.08-.07-.18-.15-.2a.45.45,0,0,0-.34.14A1.26,1.26,0,0,1,59.33,17.41Z"/></g><g class="cls-32"><path class="cls-1" d="M27.5,28.7s3.13-.52,3.68-.47,0,.3-.19.32S27.5,28.7,27.5,28.7Z"/></g><g class="cls-32"><path class="cls-1" d="M11,35.69h0a.09.09,0,0,1,0-.12s.62-1,.88-1.32a6.07,6.07,0,0,1,.62-.59,5.23,5.23,0,0,0,.46-.44,2.11,2.11,0,0,0,.26-.4.1.1,0,0,1,.12,0,.08.08,0,0,1,0,.12s-.11.2-.28.42a5.69,5.69,0,0,1-.48.46c-.22.2-.47.42-.61.58s-.85,1.28-.86,1.29A.09.09,0,0,1,11,35.69Z"/></g><g class="cls-32"><path class="cls-1" d="M45.12,32.51a.08.08,0,0,1-.09-.08,3.67,3.67,0,0,1,.19-.91.23.23,0,0,0,0-.09c0-.13.55-1,.66-1.19a.09.09,0,0,1,.12,0,.1.1,0,0,1,0,.12c-.29.51-.62,1.08-.64,1.15a.22.22,0,0,1,0,.1,3.9,3.9,0,0,0-.19.85.08.08,0,0,1-.08.09Z"/></g><g class="cls-32"><path class="cls-1" d="M56.05,22.37a.09.09,0,0,1-.09-.08A.08.08,0,0,1,56,22.2a2.22,2.22,0,0,0,.83-.22.8.8,0,0,0,.22-.3.09.09,0,0,1,.11-.05.09.09,0,0,1,.06.11,1,1,0,0,1-.27.36,2.16,2.16,0,0,1-.93.27Z"/></g><g class="cls-29"><path class="cls-9" d="M49.78,32.16s0,.24.28.17a.65.65,0,0,0,.44-.63c-.06-.13-.52-.37-.6-.23a2.93,2.93,0,0,0-.12.6Z"/><path class="cls-9" d="M50,32.43a.29.29,0,0,1-.17,0,.28.28,0,0,1-.1-.22v-.09a2.78,2.78,0,0,1,.13-.64.19.19,0,0,1,.19-.09.83.83,0,0,1,.57.33.46.46,0,0,1-.06.35.76.76,0,0,1-.44.4Zm-.09-.27s0,.06,0,.08.07,0,.14,0a.57.57,0,0,0,.32-.31c.06-.11.07-.19.06-.2a.59.59,0,0,0-.3-.2c-.09,0-.14,0-.15,0a2.36,2.36,0,0,0-.1.55v.09Z"/></g><g class="cls-29"><path class="cls-9" d="M49.28,33s.65.16.65,0,.07-.49,0-.59a.41.41,0,0,0-.2-.16s-.48.28-.44.44A.79.79,0,0,1,49.28,33Z"/><path class="cls-9" d="M49.75,33.18a2.09,2.09,0,0,1-.49-.08s0,0-.06,0a.08.08,0,0,1,0-.07.64.64,0,0,0,0-.26c0-.2.33-.44.49-.54h.08a.57.57,0,0,1,.24.19.73.73,0,0,1,0,.46c0,.06,0,.13,0,.18a.16.16,0,0,1-.05.11A.45.45,0,0,1,49.75,33.18ZM49.38,33a1.48,1.48,0,0,0,.47,0,1,1,0,0,1,0-.17,1,1,0,0,0,0-.35.53.53,0,0,0-.12-.1c-.2.12-.37.27-.37.32A.78.78,0,0,1,49.38,33Z"/></g><g class="cls-32"><path class="cls-1" d="M51,30.21a.09.09,0,0,1-.07,0,.08.08,0,0,1,0-.12,6.27,6.27,0,0,0,1.11-1.16c0-.15.08-.23.17-.2s.07.12.06.18a.11.11,0,0,1-.06.07h0a6.33,6.33,0,0,1-1.17,1.23S51,30.21,51,30.21Z"/></g><g class="cls-29"><path class="cls-9" d="M51.5,30.19s.62-1,1-.94-.75,1.63-.75,1.63a.73.73,0,0,0,0-.46A.59.59,0,0,0,51.5,30.19Z"/><path class="cls-9" d="M51.75,31h0a.1.1,0,0,1,0-.1.7.7,0,0,0,0-.4.47.47,0,0,0-.19-.19.07.07,0,0,1,0-.06.06.06,0,0,1,0-.07c.06-.1.66-1,1.07-1a.17.17,0,0,1,.14.09c.13.27-.53,1.26-.82,1.68A.08.08,0,0,1,51.75,31Zm-.13-.81a.78.78,0,0,1,.18.21.42.42,0,0,1,.06.19,3.53,3.53,0,0,0,.62-1.23h0C52.27,29.33,51.86,29.81,51.62,30.16Z"/></g><g class="cls-4"><path class="cls-5" d="M71.57,31.43s0-.55,0-.55.43-.7.45-.32.63.32.63.32l.24.47.21.37h-.48Z"/></g><path class="cls-5" d="M22.09,40.74,22,40.6a6,6,0,0,0-.78-.88c-.3-.26.45.13.45.13a.83.83,0,0,1-.52-.59c-.13-.49.48.25.48.25s.56.59.48.16a4.62,4.62,0,0,0-.48-1.15l.48.45.21,1.08s-.08-.18.15-.42a1.28,1.28,0,0,1,.54-.32l.13-.34-.28.66-.16.85-.05.26"/><g class="cls-2"><path class="cls-3" d="M18,49.46l-.19-.23a11.85,11.85,0,0,0-1.28-1.45c-.5-.42.73.21.73.21a1.31,1.31,0,0,1-.85-1c-.21-.8.79.42.79.42s.92,1,.8.25a8.11,8.11,0,0,0-.81-1.88l.81.73.33,1.78s-.12-.29.25-.69a2.07,2.07,0,0,1,.88-.53l.21-.56-.46,1.09L19,49l-.08.42"/></g><g class="cls-2"><path class="cls-3" d="M15.77,45.7l-.19-.24A11.75,11.75,0,0,0,14.3,44c-.5-.42.73.21.73.21a1.34,1.34,0,0,1-.85-1c-.21-.8.79.41.79.41s.92,1,.8.26a8.17,8.17,0,0,0-.8-1.89l.8.74.33,1.77s-.12-.28.26-.68a2,2,0,0,1,.87-.53l.21-.56L17,43.88l-.25,1.4-.08.42"/></g><g class="cls-2"><path class="cls-3" d="M15.09,43.67l-.19-.24A11.06,11.06,0,0,0,13.62,42c-.5-.42.73.21.73.21a1.34,1.34,0,0,1-.85-1c-.21-.79.79.42.79.42s.92,1,.8.25a8.23,8.23,0,0,0-.8-1.88l.8.74.33,1.77s-.12-.29.26-.69a1.94,1.94,0,0,1,.87-.52l.21-.56-.46,1.08-.25,1.4-.08.43"/></g><g class="cls-2"><path class="cls-3" d="M12.06,43s-.08-.09-.19-.24a12.54,12.54,0,0,0-1.28-1.44c-.5-.42.73.21.73.21a1.34,1.34,0,0,1-.85-1c-.21-.8.79.42.79.42s.92,1,.8.25a8.17,8.17,0,0,0-.8-1.89l.8.74.33,1.77s-.12-.28.26-.68a2,2,0,0,1,.87-.53l.21-.56-.46,1.09L13,42.6l-.08.42"/></g><g class="cls-2"><path class="cls-3" d="M12.06,43.52s-.08-.09-.19-.24a11.06,11.06,0,0,0-1.28-1.44c-.5-.42.73.21.73.21a1.34,1.34,0,0,1-.85-1c-.21-.79.79.42.79.42s.92,1,.8.25a8.23,8.23,0,0,0-.8-1.88l.8.74.33,1.77s-.12-.29.26-.69a1.94,1.94,0,0,1,.87-.52l.21-.56-.46,1.08L13,43.09l-.08.43"/></g><g class="cls-2"><path class="cls-3" d="M10.63,43l-.18-.24A13.56,13.56,0,0,0,9.17,41.3c-.5-.42.73.21.73.21a1.32,1.32,0,0,1-.85-1c-.21-.8.79.42.79.42s.92,1,.79.25a7.73,7.73,0,0,0-.8-1.89l.8.74L11,41.84s-.12-.28.25-.68a2.07,2.07,0,0,1,.88-.53l.21-.56-.46,1.09-.25,1.4-.08.42"/></g><g class="cls-2"><path class="cls-3" d="M18,47.28l-.19-.23a11.85,11.85,0,0,0-1.28-1.45c-.5-.42.73.21.73.21a1.34,1.34,0,0,1-.85-1c-.21-.8.79.42.79.42s.92,1,.8.25a8.11,8.11,0,0,0-.81-1.88l.81.73.33,1.78s-.12-.29.25-.69a2.07,2.07,0,0,1,.88-.53l.21-.56-.46,1.09L19,46.86l-.08.42"/></g><g class="cls-2"><path class="cls-3" d="M84.66,46.13s-.07-.1-.19-.24a11.77,11.77,0,0,0-1.27-1.44c-.51-.42.73.21.73.21a1.32,1.32,0,0,1-.85-1c-.22-.79.79.42.79.42s.91,1,.79.25a7.79,7.79,0,0,0-.8-1.88l.8.74L85,45s-.13-.29.25-.69a1.94,1.94,0,0,1,.88-.52l.21-.56-.46,1.08-.26,1.4-.08.43"/></g><g class="cls-2"><path class="cls-3" d="M44.82,41.94v-1.2l.61,1.2s0-.44,0-1.2,0-1.11,0-1.11L46,38.24v2.89l.42-1v1.3s-.48.39-.19.55a5.27,5.27,0,0,0,.93.31H44.82Z"/></g><path class="cls-3" d="M83.75,46.29a3,3,0,0,1,0-.66c0-.54.61-1.7,0-2s-.9-2.12-.9-2.12l.19-.75a10.93,10.93,0,0,0,.32,1.64A11.57,11.57,0,0,0,84.61,44l-.19.86,0,1.1.49-.06-.24-.31.12-1.3L85.43,46v.31H83.75Z"/><path class="cls-3" d="M46.26,42.8a.87.87,0,0,1,0-.29c0-.23.26-.74,0-.87s-.39-.93-.39-.93l.08-.32a4.71,4.71,0,0,0,.14.71,5.18,5.18,0,0,0,.55.7l-.09.37v.48l.22,0-.11-.13.06-.57.28.74v.14h-.72Z"/><path class="cls-3" d="M47.07,42.39a.87.87,0,0,1,0-.29c0-.23.26-.74,0-.88s-.39-.92-.39-.92l.08-.32a4.71,4.71,0,0,0,.14.71,5.92,5.92,0,0,0,.55.7l-.08.37,0,.48.22,0-.11-.14.06-.56.28.74v.14h-.72Z"/><path class="cls-3" d="M44.65,42.35a1.63,1.63,0,0,1,0-.28c0-.24.26-.74,0-.88s-.39-.93-.39-.93l.08-.32a4.71,4.71,0,0,0,.14.71,5.18,5.18,0,0,0,.55.7l-.08.37v.48l.21,0L45,42l.06-.56.29.74v.13h-.73Z"/><path class="cls-3" d="M23.05,41.2a1.08,1.08,0,0,0,0-.32c0-.26-.29-.82,0-1s.43-1,.43-1l-.09-.36a6.25,6.25,0,0,1-.15.79,6.43,6.43,0,0,1-.61.77l.09.42,0,.53-.24,0,.12-.15-.07-.63-.32.82v.16h.81Z"/><path class="cls-5" d="M18.9,45.24l-.12-.14a6.54,6.54,0,0,0-.78-.88c-.3-.26.45.13.45.13a.8.8,0,0,1-.52-.59c-.13-.48.48.26.48.26s.56.58.49.15A4.93,4.93,0,0,0,18.41,43l.49.45.2,1.08s-.07-.17.16-.42a1.27,1.27,0,0,1,.53-.32l.13-.34-.28.66-.15.86-.06.25"/><path class="cls-3" d="M19.85,45.7a1.08,1.08,0,0,0,0-.32c0-.26-.29-.82,0-1s.43-1,.43-1L20.2,43a4.83,4.83,0,0,1-.15.79,6.43,6.43,0,0,1-.61.77l.09.42,0,.53-.24,0,.12-.15-.06-.63-.32.83v.15h.8Z"/><path class="cls-5" d="M18.84,43.42l-.11-.14A7.41,7.41,0,0,0,18,42.4c-.31-.26.44.12.44.12a.8.8,0,0,1-.52-.58c-.13-.49.49.25.49.25s.55.59.48.16a4.93,4.93,0,0,0-.49-1.15l.49.45.2,1.08s-.07-.18.16-.42a1.16,1.16,0,0,1,.53-.32l.13-.34-.28.66-.15.85-.05.26"/><path class="cls-3" d="M19.8,43.88a2.25,2.25,0,0,0,0-.32c0-.26-.3-.83,0-1s.44-1,.44-1l-.09-.36A5.14,5.14,0,0,1,20,42a5.55,5.55,0,0,1-.61.77l.1.42v.53l-.24,0,.12-.15-.06-.63-.32.82v.16h.81Z"/><path class="cls-5" d="M21.07,45.74,21,45.6a7.41,7.41,0,0,0-.78-.88c-.31-.26.45.13.45.13a.83.83,0,0,1-.52-.59c-.13-.49.48.25.48.25s.56.59.48.16a4.52,4.52,0,0,0-.49-1.15l.49.45.21,1.08s-.08-.17.15-.42a1.28,1.28,0,0,1,.54-.32l.12-.34-.28.66-.15.85-.05.26"/><path class="cls-3" d="M22,46.2a2.15,2.15,0,0,0,0-.32c0-.26-.29-.82,0-1s.44-1,.44-1l-.09-.36a6.25,6.25,0,0,1-.15.79,6.43,6.43,0,0,1-.61.77l.09.42V46l-.23,0,.11-.15-.06-.63-.32.83v.15H22Z"/><path class="cls-5" d="M21.22,48.79l-.11-.15a9.42,9.42,0,0,0-.78-.88c-.31-.25.44.13.44.13a.82.82,0,0,1-.52-.59c-.13-.48.49.26.49.26s.55.59.48.15a4.7,4.7,0,0,0-.49-1.15l.49.45.21,1.09s-.08-.18.15-.42a1.16,1.16,0,0,1,.54-.32l.12-.35-.28.67-.15.85,0,.26"/><path class="cls-3" d="M22.18,49.24a2.15,2.15,0,0,0,0-.32c0-.26-.29-.82,0-1s.44-1,.44-1l-.09-.36a4.92,4.92,0,0,1-.16.79,5.24,5.24,0,0,1-.6.78l.09.41v.54l-.24,0,.12-.16-.06-.62-.32.82v.15h.81Z"/><path class="cls-5" d="M15.14,44.07,15,43.92a7.22,7.22,0,0,0-.78-.88c-.3-.25.45.13.45.13a.8.8,0,0,1-.52-.59c-.13-.48.48.26.48.26s.56.59.49.15a5.15,5.15,0,0,0-.49-1.15l.49.45.2,1.08s-.07-.17.16-.42a1.27,1.27,0,0,1,.53-.32l.13-.34-.28.66-.15.86-.06.26"/><path class="cls-3" d="M16.09,44.52a1.08,1.08,0,0,0,0-.32c0-.26-.29-.82,0-1s.43-1,.43-1l-.09-.36a4.83,4.83,0,0,1-.15.79,5.92,5.92,0,0,1-.61.78l.09.41,0,.53-.24,0,.12-.15-.06-.62-.32.82v.15h.8Z"/><path class="cls-5" d="M11.58,43.84l-.12-.14a6.56,6.56,0,0,0-.77-.88c-.31-.26.44.12.44.12a.8.8,0,0,1-.52-.58c-.13-.49.48.25.48.25s.56.59.49.15a5,5,0,0,0-.49-1.14l.49.45.2,1.08s-.07-.18.16-.42a1.16,1.16,0,0,1,.53-.32l.13-.34-.28.66-.15.85-.05.26"/><path class="cls-3" d="M12.53,44.29a1.08,1.08,0,0,0,0-.32c0-.25-.29-.82,0-1S13,42,13,42l-.09-.35a4.57,4.57,0,0,1-.15.78,5.18,5.18,0,0,1-.61.78l.09.41,0,.54-.24,0,.12-.16-.06-.62-.32.82v.15h.8Z"/><path class="cls-5" d="M14.4,42a1,1,0,0,1-.11-.14,7.41,7.41,0,0,0-.78-.88c-.31-.26.44.13.44.13a.83.83,0,0,1-.52-.59c-.13-.49.49.25.49.25s.55.59.48.16a4.93,4.93,0,0,0-.49-1.15l.49.45.2,1.08s-.07-.18.16-.42a1.27,1.27,0,0,1,.53-.32l.13-.34-.28.66-.15.85-.05.26"/><path class="cls-3" d="M15.35,42.5a1.08,1.08,0,0,0,0-.32c0-.26-.29-.82,0-1s.44-1,.44-1l-.09-.36a5.14,5.14,0,0,1-.16.79,5.55,5.55,0,0,1-.61.77l.1.42v.53l-.24,0,.12-.15-.06-.63-.32.82v.16h.8Z"/><path class="cls-3" d="M13.59,43.26a7.4,7.4,0,0,0,.5-3.2c-.28-1.12-.22,3.81-.22,3.81l.55.72V43.48l.26,1.11.58.22.46.76L14.65,41l1.7,5.68,1.35-.12-.41-4.29,1.12,5.63"/><path class="cls-3" d="M12.29,43a7.36,7.36,0,0,0,.51-3.2c-.28-1.11-.23,3.81-.23,3.81l.56.73V43.21l.25,1.12.58.21.46.76-1.07-4.57,1.71,5.69,1.34-.13L16,42l1.11,5.64"/><g class="cls-2"><path class="cls-3" d="M19.75,45.15l-.18-.24a13.68,13.68,0,0,0-1.28-1.44c-.51-.42.73.21.73.21a1.32,1.32,0,0,1-.85-1c-.22-.8.79.41.79.41s.91,1,.79.26A7.73,7.73,0,0,0,19,41.5l.8.74L20.09,44s-.13-.28.25-.68a2,2,0,0,1,.88-.53l.21-.56L21,43.33l-.25,1.4-.09.42"/></g><g class="cls-2"><path class="cls-3" d="M19.07,43.12l-.18-.24a12.75,12.75,0,0,0-1.28-1.44c-.51-.42.73.21.73.21a1.32,1.32,0,0,1-.85-1c-.22-.79.79.42.79.42s.91,1,.79.25a7.79,7.79,0,0,0-.8-1.88l.8.74L19.41,42s-.13-.29.25-.69a2,2,0,0,1,.88-.52l.21-.56-.46,1.08L20,42.69l-.09.43"/></g><g class="cls-2"><path class="cls-3" d="M16,43s-.07-.1-.19-.24a11.77,11.77,0,0,0-1.27-1.44c-.51-.42.73.21.73.21a1.32,1.32,0,0,1-.85-1c-.22-.79.79.42.79.42s.91,1,.79.25a7.79,7.79,0,0,0-.8-1.88l.8.74.34,1.77s-.13-.29.25-.69a2,2,0,0,1,.88-.52l.21-.56-.46,1.08L17,42.54l-.09.43"/></g><path class="cls-5" d="M19.12,43.52,19,43.37a9.42,9.42,0,0,0-.78-.88c-.31-.25.44.13.44.13a.8.8,0,0,1-.51-.59c-.14-.48.48.26.48.26s.56.58.48.15a4.7,4.7,0,0,0-.49-1.15l.49.45.21,1.08s-.08-.17.15-.42a1.28,1.28,0,0,1,.54-.32l.12-.34-.28.66-.15.86-.05.26"/><path class="cls-3" d="M20.08,44a2.15,2.15,0,0,0,0-.32c0-.26-.29-.82,0-1s.44-1,.44-1l-.09-.36a5.14,5.14,0,0,1-.16.79,5.24,5.24,0,0,1-.6.78l.09.41v.53l-.24,0,.12-.15L19.59,43l-.32.82V44h.81Z"/><path class="cls-5" d="M15.56,43.29l-.11-.15a9.42,9.42,0,0,0-.78-.88c-.31-.25.44.13.44.13a.8.8,0,0,1-.51-.58c-.14-.49.48.25.48.25s.56.59.48.15a4.7,4.7,0,0,0-.49-1.15l.49.45.21,1.09s-.08-.18.15-.42a1.16,1.16,0,0,1,.54-.32l.12-.35-.28.67-.15.85,0,.26"/><path class="cls-3" d="M16.52,43.74a2.15,2.15,0,0,0,0-.32c0-.25-.29-.82,0-1s.44-1,.44-1l-.09-.36a4.92,4.92,0,0,1-.16.79,5.24,5.24,0,0,1-.6.78l.09.41v.54l-.24,0,.12-.16L16,42.77l-.32.82v.15h.81Z"/><path class="cls-3" d="M16.27,42.44a7.36,7.36,0,0,0,.51-3.2c-.28-1.11-.22,3.81-.22,3.81l.55.73V42.66l.25,1.12L18,44l.45.76-1.06-4.57L19,45.87l1.35-.13L20,41.45l1.12,5.64"/><g class="cls-2"><path class="cls-3" d="M23.33,44.94l-.18-.24a12.75,12.75,0,0,0-1.28-1.45c-.5-.41.73.21.73.21a1.31,1.31,0,0,1-.85-1c-.21-.79.79.42.79.42s.92,1,.79.25a7.79,7.79,0,0,0-.8-1.88l.8.73.34,1.78s-.12-.29.25-.69a2.07,2.07,0,0,1,.88-.53L25,42l-.46,1.09-.25,1.4-.08.43"/></g><g class="cls-2"><path class="cls-3" d="M22.65,42.9l-.18-.24a13.56,13.56,0,0,0-1.28-1.44c-.5-.42.73.21.73.21a1.34,1.34,0,0,1-.85-1c-.21-.8.79.42.79.42s.92,1,.79.25a7.93,7.93,0,0,0-.8-1.89l.8.74L23,41.77s-.12-.29.25-.69a2.07,2.07,0,0,1,.88-.53l.21-.56-.46,1.09-.25,1.4-.08.42"/></g><g class="cls-2"><path class="cls-3" d="M19.62,42.75l-.18-.23a12.75,12.75,0,0,0-1.28-1.45c-.5-.42.73.21.73.21a1.32,1.32,0,0,1-.85-1c-.21-.8.79.42.79.42s.92,1,.79.25a7.93,7.93,0,0,0-.8-1.89l.8.74L20,41.62s-.12-.29.25-.69a2.07,2.07,0,0,1,.88-.53l.21-.56-.46,1.09-.25,1.4-.08.42"/></g><path class="cls-5" d="M22.7,43.3l-.11-.14a6,6,0,0,0-.78-.88c-.3-.26.45.12.45.12a.8.8,0,0,1-.52-.58c-.13-.49.48.25.48.25s.56.59.48.16a4.62,4.62,0,0,0-.48-1.15l.48.45.21,1.08s-.08-.18.15-.42a1.28,1.28,0,0,1,.54-.32l.13-.34-.28.66-.16.85-.05.26"/><path class="cls-3" d="M23.66,43.76a1.08,1.08,0,0,0,0-.32c0-.26-.29-.83,0-1s.43-1,.43-1L24,41.08a6.25,6.25,0,0,1-.15.79,6.43,6.43,0,0,1-.61.77l.09.42,0,.53-.24,0,.11-.15-.06-.63-.32.82v.16h.81Z"/><path class="cls-5" d="M19.14,43.08,19,42.93a6.54,6.54,0,0,0-.78-.88c-.3-.26.45.13.45.13a.8.8,0,0,1-.52-.59c-.13-.48.48.26.48.26s.56.58.48.15a4.81,4.81,0,0,0-.48-1.15l.48.45.21,1.08s-.08-.17.15-.42a1.28,1.28,0,0,1,.54-.32l.13-.34-.28.66-.16.86-.05.26"/><path class="cls-3" d="M20.1,43.53a1.08,1.08,0,0,0,0-.32c0-.26-.29-.82,0-1s.43-1,.43-1l-.09-.36a6.25,6.25,0,0,1-.15.79,6.43,6.43,0,0,1-.61.77l.09.42,0,.53-.24,0,.11-.15-.06-.62-.32.82v.15h.81Z"/><g class="cls-2"><path class="cls-3" d="M27.5,43.56l-.17-.21a11,11,0,0,0-1.14-1.3c-.46-.38.65.19.65.19a1.18,1.18,0,0,1-.76-.87c-.2-.71.71.38.71.38s.82.87.71.23a7.19,7.19,0,0,0-.72-1.7l.72.66.3,1.6s-.11-.26.23-.62a1.8,1.8,0,0,1,.79-.47l.19-.51-.41,1-.23,1.26-.08.38"/></g><g class="cls-2"><path class="cls-3" d="M26.89,41.73l-.17-.21a11,11,0,0,0-1.15-1.3c-.45-.37.66.19.66.19a1.18,1.18,0,0,1-.76-.86c-.2-.72.71.37.71.37s.82.87.71.23a7.19,7.19,0,0,0-.72-1.7l.72.67.3,1.59s-.11-.26.23-.62a1.8,1.8,0,0,1,.79-.47l.19-.5-.42,1-.22,1.26-.08.38"/></g><g class="cls-2"><path class="cls-3" d="M24.16,41.6,24,41.39a10.27,10.27,0,0,0-1.15-1.3c-.45-.38.66.19.66.19a1.19,1.19,0,0,1-.77-.87c-.19-.71.71.38.71.38s.82.86.71.22a7,7,0,0,0-.72-1.69l.72.66.31,1.6s-.11-.26.22-.62a1.8,1.8,0,0,1,.79-.47l.19-.51-.41,1L25,41.22,25,41.6"/></g><path class="cls-5" d="M26.93,42.09a1,1,0,0,0-.1-.13,6.59,6.59,0,0,0-.7-.79c-.27-.23.4.12.4.12a.73.73,0,0,1-.46-.53c-.12-.44.43.23.43.23s.5.53.43.14a4.24,4.24,0,0,0-.43-1l.43.41.19,1s-.07-.16.14-.38a1.08,1.08,0,0,1,.48-.29l.11-.3-.25.59-.14.77,0,.23"/><path class="cls-3" d="M27.79,42.5a.87.87,0,0,0,0-.29c0-.23-.26-.73,0-.87s.39-.92.39-.92l-.08-.33a4.71,4.71,0,0,1-.14.71,5.27,5.27,0,0,1-.54.7l.08.37v.48l-.21,0,.1-.13-.05-.56-.29.74v.13h.72Z"/><path class="cls-5" d="M23.73,41.89a1,1,0,0,0-.1-.13,6.59,6.59,0,0,0-.7-.79c-.27-.23.4.11.4.11a.71.71,0,0,1-.46-.53c-.12-.43.43.23.43.23s.5.53.43.14a4.11,4.11,0,0,0-.43-1l.43.4.19,1s-.07-.16.14-.38a1.08,1.08,0,0,1,.48-.29l.11-.31-.25.6-.14.77,0,.23"/><path class="cls-3" d="M24.59,42.3a.91.91,0,0,0,0-.29c0-.23-.26-.74,0-.88s.39-.92.39-.92l-.08-.32a4.71,4.71,0,0,1-.14.71,5,5,0,0,1-.55.69l.09.38v.48l-.21,0,.1-.14-.05-.56-.29.74v.14h.72Z"/><g class="cls-2"><path class="cls-3" d="M31.08,44.24,30.92,44a12,12,0,0,0-1.15-1.3c-.45-.37.66.19.66.19a1.19,1.19,0,0,1-.77-.87c-.19-.71.71.38.71.38s.82.87.71.23a7.19,7.19,0,0,0-.72-1.7l.72.67.31,1.59s-.12-.26.22-.62a1.8,1.8,0,0,1,.79-.47l.19-.5-.41,1L32,43.86l-.07.38"/></g><g class="cls-2"><path class="cls-3" d="M30.47,42.42l-.16-.22a13.17,13.17,0,0,0-1.15-1.3c-.46-.37.65.19.65.19a1.18,1.18,0,0,1-.76-.86c-.2-.72.71.37.71.37s.82.87.71.23a7.19,7.19,0,0,0-.72-1.7l.72.67.3,1.59s-.11-.25.23-.62a1.8,1.8,0,0,1,.79-.47l.19-.5-.41,1L31.34,42l-.08.39"/></g><g class="cls-2"><path class="cls-3" d="M27.75,42.28l-.17-.21a10.27,10.27,0,0,0-1.15-1.3c-.45-.38.66.19.66.19a1.2,1.2,0,0,1-.77-.87c-.19-.71.71.38.71.38s.83.86.72.22A7,7,0,0,0,27,39l.72.66.3,1.6s-.11-.26.23-.62a1.8,1.8,0,0,1,.79-.47l.19-.51-.42,1-.22,1.26-.08.38"/></g><path class="cls-5" d="M30.52,42.77l-.1-.13a6.67,6.67,0,0,0-.71-.79c-.27-.23.41.12.41.12a.73.73,0,0,1-.47-.53c-.12-.44.43.23.43.23s.5.53.44.14a4.56,4.56,0,0,0-.44-1l.44.41.18,1s-.07-.16.14-.38a1.05,1.05,0,0,1,.48-.28l.12-.31-.26.59-.13.77-.05.23"/><path class="cls-3" d="M31.38,43.18a1.63,1.63,0,0,0,0-.28c0-.24-.26-.74,0-.88s.39-.92.39-.92l-.08-.33a4.49,4.49,0,0,1-.14.71,4.54,4.54,0,0,1-.54.7l.08.37V43l-.21,0,.1-.14,0-.56-.29.74v.13h.73Z"/><path class="cls-5" d="M27.32,42.57l-.11-.13a6.59,6.59,0,0,0-.7-.79c-.27-.23.41.11.41.11a.72.72,0,0,1-.47-.52c-.12-.44.43.23.43.23s.5.52.44.13a4.41,4.41,0,0,0-.44-1l.44.4.18,1s-.07-.16.14-.38a1.13,1.13,0,0,1,.48-.29l.12-.31-.26.6-.13.77-.05.23"/><path class="cls-3" d="M28.18,43a1.82,1.82,0,0,0,0-.29c0-.23-.27-.74,0-.87s.39-.93.39-.93l-.08-.32a4.71,4.71,0,0,1-.14.71,4.54,4.54,0,0,1-.54.7l.08.37v.48l-.21,0,.1-.14-.05-.56-.29.74V43h.73Z"/><g class="cls-2"><path class="cls-3" d="M34.27,43l-.17-.21A11,11,0,0,0,33,41.53c-.45-.37.66.19.66.19a1.2,1.2,0,0,1-.77-.86c-.19-.72.72.37.72.37s.82.87.71.23a7.19,7.19,0,0,0-.72-1.7l.72.67.3,1.59s-.11-.26.23-.62a1.8,1.8,0,0,1,.79-.47l.19-.5-.42,1-.22,1.26-.08.38"/></g><g class="cls-2"><path class="cls-3" d="M31.54,42.91l-.16-.21a11.12,11.12,0,0,0-1.15-1.3c-.45-.38.65.19.65.19a1.18,1.18,0,0,1-.76-.87c-.19-.71.71.38.71.38s.82.86.71.22a7,7,0,0,0-.72-1.69l.72.66.31,1.6s-.12-.26.22-.62a1.8,1.8,0,0,1,.79-.47l.19-.51-.41,1-.23,1.26-.07.38"/></g><path class="cls-5" d="M34.31,43.4l-.1-.13a7.59,7.59,0,0,0-.7-.79c-.27-.23.4.12.4.12a.75.75,0,0,1-.47-.53c-.11-.44.44.23.44.23s.5.53.43.14a4.13,4.13,0,0,0-.44-1l.44.41.19,1s-.07-.16.14-.38a1.08,1.08,0,0,1,.48-.29l.11-.3L35,42.4l-.14.77,0,.23"/><path class="cls-3" d="M35.17,43.81a.87.87,0,0,0,0-.29c0-.23-.26-.73,0-.87s.39-.92.39-.92l-.08-.33a4.71,4.71,0,0,1-.14.71,5.18,5.18,0,0,1-.55.7l.09.37v.48l-.22,0,.11-.13-.06-.56-.28.73v.14h.72Z"/><path class="cls-5" d="M31.11,43.2l-.1-.13a6.69,6.69,0,0,0-.7-.79c-.28-.23.4.11.4.11a.73.73,0,0,1-.47-.53c-.11-.43.44.23.44.23s.5.53.43.14a4.41,4.41,0,0,0-.44-1l.44.4.19,1s-.07-.16.14-.38a1.08,1.08,0,0,1,.48-.29L32,41.6l-.25.6-.14.77,0,.23"/><path class="cls-3" d="M32,43.61a.91.91,0,0,0,0-.29c0-.23-.26-.74,0-.88s.39-.92.39-.92l-.08-.32a4.71,4.71,0,0,1-.14.71,5,5,0,0,1-.55.69l.08.38,0,.48-.22,0,.11-.14-.06-.56-.28.74v.14H32Z"/><g class="cls-2"><path class="cls-3" d="M34.26,43.3l-.17-.21a11,11,0,0,0-1.15-1.3c-.45-.38.66.19.66.19a1.2,1.2,0,0,1-.77-.87c-.19-.71.71.38.71.38s.83.87.72.23a7.19,7.19,0,0,0-.72-1.7l.72.66.3,1.6s-.11-.26.23-.62a1.75,1.75,0,0,1,.79-.47l.18-.51-.41,1-.23,1.26-.07.38"/></g><path class="cls-5" d="M33.83,43.59l-.11-.13a6.59,6.59,0,0,0-.7-.79c-.27-.23.4.12.4.12a.75.75,0,0,1-.46-.53c-.12-.44.43.23.43.23s.5.52.44.13a4.41,4.41,0,0,0-.44-1l.44.41L34,43s-.07-.16.14-.38a1.13,1.13,0,0,1,.48-.29l.12-.3-.26.59-.13.77,0,.23"/><g class="cls-2"><path class="cls-3" d="M62.66,45.94l-.16-.21a12,12,0,0,0-1.15-1.3c-.45-.37.66.19.66.19a1.19,1.19,0,0,1-.77-.87c-.19-.71.71.38.71.38s.82.87.71.23a7.19,7.19,0,0,0-.72-1.7l.72.67L63,44.92s-.12-.26.22-.62a1.8,1.8,0,0,1,.79-.47l.19-.5-.41,1-.23,1.26-.07.38"/></g><g class="cls-2"><path class="cls-3" d="M48.9,43.07l-.16-.22a12,12,0,0,0-1.15-1.3c-.45-.37.66.19.66.19a1.18,1.18,0,0,1-.77-.86c-.19-.72.71.37.71.37s.82.87.71.23a7,7,0,0,0-.72-1.69l.72.66L49.21,42s-.12-.25.22-.61a1.88,1.88,0,0,1,.79-.48l.19-.5-.41,1-.23,1.25-.07.39"/></g><g class="cls-2"><path class="cls-3" d="M48.52,41.6l-.13-.16a8.51,8.51,0,0,0-.84-.95c-.33-.27.48.14.48.14a.87.87,0,0,1-.56-.63c-.14-.53.52.27.52.27s.61.64.53.17A5.72,5.72,0,0,0,48,39.19l.53.49.22,1.17s-.08-.19.16-.45a1.3,1.3,0,0,1,.58-.35l.14-.37-.3.72-.17.92,0,.28"/></g><g class="cls-2"><path class="cls-3" d="M66.2,44.08,66,43.87a11,11,0,0,0-1.14-1.3c-.46-.38.65.19.65.19a1.18,1.18,0,0,1-.76-.87c-.2-.71.71.38.71.38s.82.86.71.22a7,7,0,0,0-.72-1.69l.72.66.3,1.6s-.11-.26.23-.62a1.8,1.8,0,0,1,.79-.47l.19-.51-.41,1-.23,1.26-.08.38"/></g><g class="cls-2"><path class="cls-3" d="M65.59,42.25,65.42,42a11,11,0,0,0-1.15-1.3c-.45-.37.66.19.66.19a1.18,1.18,0,0,1-.76-.87c-.2-.71.71.38.71.38s.82.87.71.23a7.19,7.19,0,0,0-.72-1.7l.72.67.3,1.59s-.11-.26.23-.62a1.8,1.8,0,0,1,.79-.47l.19-.5-.42,1-.22,1.26-.08.38"/></g><g class="cls-2"><path class="cls-3" d="M62.86,42.12s-.06-.09-.16-.21a10.27,10.27,0,0,0-1.15-1.3c-.45-.38.66.19.66.19a1.19,1.19,0,0,1-.77-.87c-.19-.72.71.38.71.38s.82.86.71.22a7,7,0,0,0-.72-1.69l.72.66.31,1.6s-.11-.26.22-.62a1.88,1.88,0,0,1,.79-.48l.19-.5-.41,1-.23,1.26-.07.38"/></g><path class="cls-5" d="M65.63,42.61a1,1,0,0,0-.1-.13,6.59,6.59,0,0,0-.7-.79c-.27-.23.4.12.4.12a.73.73,0,0,1-.46-.53c-.12-.44.43.23.43.23s.5.53.43.13a4.11,4.11,0,0,0-.43-1l.43.41.19,1s-.07-.16.14-.38a1.08,1.08,0,0,1,.48-.29l.11-.3-.25.59-.14.77,0,.23"/><path class="cls-3" d="M66.49,43a.87.87,0,0,0,0-.29c0-.23-.26-.74,0-.87s.39-.93.39-.93l-.08-.32a4.71,4.71,0,0,1-.14.71,5.27,5.27,0,0,1-.54.7l.08.37v.48l-.21,0,.1-.13,0-.56-.29.73V43h.72Z"/><path class="cls-5" d="M62.43,42.41a1,1,0,0,0-.1-.13,5.9,5.9,0,0,0-.7-.79c-.27-.23.4.11.4.11a.71.71,0,0,1-.46-.53c-.12-.43.43.23.43.23s.5.53.43.14a4,4,0,0,0-.44-1l.44.4.19,1s-.07-.16.14-.38a1.08,1.08,0,0,1,.48-.29l.11-.31-.25.6-.14.77,0,.23"/><path class="cls-3" d="M63.29,42.82a.91.91,0,0,0,0-.29c0-.23-.26-.74,0-.88s.39-.92.39-.92l-.08-.32a4.71,4.71,0,0,1-.14.71,5.66,5.66,0,0,1-.55.69l.09.38v.48l-.21,0,.1-.14,0-.56-.29.74v.14h.72Z"/><path class="cls-3" d="M63.07,41.65a6.64,6.64,0,0,0,.46-2.88c-.25-1-.2,3.43-.2,3.43l.5.65v-1l.23,1,.52.19.41.68-1-4.1,1.53,5.11,1.21-.12-.36-3.85,1,5.06"/><g class="cls-2"><path class="cls-3" d="M67,46l-.17-.21a11,11,0,0,0-1.15-1.3c-.45-.37.66.19.66.19a1.18,1.18,0,0,1-.76-.87c-.2-.71.71.38.71.38s.82.87.71.23a7.19,7.19,0,0,0-.72-1.7l.72.67.3,1.59s-.11-.26.23-.62a1.8,1.8,0,0,1,.79-.47l.19-.5-.42,1-.22,1.26-.08.38"/></g><g class="cls-2"><path class="cls-3" d="M66.4,44.46l-.16-.22A11.88,11.88,0,0,0,65.09,43c-.45-.38.66.18.66.18a1.18,1.18,0,0,1-.77-.86c-.19-.72.71.37.71.37s.82.87.71.23a7,7,0,0,0-.72-1.69l.72.66.31,1.6s-.12-.26.22-.62a1.88,1.88,0,0,1,.79-.48l.19-.5-.41,1-.23,1.26-.07.38"/></g><g class="cls-2"><path class="cls-3" d="M62.86,44.05l-.16-.21a10.27,10.27,0,0,0-1.15-1.3c-.45-.38.66.19.66.19a1.19,1.19,0,0,1-.77-.87c-.19-.71.71.38.71.38s.82.86.71.22a7,7,0,0,0-.72-1.69l.72.66.31,1.6s-.11-.26.22-.62a1.8,1.8,0,0,1,.79-.47l.19-.51-.41,1-.23,1.26-.07.38"/></g><path class="cls-5" d="M64.12,45.75l-.1-.13a6.69,6.69,0,0,0-.7-.79c-.28-.23.4.11.4.11a.73.73,0,0,1-.47-.53c-.11-.43.44.23.44.23s.5.53.43.14a4.41,4.41,0,0,0-.44-1l.44.4.19,1s-.07-.16.13-.38a1.14,1.14,0,0,1,.49-.29l.11-.31-.25.6-.14.77-.05.23"/><path class="cls-5" d="M46.59,42.76l-.1-.13a7.59,7.59,0,0,0-.7-.79c-.28-.23.4.12.4.12a.75.75,0,0,1-.47-.53c-.12-.44.43.23.43.23s.51.53.44.14a4.56,4.56,0,0,0-.44-1l.44.41.18,1s-.07-.16.14-.38a1.13,1.13,0,0,1,.48-.29l.12-.3-.25.59-.14.77,0,.23"/><path class="cls-3" d="M65.34,44.5a1.73,1.73,0,0,0,0-.29c0-.23-.26-.73,0-.87s.39-.92.39-.92l-.08-.33a4.71,4.71,0,0,1-.14.71,4.54,4.54,0,0,1-.54.7l.08.37v.48l-.21,0,.1-.13,0-.56-.29.73v.14h.73Z"/><path class="cls-5" d="M62.43,44.34a1,1,0,0,0-.1-.13,6.59,6.59,0,0,0-.7-.79c-.27-.23.4.11.4.11a.7.7,0,0,1-.46-.52c-.12-.44.43.23.43.23s.5.52.43.13a4,4,0,0,0-.44-1l.44.4.19,1s-.07-.16.14-.38a1.08,1.08,0,0,1,.48-.29l.11-.31-.25.6-.14.77,0,.23"/><path class="cls-3" d="M61.81,44.81a1.63,1.63,0,0,0,0-.28c0-.24-.26-.74,0-.88s.39-.92.39-.92l-.08-.33a4.49,4.49,0,0,1-.14.71,5.18,5.18,0,0,1-.55.7l.08.37,0,.48-.22,0,.11-.14-.06-.56-.29.74v.13h.73Z"/><g class="cls-2"><path class="cls-3" d="M70.4,44.08l-.16-.21a10.27,10.27,0,0,0-1.15-1.3c-.45-.38.66.19.66.19a1.19,1.19,0,0,1-.77-.87c-.19-.71.71.38.71.38s.82.86.71.22a7,7,0,0,0-.72-1.69l.72.66.31,1.6s-.11-.26.22-.62a1.8,1.8,0,0,1,.8-.47l.18-.51-.41,1-.23,1.26-.07.38"/></g><g class="cls-2"><path class="cls-3" d="M69.79,42.25,69.63,42a12,12,0,0,0-1.15-1.3c-.45-.37.66.19.66.19a1.19,1.19,0,0,1-.77-.87c-.19-.71.71.38.71.38s.82.87.71.23a7.19,7.19,0,0,0-.72-1.7l.72.67.31,1.59s-.12-.26.22-.62a1.8,1.8,0,0,1,.79-.47l.19-.5-.41,1-.23,1.26-.07.38"/></g><g class="cls-2"><path class="cls-3" d="M67.07,42.12l-.17-.21a10.27,10.27,0,0,0-1.15-1.3c-.45-.38.66.19.66.19a1.18,1.18,0,0,1-.76-.87c-.2-.72.71.38.71.38s.82.86.71.22a7,7,0,0,0-.72-1.69l.72.66.3,1.6s-.11-.26.23-.62a1.88,1.88,0,0,1,.79-.48l.19-.5-.42,1-.22,1.26-.08.38"/></g><path class="cls-5" d="M69.84,42.61l-.1-.13a7.59,7.59,0,0,0-.7-.79c-.28-.23.4.12.4.12a.75.75,0,0,1-.47-.53c-.12-.44.43.23.43.23s.51.53.44.13a4.41,4.41,0,0,0-.44-1l.44.41L70,42s-.06-.16.14-.38a1.13,1.13,0,0,1,.48-.29l.12-.3-.25.59-.14.77-.05.23"/><path class="cls-3" d="M70.7,43a1.73,1.73,0,0,0,0-.29c0-.23-.26-.74,0-.87s.4-.93.4-.93L71,40.61a5.91,5.91,0,0,1-.13.71,5.18,5.18,0,0,1-.55.7l.08.37v.48l-.21,0,.11-.13-.06-.56-.29.73V43h.73Z"/><path class="cls-5" d="M67.54,43l-.1-.13a6.8,6.8,0,0,0-.7-.8c-.28-.22.4.12.4.12a.73.73,0,0,1-.47-.53c-.12-.43.44.23.44.23s.5.53.43.14a4.41,4.41,0,0,0-.44-1l.44.4.18,1s-.06-.15.14-.37a1.13,1.13,0,0,1,.48-.29l.12-.31-.25.6-.14.76L68,43"/><path class="cls-3" d="M69.16,42.69a.91.91,0,0,0,0-.29c0-.23-.26-.74,0-.88s.39-.92.39-.92l-.08-.32a4.71,4.71,0,0,1-.14.71,5.66,5.66,0,0,1-.55.69l.09.38v.48l-.22,0,.11-.14,0-.56-.29.74v.14h.72Z"/><g class="cls-2"><path class="cls-3" d="M75.55,43.71l-.17-.22a11,11,0,0,0-1.15-1.3c-.45-.37.66.19.66.19a1.18,1.18,0,0,1-.77-.86c-.19-.72.71.37.71.37s.83.87.72.23a7.65,7.65,0,0,0-.72-1.7l.72.67.3,1.59s-.11-.25.22-.62a1.8,1.8,0,0,1,.8-.47l.18-.5-.41,1-.23,1.26-.07.39"/></g><g class="cls-2"><path class="cls-3" d="M84.9,47l-.16-.21a11.12,11.12,0,0,0-1.15-1.3c-.46-.38.65.19.65.19a1.18,1.18,0,0,1-.76-.87c-.19-.71.71.38.71.38s.82.86.71.22a7,7,0,0,0-.72-1.69l.72.66.3,1.6s-.11-.26.23-.62a1.8,1.8,0,0,1,.79-.47l.19-.51-.41,1-.23,1.26L85.7,47"/></g><g class="cls-2"><path class="cls-3" d="M74.93,41.88l-.16-.22a11.88,11.88,0,0,0-1.15-1.29c-.45-.38.66.18.66.18a1.18,1.18,0,0,1-.77-.86c-.19-.72.71.37.71.37s.82.87.71.23a7,7,0,0,0-.72-1.69l.72.66.31,1.6s-.12-.26.22-.62a1.88,1.88,0,0,1,.79-.48l.19-.5-.41,1L75.8,41.5l-.07.38"/></g><g class="cls-2"><path class="cls-3" d="M72.21,41.74,72,41.53a11,11,0,0,0-1.15-1.3c-.45-.37.66.19.66.19a1.18,1.18,0,0,1-.76-.87c-.2-.71.71.38.71.38s.82.87.71.23a7.19,7.19,0,0,0-.72-1.7l.72.67.3,1.59s-.11-.26.23-.62a1.8,1.8,0,0,1,.79-.47l.19-.5-.42,1-.22,1.26-.08.38"/></g><path class="cls-5" d="M75,42.24l-.1-.13a6,6,0,0,0-.7-.79c-.28-.23.4.11.4.11a.73.73,0,0,1-.47-.53c-.12-.43.44.23.44.23s.5.53.43.14a4.41,4.41,0,0,0-.44-1l.44.4.18,1s-.06-.15.14-.37a1.13,1.13,0,0,1,.48-.29l.12-.31-.25.6-.14.76-.05.24"/><path class="cls-3" d="M75.84,42.65a1.82,1.82,0,0,0,0-.29c0-.23-.26-.74,0-.88s.39-.92.39-.92l-.09-.32A5.91,5.91,0,0,1,76,41a5.66,5.66,0,0,1-.55.69l.08.38,0,.47-.22,0,.11-.14-.06-.56-.29.74v.14h.73Z"/><path class="cls-5" d="M71.78,42l-.1-.13a7.59,7.59,0,0,0-.7-.79c-.28-.23.4.12.4.12a.75.75,0,0,1-.47-.53c-.12-.44.43.23.43.23s.51.53.44.14a4.35,4.35,0,0,0-.44-1l.44.41.18,1s-.07-.16.14-.38a1.13,1.13,0,0,1,.48-.29l.12-.3-.25.59-.14.77,0,.23"/><path class="cls-3" d="M72.64,42.44a1.73,1.73,0,0,0,0-.29c0-.23-.26-.74,0-.87s.4-.93.4-.93L73,40a5.91,5.91,0,0,1-.13.71,5.18,5.18,0,0,1-.55.7l.08.37v.48l-.21,0,.11-.13-.06-.56-.29.73v.14h.73Z"/><path class="cls-3" d="M73.59,41.51A6.69,6.69,0,0,0,74,38.63c-.25-1-.2,3.43-.2,3.43l.5.65v-1l.23,1,.52.19.41.69-1-4.11,1.53,5.11,1.21-.11-.36-3.86,1,5.07"/><g class="cls-2"><path class="cls-3" d="M77.4,45.45l-.16-.21a11.12,11.12,0,0,0-1.15-1.3c-.45-.38.66.19.66.19a1.19,1.19,0,0,1-.77-.87c-.19-.72.71.38.71.38s.82.86.71.22a7,7,0,0,0-.72-1.69l.72.66.31,1.6s-.11-.26.22-.62a1.8,1.8,0,0,1,.79-.47l.19-.51-.41,1-.23,1.26-.07.38"/></g><g class="cls-2"><path class="cls-3" d="M80.74,47.41l-.17-.21a11,11,0,0,0-1.14-1.3c-.46-.38.65.19.65.19a1.18,1.18,0,0,1-.76-.87c-.2-.71.71.38.71.38s.82.86.71.22A7,7,0,0,0,80,44.13l.72.66.3,1.6s-.11-.26.23-.62a1.8,1.8,0,0,1,.79-.47l.19-.51-.42,1L81.61,47l-.08.38"/></g><g class="cls-2"><path class="cls-3" d="M80.13,45.58,80,45.37a11,11,0,0,0-1.15-1.3c-.45-.37.66.19.66.19a1.18,1.18,0,0,1-.76-.87c-.2-.71.71.38.71.38s.82.87.71.23a7.19,7.19,0,0,0-.72-1.7l.72.67.3,1.59s-.11-.26.23-.62a1.8,1.8,0,0,1,.79-.47l.19-.5-.42,1L81,45.2l-.08.38"/></g><path class="cls-5" d="M80.17,45.94a1,1,0,0,0-.1-.13,6.59,6.59,0,0,0-.7-.79c-.27-.23.4.12.4.12a.73.73,0,0,1-.46-.53c-.12-.44.43.23.43.23s.5.53.43.14a4.06,4.06,0,0,0-.43-1l.43.41.19,1s-.07-.16.14-.38a1.08,1.08,0,0,1,.48-.29l.11-.3-.25.59-.14.77,0,.23"/><path class="cls-3" d="M81,46.35a.87.87,0,0,0,0-.29c0-.23-.26-.74,0-.87s.39-.93.39-.93l-.08-.32a4.71,4.71,0,0,1-.14.71,5.18,5.18,0,0,1-.55.7l.09.37v.48l-.21,0,.1-.13-.05-.56-.29.73v.14H81Z"/><g class="cls-2"><path class="cls-3" d="M79.64,46.29l.17-.21A11,11,0,0,1,81,44.78c.45-.37-.66.19-.66.19a1.18,1.18,0,0,0,.76-.86c.2-.72-.71.37-.71.37s-.82.87-.71.23a7.19,7.19,0,0,1,.72-1.7l-.72.67-.3,1.59s.11-.26-.23-.62a1.8,1.8,0,0,0-.79-.47l-.19-.5.42,1,.22,1.26.08.38"/></g><path class="cls-5" d="M79.59,46.65l.11-.13a6.59,6.59,0,0,1,.7-.79c.27-.23-.4.12-.4.12a.72.72,0,0,0,.46-.53c.12-.44-.43.23-.43.23s-.5.53-.44.14a4.56,4.56,0,0,1,.44-1l-.44.41-.18,1s.07-.16-.14-.38a1.05,1.05,0,0,0-.48-.28l-.12-.31.26.59.13.77,0,.23"/><path class="cls-3" d="M78.73,47.06a1.73,1.73,0,0,1,0-.29c0-.23.27-.73,0-.87s-.39-.92-.39-.92l.08-.33a4.49,4.49,0,0,0,.14.71,5.27,5.27,0,0,0,.54.7l-.08.37v.48l.21,0-.1-.14,0-.56.29.74v.13h-.73Z"/><g class="cls-2"><path class="cls-3" d="M73.05,44.64l.17-.21a10.27,10.27,0,0,1,1.15-1.3c.45-.38-.66.19-.66.19a1.2,1.2,0,0,0,.77-.87c.19-.72-.72.38-.72.38s-.82.86-.71.22a7,7,0,0,1,.72-1.69l-.72.66-.3,1.6s.11-.26-.23-.62a1.8,1.8,0,0,0-.79-.47L71.54,42,72,43l.22,1.26.08.38"/></g><g class="cls-2"><path class="cls-3" d="M73.66,42.81l.17-.21A10.27,10.27,0,0,1,75,41.3c.45-.38-.66.19-.66.19a1.2,1.2,0,0,0,.77-.87c.19-.71-.71.38-.71.38s-.83.86-.72.22a7,7,0,0,1,.72-1.69l-.72.66-.3,1.6s.11-.26-.23-.62a1.8,1.8,0,0,0-.79-.47l-.19-.51.42,1,.22,1.26.08.38"/></g><path class="cls-5" d="M73.62,43.17l.1-.13a7.59,7.59,0,0,1,.7-.79c.28-.23-.4.11-.4.11a.72.72,0,0,0,.47-.52c.11-.44-.44.23-.44.23s-.5.52-.43.13a4.41,4.41,0,0,1,.44-1l-.44.4-.19,1s.07-.16-.14-.38a1.08,1.08,0,0,0-.48-.29l-.11-.31.25.6.14.77,0,.23"/><path class="cls-3" d="M72.76,43.58a.91.91,0,0,1,0-.29c0-.23.26-.74,0-.87s-.39-.93-.39-.93l.08-.32a4.71,4.71,0,0,0,.14.71,5.18,5.18,0,0,0,.55.7l-.08.37,0,.48.22,0-.11-.14.06-.56.28.74v.14h-.72Z"/><g class="cls-2"><path class="cls-3" d="M69.07,46.29l.16-.21a12,12,0,0,1,1.15-1.3c.45-.38-.66.19-.66.19a1.19,1.19,0,0,0,.77-.87c.19-.71-.71.38-.71.38s-.82.87-.71.23a7.19,7.19,0,0,1,.72-1.7l-.72.66-.31,1.6s.12-.26-.22-.62a1.8,1.8,0,0,0-.79-.47l-.19-.51.41,1,.23,1.26.07.38"/></g><g class="cls-2"><path class="cls-3" d="M69.68,44.46l.16-.21A12,12,0,0,1,71,43c.46-.37-.65.19-.65.19a1.18,1.18,0,0,0,.76-.86c.19-.72-.71.37-.71.37s-.82.87-.71.23a7.19,7.19,0,0,1,.72-1.7l-.72.67-.3,1.59s.11-.26-.23-.62a1.8,1.8,0,0,0-.79-.47l-.19-.5.41,1,.23,1.26.07.38"/></g><path class="cls-5" d="M69.63,44.82l.1-.13a7.59,7.59,0,0,1,.7-.79c.28-.23-.4.12-.4.12a.73.73,0,0,0,.47-.53c.12-.44-.43.23-.43.23s-.5.53-.44.14a4.56,4.56,0,0,1,.44-1l-.44.41-.18,1s.07-.16-.14-.38a1.13,1.13,0,0,0-.48-.29l-.12-.3.26.59.13.77.05.23"/><path class="cls-3" d="M68.77,45.23a1.73,1.73,0,0,1,0-.29c0-.23.26-.73,0-.87s-.39-.92-.39-.92l.08-.33a4.71,4.71,0,0,0,.14.71,4.54,4.54,0,0,0,.54.7l-.08.37v.48l.21,0-.1-.13,0-.56.29.74v.13h-.73Z"/><g class="cls-2"><path class="cls-3" d="M81.83,48l.17-.21a11,11,0,0,1,1.15-1.3c.45-.37-.66.19-.66.19a1.18,1.18,0,0,0,.76-.87c.2-.71-.71.38-.71.38s-.82.87-.71.23a7.19,7.19,0,0,1,.72-1.7l-.72.67L81.53,47s.11-.26-.23-.62a1.8,1.8,0,0,0-.79-.47l-.19-.5.42,1L81,47.62,81,48"/></g><g class="cls-2"><path class="cls-3" d="M82.44,46.18l.17-.22a11,11,0,0,1,1.15-1.3c.45-.37-.66.19-.66.19a1.2,1.2,0,0,0,.77-.86c.19-.72-.72.37-.72.37s-.82.87-.71.23a7.19,7.19,0,0,1,.72-1.7l-.72.67-.3,1.59s.11-.25-.23-.61a1.76,1.76,0,0,0-.79-.48l-.19-.5.42,1,.22,1.25.08.39"/></g><path class="cls-5" d="M82.4,46.53l.1-.13a6.59,6.59,0,0,1,.7-.79c.27-.23-.4.12-.4.12a.71.71,0,0,0,.46-.53c.12-.44-.43.23-.43.23s-.5.53-.43.14a4.13,4.13,0,0,1,.44-1l-.44.41-.19,1s.07-.16-.14-.38a1,1,0,0,0-.48-.28l-.11-.31.25.59.14.77,0,.23"/><path class="cls-3" d="M81.54,46.94a.82.82,0,0,1,0-.28c0-.24.26-.74,0-.88s-.39-.92-.39-.92l.08-.33a4.49,4.49,0,0,0,.14.71,5.18,5.18,0,0,0,.55.7l-.09.37v.48l.21,0-.1-.14,0-.56.29.74v.13h-.72Z"/><g class="cls-2"><path class="cls-3" d="M83.67,48.63l.17-.21A10.27,10.27,0,0,1,85,47.12c.45-.38-.66.19-.66.19a1.2,1.2,0,0,0,.77-.87c.19-.71-.72.38-.72.38s-.82.86-.71.22a7,7,0,0,1,.72-1.69l-.72.66-.3,1.6s.11-.26-.23-.62a1.8,1.8,0,0,0-.79-.47L82.16,46l.42,1,.22,1.26.08.38"/></g><g class="cls-2"><path class="cls-3" d="M84.28,46.8l.17-.21a11,11,0,0,1,1.15-1.3c.45-.37-.66.19-.66.19a1.2,1.2,0,0,0,.77-.87C85.9,43.9,85,45,85,45s-.83.87-.72.23a7.19,7.19,0,0,1,.72-1.7l-.72.67L84,45.78s.11-.26-.23-.62a1.75,1.75,0,0,0-.79-.47l-.18-.5.41,1,.23,1.26.07.38"/></g><path class="cls-5" d="M84.24,47.16l.1-.13a7.59,7.59,0,0,1,.7-.79c.28-.23-.4.12-.4.12a.75.75,0,0,0,.47-.53c.11-.44-.44.23-.44.23s-.5.53-.43.13a4.41,4.41,0,0,1,.44-1l-.44.41-.19,1s.07-.16-.13-.38a1.14,1.14,0,0,0-.49-.29l-.11-.3.25.59.14.77,0,.23"/><path class="cls-3" d="M83.38,47.57a1.73,1.73,0,0,1,0-.29c0-.23.26-.74,0-.87s-.39-.93-.39-.93l.08-.32a4.71,4.71,0,0,0,.14.71,5.18,5.18,0,0,0,.55.7l-.08.37,0,.48.22,0-.11-.13.06-.56.28.73v.14h-.72Z"/><g class="cls-2"><path class="cls-3" d="M81.36,49.62l.16-.22a11.88,11.88,0,0,1,1.15-1.29c.45-.38-.65.18-.65.18a1.18,1.18,0,0,0,.76-.86c.19-.72-.71.37-.71.37s-.82.87-.71.23a7,7,0,0,1,.72-1.69l-.72.66-.31,1.59s.12-.25-.22-.61A1.88,1.88,0,0,0,80,47.5l-.19-.5.41,1,.23,1.25.07.39"/></g><g class="cls-2"><path class="cls-3" d="M82,47.79a2.7,2.7,0,0,1,.17-.22,11.8,11.8,0,0,1,1.14-1.29c.46-.38-.65.19-.65.19a1.21,1.21,0,0,0,.76-.87c.2-.72-.71.38-.71.38s-.82.86-.71.22a7,7,0,0,1,.72-1.69l-.72.66-.3,1.6s.11-.26-.23-.62a1.88,1.88,0,0,0-.79-.48l-.19-.5.41,1,.23,1.26.08.38"/></g><path class="cls-5" d="M81.92,48.15,82,48a5.9,5.9,0,0,1,.7-.79c.27-.23-.41.11-.41.11a.73.73,0,0,0,.47-.53c.12-.43-.43.23-.43.23s-.5.53-.44.14a4.41,4.41,0,0,1,.44-1l-.44.4-.18,1s.07-.15-.14-.37a1.13,1.13,0,0,0-.48-.29L81,46.55l.26.6.13.77,0,.23"/><path class="cls-3" d="M81.06,48.56a1.82,1.82,0,0,1,0-.29c0-.23.27-.74,0-.88s-.39-.92-.39-.92l.08-.32a4.71,4.71,0,0,0,.14.71,4.9,4.9,0,0,0,.54.69l-.08.38v.48l.21,0-.1-.14,0-.56.29.74v.14h-.73Z"/><g class="cls-2"><path class="cls-3" d="M86.84,46.61l.17-.22a11,11,0,0,1,1.15-1.3c.45-.37-.66.19-.66.19a1.2,1.2,0,0,0,.77-.86c.19-.72-.71.37-.71.37s-.83.87-.72.23a7.19,7.19,0,0,1,.72-1.7l-.72.67-.3,1.59s.11-.25-.23-.62a1.8,1.8,0,0,0-.79-.47l-.19-.5.42,1L86,46.22l.08.39"/></g><g class="cls-2"><path class="cls-3" d="M87.46,44.78l.16-.22a10.91,10.91,0,0,1,1.15-1.29c.45-.38-.66.18-.66.18a1.18,1.18,0,0,0,.77-.86c.19-.72-.71.37-.71.37s-.83.87-.71.23a7,7,0,0,1,.72-1.69l-.72.66-.31,1.6s.11-.26-.22-.62a1.88,1.88,0,0,0-.8-.48l-.18-.5.41,1,.23,1.26.07.38"/></g><path class="cls-5" d="M87.41,45.14l.1-.13a6.8,6.8,0,0,1,.7-.8c.28-.22-.4.12-.4.12a.73.73,0,0,0,.47-.53c.12-.43-.44.23-.44.23s-.5.53-.43.14a4.41,4.41,0,0,1,.44-1l-.44.4-.19,1s.07-.15-.13-.37a1.14,1.14,0,0,0-.49-.29l-.11-.31.25.6.14.76.05.24"/><path class="cls-3" d="M86.55,45.54a1.63,1.63,0,0,1,0-.28c0-.24.26-.74,0-.88s-.39-.92-.39-.92l.08-.32a4.71,4.71,0,0,0,.14.71,5.66,5.66,0,0,0,.55.69l-.08.38,0,.47.22,0-.11-.14.06-.56.28.74v.13h-.72Z"/><g class="cls-2"><path class="cls-3" d="M87.83,43.93l-.14-.18a9.24,9.24,0,0,0-1-1.14c-.4-.33.57.16.57.16a1,1,0,0,1-.67-.75c-.17-.63.63.33.63.33s.72.75.62.19a6.35,6.35,0,0,0-.63-1.48l.63.58L88.1,43s-.1-.23.2-.54a1.54,1.54,0,0,1,.69-.42l.16-.44-.36.86-.2,1.1-.06.33"/></g><path class="cls-5" d="M88.24,42.91l-.08-.11a5.16,5.16,0,0,0-.62-.69c-.24-.21.35.1.35.1a.65.65,0,0,1-.41-.47c-.1-.38.38.2.38.2s.44.47.38.13a3.42,3.42,0,0,0-.38-.91l.38.35.17.86s-.06-.14.12-.33a.93.93,0,0,1,.42-.26l.1-.27-.22.53-.12.67,0,.2"/><path class="cls-5" d="M89.68,43.61a.64.64,0,0,0-.09-.11,5.89,5.89,0,0,0-.61-.7c-.24-.2.35.1.35.1a.63.63,0,0,1-.41-.46c-.1-.38.38.2.38.2s.44.46.38.12a4,4,0,0,0-.38-.91l.38.36.16.85s-.06-.14.12-.33a1,1,0,0,1,.43-.25l.1-.27-.22.52-.12.68,0,.2"/><path class="cls-3" d="M88.09,43a1.26,1.26,0,0,0,0-.25c0-.2-.23-.65,0-.77s.35-.8.35-.8l-.07-.29a4.33,4.33,0,0,1-.13.62,3.9,3.9,0,0,1-.47.62l.07.32v.42l-.19,0,.09-.12,0-.49-.26.64V43h.64Z"/><path class="cls-3" d="M11,43a7.36,7.36,0,0,0,.51-3.2c-.28-1.11-.22,3.81-.22,3.81l.55.73V43.21l.26,1.12.58.21.46.76L12,40.73l1.7,5.69,1.35-.13L14.68,42l1.12,5.64"/><g class="cls-2"><path class="cls-3" d="M27,44.55l.19-.24a13.48,13.48,0,0,1,1.27-1.44c.51-.42-.73.21-.73.21a1.32,1.32,0,0,0,.85-1c.22-.8-.79.42-.79.42s-.91,1-.79.25a7.93,7.93,0,0,1,.8-1.89l-.8.74-.34,1.78s.13-.29-.25-.69a2.07,2.07,0,0,0-.88-.53l-.21-.56.46,1.09.25,1.4.09.42"/></g><path class="cls-5" d="M28.81,43.3a1,1,0,0,0,.11-.14,7.41,7.41,0,0,1,.78-.88c.31-.26-.44.12-.44.12a.8.8,0,0,0,.52-.58c.13-.49-.49.25-.49.25s-.55.59-.48.16a4.93,4.93,0,0,1,.49-1.15l-.49.45-.2,1.08s.07-.18-.16-.42a1.27,1.27,0,0,0-.53-.32l-.13-.34.28.66.15.85.05.26"/><path class="cls-3" d="M31.41,43.53a2.15,2.15,0,0,1,0-.32c0-.26.3-.82,0-1s-.44-1-.44-1l.09-.36a5.14,5.14,0,0,0,.16.79,5.55,5.55,0,0,0,.61.77l-.1.42v.53l.24,0-.12-.15.06-.62.32.82v.15h-.81Z"/><path class="cls-5" d="M24.2,42.57l.1-.13a7.59,7.59,0,0,1,.7-.79c.28-.23-.4.11-.4.11a.72.72,0,0,0,.47-.52c.12-.44-.44.23-.44.23s-.5.52-.43.13a4.41,4.41,0,0,1,.44-1l-.44.4L24,42s.07-.16-.13-.38a1.14,1.14,0,0,0-.49-.29L23.28,41l.25.6.14.77,0,.23"/><g class="cls-2"><path class="cls-3" d="M20,42.91l.17-.21a10.27,10.27,0,0,1,1.15-1.3c.45-.38-.66.19-.66.19a1.2,1.2,0,0,0,.77-.87c.19-.71-.72.38-.72.38s-.82.86-.71.22a7,7,0,0,1,.72-1.69l-.72.66-.3,1.6s.11-.26-.23-.62a1.8,1.8,0,0,0-.79-.47l-.19-.51.42,1,.22,1.26.08.38"/></g><path class="cls-3" d="M16.83,44a1.73,1.73,0,0,1,0-.29c0-.23.26-.74,0-.87s-.39-.93-.39-.93l.09-.32a4.39,4.39,0,0,0,.13.71,5.18,5.18,0,0,0,.55.7l-.08.37,0,.48.22,0-.11-.13.06-.57.29.74V44h-.73Z"/><g class="cls-2"><path class="cls-3" d="M14.51,44l.17-.21a11.91,11.91,0,0,1,1.14-1.3c.46-.37-.65.19-.65.19a1.18,1.18,0,0,0,.76-.87c.2-.71-.71.38-.71.38s-.82.87-.71.23a7.19,7.19,0,0,1,.72-1.7l-.72.67L14.21,43s.11-.26-.23-.62a1.8,1.8,0,0,0-.79-.47l-.19-.5.42,1,.22,1.26.08.38"/></g><path class="cls-3" d="M11.41,42.54a7.36,7.36,0,0,0,.51-3.2c-.28-1.12-.22,3.81-.22,3.81l.55.72V42.76l.25,1.11.59.22.45.76-1.06-4.57L14.18,46l1.34-.13-.4-4.29,1.12,5.64"/><g class="cls-2"><path class="cls-3" d="M55,36.39s0,.22-.39-.33a1.48,1.48,0,0,0-1.39-.53c-.46,0-.15-.49-.15-.49s3.52,0,3.79,0a3.69,3.69,0,0,0,1.23-.19c.39-.14.53,0,.51,0a14.82,14.82,0,0,1-2.17,1.23,7.59,7.59,0,0,0-1.21.51"/></g><path class="cls-9" d="M51,59.43c-12.69,0-24.64-2.91-33.66-8.21C8,45.75,2.89,38.36,2.89,30.43S8,15.11,17.36,9.64c9-5.3,21-8.21,33.66-8.21S75.66,4.34,84.68,9.64C94,15.11,99.14,22.49,99.14,30.43S94,45.75,84.68,51.22C75.66,56.52,63.7,59.43,51,59.43Zm0-57.3c-12.56,0-24.39,2.88-33.3,8.11C8.61,15.59,3.6,22.75,3.6,30.43s5,14.84,14.12,20.19c8.91,5.23,20.74,8.11,33.3,8.11s24.39-2.88,33.3-8.11c9.11-5.35,14.12-12.52,14.12-20.19s-5-14.84-14.12-20.19C75.41,5,63.58,2.13,51,2.13Z"/><path class="cls-10" d="M84.68,37.57a16.9,16.9,0,0,1-.19,1.68,5.82,5.82,0,0,0,.28,2h7.56a1,1,0,0,0,0-.23,4.65,4.65,0,0,0,.92-.46,4.45,4.45,0,0,0-1.11-.29,4.6,4.6,0,0,1-1.65-1.08,3.38,3.38,0,0,0-2-.78A4.6,4.6,0,0,1,87.43,38c-.45-.18-1-1.28-1.32-1.91a1.7,1.7,0,0,0-1.59-.87,1,1,0,0,0-.84.48.66.66,0,0,1-.26.35c-.2.12-.37.59-.37.59a.75.75,0,0,1,.64-.06A3.33,3.33,0,0,1,84.68,37.57Z"/><g class="cls-11"><path class="cls-12" d="M83.51,36l.25-.06s-.14.25-.07.26.44.12.32.15-.25.12-.25.17v.1a.53.53,0,0,0-.47-.06l-.24.09s.17-.37.21-.42l0-.05Z"/></g><path class="cls-9" d="M84.63,36a.21.21,0,0,1-.24-.15.2.2,0,0,1,.15-.24.19.19,0,0,1,.23.15A.2.2,0,0,1,84.63,36Zm-.07-.31a.11.11,0,0,0-.09.14.12.12,0,0,0,.14.09.13.13,0,0,0,.09-.14A.11.11,0,0,0,84.56,35.72Z"/><path class="cls-13" d="M85.77,35.62l.34.45a1.52,1.52,0,0,1-.23-.11,2.47,2.47,0,0,0-.84-.17c-.18,0,.08.15.15.22a6.93,6.93,0,0,1,.34,1s-.22.1-.28.18a1.69,1.69,0,0,0-.18.43c0,.12-.39.17-.39.17a.81.81,0,0,0,0-.18,2.76,2.76,0,0,0-.51-.64l-.41-.34v-.1a.2.2,0,0,1,.13-.13l.12,0-.07-.07-.11,0-.08,0-.06,0,0-.07.09-.19-.18,0a1.56,1.56,0,0,1,.21-.41,1.15,1.15,0,0,1,.45-.3,1.68,1.68,0,0,1,.8,0A2.7,2.7,0,0,1,85.77,35.62Z"/><g class="cls-11"><path class="cls-15" d="M85.6,35.87,86.22,37c.12.24.68,1.07,1,1.16a4.57,4.57,0,0,0,1.17.33c.2-.05.19-.16.19-.16A5.05,5.05,0,0,1,87.43,38a3.69,3.69,0,0,1-.67-.71l-.27-.5-.38-.7Z"/></g><path class="cls-18" d="M88.82,40.73s0,.11,0,.1,0-.1,0-.27a8.39,8.39,0,0,0-.12-1.2c0-.07-.14-.34-.07-.29A5,5,0,0,1,89,40.42,1.12,1.12,0,0,1,88.82,40.73Z"/><ellipse class="cls-14" cx="84.52" cy="35.92" rx="0.25" ry="0.18" transform="translate(-5.9 19.82) rotate(-12.93)"/><path class="cls-14" d="M83.7,36.25h0a.08.08,0,0,1,0-.1l0-.13h-.06A.08.08,0,0,1,83.5,36a.09.09,0,0,1,.06-.1l.31-.07-.11.39A.09.09,0,0,1,83.7,36.25Z"/><g class="cls-11"><path class="cls-22" d="M83.14,36.52a1.2,1.2,0,0,1,.34-.12,1.19,1.19,0,0,0,.29,0c.06,0,0,.1,0,.1v.1l-.16-.07-.12,0-.19,0-.14,0-.1,0,.12-.26Z"/></g><g class="cls-33"><path class="cls-17" d="M88.3,41.2l.77-.07.44.07h2v-.05l0-.28-.24-.55L90.91,40l-.38-.25-.59-.25-.42-.29L89.4,39l-.31-.19-.29-.12-.23-.18-.25-.15-.23-.08L87.43,38l-.18-.11-.71-.34a1.68,1.68,0,0,0,.26,1.53C87.22,39.67,88,40.72,88.3,41.2Z"/></g><path class="cls-14" d="M89,38.75l.09,0a.94.94,0,0,1,.43.42c.08.19,1,.54,1,.54s.81.45,1,.87a3.61,3.61,0,0,1,.11.6h.74l0-.23.35-.15.57-.31a2.72,2.72,0,0,0-.66-.18,3.53,3.53,0,0,1-1-.32,5.91,5.91,0,0,1-1-.76,4.61,4.61,0,0,0-1.08-.68,6.74,6.74,0,0,0-1-.1C88.47,38.51,89,38.75,89,38.75Z"/><path class="cls-18" d="M89.56,41.2h.16a4.56,4.56,0,0,0-.3-.42c-.11-.13.08.36.08.36A.28.28,0,0,1,89.56,41.2Z"/><path class="cls-18" d="M90.06,41.2h.27a2.08,2.08,0,0,0-.36-.91c-.24-.18-1.28-1.38-1.28-1.38s1,1.54,1.11,1.78S90,41,90.06,41.2Z"/><path class="cls-18" d="M90.31,40.31a3.15,3.15,0,0,1,.33.89h.11c0-.06,0-.12,0-.2a1.82,1.82,0,0,0-.53-1.12c-.49-.42-1.12-.85-1.12-.85A14.19,14.19,0,0,1,90.31,40.31Z"/><path class="cls-18" d="M90.9,41.2h.17a2.44,2.44,0,0,0-.39-.42.79.79,0,0,0,.19.37Z"/><path class="cls-18" d="M91.18,41.2h.11a1.09,1.09,0,0,0,0-.13,2.59,2.59,0,0,0-.45-.77C90.59,40,90.5,40,90.5,40a5.89,5.89,0,0,1,.62.87C91.13,41,91.15,41.08,91.18,41.2Z"/><g class="cls-2"><path class="cls-3" d="M87.29,42.33l-.14-.19a9.92,9.92,0,0,0-1-1.13c-.39-.33.58.16.58.16a1,1,0,0,1-.67-.76c-.17-.63.62.33.62.33s.72.76.62.2a6.06,6.06,0,0,0-.63-1.49l.63.59.27,1.4s-.1-.23.2-.55a1.64,1.64,0,0,1,.69-.41l.17-.44-.37.85L88.06,42l-.07.33"/></g><path class="cls-5" d="M87.33,42.65l-.08-.12a6.78,6.78,0,0,0-.62-.69c-.24-.2.35.1.35.1a.65.65,0,0,1-.41-.46c-.1-.39.38.2.38.2s.44.46.38.12a3.59,3.59,0,0,0-.38-.91l.38.36.17.85s-.06-.14.12-.33a1,1,0,0,1,.42-.25l.1-.27-.22.52-.12.67,0,.21"/><path class="cls-5" d="M84.53,42.47l-.09-.12a6.78,6.78,0,0,0-.62-.69c-.24-.2.36.1.36.1a.63.63,0,0,1-.41-.46c-.11-.39.38.2.38.2s.44.46.38.12a3.9,3.9,0,0,0-.39-.91l.39.36.16.85s-.06-.14.12-.33a1,1,0,0,1,.42-.25l.1-.27-.22.52-.12.67,0,.21"/><path class="cls-3" d="M85.28,42.83a1.43,1.43,0,0,0,0-.26c0-.2-.23-.64,0-.76s.34-.81.34-.81l-.07-.29a4.29,4.29,0,0,1-.12.63A5,5,0,0,1,85,42l.07.32v.42l-.19,0,.1-.12,0-.49-.25.65v.12h.63Z"/><g class="cls-2"><path class="cls-3" d="M84.91,42.21,84.76,42a9.24,9.24,0,0,0-1-1.14c-.39-.33.58.16.58.16a1,1,0,0,1-.67-.76c-.17-.62.62.33.62.33s.72.76.63.2a6.23,6.23,0,0,0-.64-1.48l.64.58.26,1.4s-.1-.23.2-.54a1.6,1.6,0,0,1,.69-.42l.17-.44-.36.86-.2,1.1-.07.33"/></g><path class="cls-5" d="M91.32,41.74a.59.59,0,0,0-.07-.1,5.13,5.13,0,0,0-.54-.6c-.21-.17.31.09.31.09a.55.55,0,0,1-.36-.4c-.09-.34.33.17.33.17s.39.4.33.11a3.29,3.29,0,0,0-.33-.79l.33.31.15.74s-.06-.12.1-.29a.83.83,0,0,1,.37-.22l.09-.23-.2.45-.1.59,0,.17"/><path class="cls-5" d="M92,41.6l-.08-.1a6.27,6.27,0,0,0-.53-.61c-.21-.17.3.09.3.09a.55.55,0,0,1-.35-.4c-.09-.33.33.17.33.17s.38.41.33.11a3.18,3.18,0,0,0-.34-.79l.34.31.14.74s0-.12.1-.29a1,1,0,0,1,.37-.22l.09-.23-.19.45-.11.59,0,.18"/><path class="cls-9" d="M27.33,49.22l.32-.18.4.15,1.07-1.73-.22-.11a1.28,1.28,0,0,0-1,0,1.3,1.3,0,0,0-.7.77l0,0-.75.08c.58-1.24,1.72-1.55,3.4-.91l.18.06-1.25,2,2,.75.56-.9a3,3,0,0,1,1.32-1.23A1.88,1.88,0,0,1,34.14,48a1.79,1.79,0,0,1,.51.29l-.46.38a1.09,1.09,0,0,0-.5-.52.68.68,0,0,0-.66.08,2.85,2.85,0,0,0-.73.85l-1.44,2.24a6.83,6.83,0,0,0-.55,1c-.09.22,0,.38.24.47a3.92,3.92,0,0,0,.47.13l-.12.19-1.76-.33,1.45-2.31-2-.76-.22.36A2.93,2.93,0,0,1,27,51.24a2.22,2.22,0,0,1-1.66,0,1.54,1.54,0,0,1-.87-.75l.63-.3a1.05,1.05,0,0,0,.71.88c.57.22,1.13-.1,1.66-1l.45-.72Z"/><path class="cls-9" d="M34.48,53.09l-.15.3a2,2,0,0,1-1.53.42.45.45,0,0,1-.34-.64,3.93,3.93,0,0,1,.23-.54l.56-1.1a4.6,4.6,0,0,0,.27-.64c0-.18,0-.3-.14-.34a2.61,2.61,0,0,0-.57,0l.1-.2,1.79-.08-.56,1-.78,1.57a3,3,0,0,0-.22.47c0,.15,0,.24.14.27S33.9,53.46,34.48,53.09Zm-.32-3.62.36-.39,1.11-.36-.46.54Z"/><path class="cls-9" d="M35,54.36l.45-1,.66-1.62a3.23,3.23,0,0,0,.18-.5.19.19,0,0,0-.16-.25c-.22,0-.61.15-1.16.56l.12-.3a2.05,2.05,0,0,1,1.5-.55.46.46,0,0,1,.39.61,3.64,3.64,0,0,1-.19.56l-.33.81h.05a5.4,5.4,0,0,1,1.22-1.22,1.42,1.42,0,0,1,1.06-.34.47.47,0,0,1,.35.25.65.65,0,0,1,.06.48,1.74,1.74,0,0,1-.15.46l-.32.8h0a4.87,4.87,0,0,1,1.16-1.22,1.47,1.47,0,0,1,1-.36.57.57,0,0,1,.48.76,2.3,2.3,0,0,1-.14.46l-.66,1.6a2.83,2.83,0,0,0-.17.5.18.18,0,0,0,.16.25c.22,0,.61-.14,1.16-.55l-.13.3a2,2,0,0,1-1.49.54.45.45,0,0,1-.4-.61,3.28,3.28,0,0,1,.2-.56l.65-1.6a1.51,1.51,0,0,0,.11-.32c0-.18,0-.29-.16-.32-.39-.08-1.1.5-2.11,1.72l-.5,1.18-.67-.09,1.06-2.6a2.1,2.1,0,0,0,.1-.32q.06-.28-.15-.33c-.17,0-.46.12-.87.46a9,9,0,0,0-1.26,1.28l-.48,1.16Z"/><path class="cls-9" d="M42.45,55.69l.35-1L43.28,53a2.31,2.31,0,0,0,.12-.51.19.19,0,0,0-.18-.24c-.23,0-.59.21-1.1.68l.09-.31a2.06,2.06,0,0,1,1.43-.71q.49,0,.45.57A4,4,0,0,1,44,53l-.24.84h0a5.77,5.77,0,0,1,1.09-1.35,1.42,1.42,0,0,1,1-.45.49.49,0,0,1,.38.21.77.77,0,0,1,.12.48,2.66,2.66,0,0,1-.1.47l-.24.83h0a5,5,0,0,1,1-1.34,1.46,1.46,0,0,1,1-.47c.41,0,.59.27.56.71a2.1,2.1,0,0,1-.1.47l-.47,1.66a3.66,3.66,0,0,0-.13.51c0,.15.05.23.19.24s.59-.21,1.1-.68l-.09.32a2.08,2.08,0,0,1-1.43.7.45.45,0,0,1-.46-.56,3.19,3.19,0,0,1,.13-.58l.48-1.66A1.63,1.63,0,0,0,48,53c0-.19,0-.3-.19-.31-.4,0-1,.61-1.92,1.94l-.36,1.23-.68,0,.77-2.7a1.63,1.63,0,0,0,.07-.33c0-.19,0-.3-.18-.31s-.45.17-.82.55a9.12,9.12,0,0,0-1.11,1.41l-.36,1.21Z"/><path class="cls-9" d="M52.79,55.19l0,.27a3.57,3.57,0,0,1-1.9.75,1,1,0,0,1-.79-.35,1.25,1.25,0,0,1-.3-.9,2.71,2.71,0,0,1,.77-1.83,2.11,2.11,0,0,1,1.61-.85.66.66,0,0,1,.5.21.81.81,0,0,1,.18.55,1.35,1.35,0,0,1-.69,1.13,2.77,2.77,0,0,1-1.63.47v.15c0,.68.24,1,.74,1A2.88,2.88,0,0,0,52.79,55.19Zm-2.29-.77A2.23,2.23,0,0,0,51.72,54a1.08,1.08,0,0,0,.44-.88c0-.35-.12-.53-.38-.53a1,1,0,0,0-.81.54A2.65,2.65,0,0,0,50.5,54.42Z"/><path class="cls-9" d="M55.77,54.94l-.05.32a2.23,2.23,0,0,1-1.38.89q-.5,0-.51-.51a2.83,2.83,0,0,1,.05-.59l.38-2.41a3.78,3.78,0,0,1,.87-2,2.3,2.3,0,0,1,1.66-.77,2.52,2.52,0,0,1,.63,0l-.46.52a1.55,1.55,0,0,0-.7-.16.93.93,0,0,0-.81.43A4.38,4.38,0,0,0,55,52.27L54.56,55a4.7,4.7,0,0,0-.06.52q0,.23.21.21c.16,0,.45-.22.88-.65Z"/><path class="cls-9" d="M56.55,56l.17-1.09.2-1.72a2.32,2.32,0,0,0,0-.45c0-.2-.09-.29-.23-.28s-.57.31-1,.87l0-.31c.49-.62.93-1,1.32-1s.51.15.55.53a3.79,3.79,0,0,1,0,.57l-.1.84h0a4.91,4.91,0,0,1,.85-1.5,1.6,1.6,0,0,1,1-.63.91.91,0,0,1,.44.07l-.41.67a.63.63,0,0,0-.35-.11c-.46,0-1,.75-1.64,2.13l-.15,1.28Z"/><path class="cls-9" d="M63.31,54.22v.27a3.51,3.51,0,0,1-1.76,1,1,1,0,0,1-.84-.23,1.31,1.31,0,0,1-.43-.84,2.75,2.75,0,0,1,.49-1.93,2.12,2.12,0,0,1,1.46-1.08.65.65,0,0,1,.53.14.76.76,0,0,1,.26.5,1.37,1.37,0,0,1-.51,1.23A2.71,2.71,0,0,1,61,54v.16c.1.67.39,1,.88.9A2.9,2.9,0,0,0,63.31,54.22Zm-2.38-.42a2.26,2.26,0,0,0,1.15-.56,1.06,1.06,0,0,0,.31-.93q-.07-.53-.45-.48c-.28,0-.52.26-.73.67A2.72,2.72,0,0,0,60.93,53.8Z"/><path class="cls-9" d="M66.53,53.5v.32c-.4.63-.79,1-1.19,1.06s-.52-.07-.59-.42a3.89,3.89,0,0,1,0-.59V52.64a4.88,4.88,0,0,0,0-.69c0-.19-.13-.27-.28-.24a2.36,2.36,0,0,0-.53.22v-.22l1.57-.86,0,1.14v1.75a3.53,3.53,0,0,0,0,.52c0,.15.11.21.25.18S66.17,54.08,66.53,53.5Zm-1.89-3.11.14-.51.84-.81-.17.68Z"/><path class="cls-9" d="M69.9,52.76V53a3.68,3.68,0,0,1-1.63,1.2,1,1,0,0,1-.87-.14,1.31,1.31,0,0,1-.51-.8,2.73,2.73,0,0,1,.3-2,2.23,2.23,0,0,1,1.43-1.22,1.88,1.88,0,0,1,.82,0V51l-.21,0v0a1.09,1.09,0,0,0,0-.24c-.07-.31-.32-.42-.74-.31a1.18,1.18,0,0,0-.83.88,3.11,3.11,0,0,0,0,1.69c.15.61.46.85.91.74A2.79,2.79,0,0,0,69.9,52.76Z"/><path class="cls-9" d="M71.09,53.46,71,52.37l-.29-2.43A3.82,3.82,0,0,1,71,47.78a2.31,2.31,0,0,1,1.39-1.19,2.42,2.42,0,0,1,.62-.12l-.3.62a1.79,1.79,0,0,0-.72,0,1,1,0,0,0-.67.64,4.63,4.63,0,0,0,0,1.61l.23,1.91,0,0a5,5,0,0,1,.49-1.66,1.5,1.5,0,0,1,.8-.83c.36-.12.61,0,.74.42a2.58,2.58,0,0,1,.1.5l.2,1.71a3.53,3.53,0,0,0,.09.52.19.19,0,0,0,.26.15q.33-.11.75-1l0,.33a2.09,2.09,0,0,1-1,1.2.46.46,0,0,1-.64-.35,2.68,2.68,0,0,1-.11-.58l-.2-1.73a2.09,2.09,0,0,0-.07-.33c-.06-.17-.15-.24-.28-.2-.42.14-.79,1-1.11,2.57l.15,1.26Z"/><path class="cls-9" d="M44.14,48.83l0-.31a4.68,4.68,0,0,0,0-1.45c-.08-.36-.21-.55-.4-.57s-.41.15-.66.5l.1-.33c.31-.35.58-.51.82-.49.54,0,.75.74.64,2.09v.12l.21-.21a3.09,3.09,0,0,0,1-1.41.61.61,0,0,0-.12-.4h.5a.58.58,0,0,1,.08.32.78.78,0,0,1-.19.42,10.25,10.25,0,0,1-.76.8l-.9.89Z"/><path class="cls-9" d="M47.31,49a.62.62,0,0,1-.5-.25.89.89,0,0,1-.18-.6A1.85,1.85,0,0,1,47.18,47a1.52,1.52,0,0,1,1.13-.52.69.69,0,0,1,.52.26.85.85,0,0,1,.18.59,1.79,1.79,0,0,1-.55,1.23A1.48,1.48,0,0,1,47.31,49Zm.27-.19a.74.74,0,0,0,.62-.41,2.11,2.11,0,0,0,.3-1c0-.51-.13-.77-.44-.78s-.42.13-.61.43a2,2,0,0,0-.31,1C47.12,48.57,47.27,48.83,47.58,48.84Z"/><path class="cls-9" d="M49.61,49.09l.17-.72L50,47.23a3.39,3.39,0,0,0,0-.35.12.12,0,0,0-.14-.14c-.15,0-.38.17-.68.51l0-.21a1.38,1.38,0,0,1,.9-.56.31.31,0,0,1,.34.35,2.91,2.91,0,0,1,0,.39l-.11.58h0a3.79,3.79,0,0,1,.64-1,1,1,0,0,1,.64-.36.34.34,0,0,1,.27.12.5.5,0,0,1,.11.3,2.43,2.43,0,0,1,0,.33l-.11.56h0a3,3,0,0,1,.59-1,1,1,0,0,1,.64-.38c.27,0,.41.14.42.43a1.33,1.33,0,0,1,0,.32l-.21,1.14a3,3,0,0,0,0,.34c0,.1,0,.15.14.15s.38-.18.68-.52l0,.22a1.36,1.36,0,0,1-.9.55.3.3,0,0,1-.34-.34,2,2,0,0,1,0-.4l.21-1.13a1.34,1.34,0,0,0,0-.22c0-.13-.05-.19-.14-.19-.27,0-.65.47-1.15,1.4l-.17.84-.45,0,.34-1.84a1.34,1.34,0,0,0,0-.22c0-.13-.05-.2-.14-.2s-.29.14-.51.42a6.09,6.09,0,0,0-.65,1l-.16.82Z"/><path class="cls-9" d="M30.42,13.64l-.58-2.1a7.61,7.61,0,0,0-1.25-2.65,1.33,1.33,0,0,0-1.45-.59,1.61,1.61,0,0,0-1,1.14l-.18,0c.36-.91.8-1.45,1.32-1.61a1.71,1.71,0,0,1,1.87.68,8.72,8.72,0,0,1,1.41,3l.15.43.67-4.2.31-.2q.23.52.48,1l.2.42c.27.55.61,1.34,1,2.36l.3-1.71a7.75,7.75,0,0,0,.21-2.43q-.06-.18-.45-.06l-.13,0,0-.23,1.47-.45,0,.23-.32.1-1,5.76-.33.2L33,12.38a18,18,0,0,0-1.48-3.54l-.76,4.6Z"/><path class="cls-9" d="M39.05,10.37v.29a3.66,3.66,0,0,1-1.79,1.19,1.06,1.06,0,0,1-.9-.19,1.32,1.32,0,0,1-.5-.86,2.88,2.88,0,0,1,.39-2.06,2.25,2.25,0,0,1,1.47-1.23.75.75,0,0,1,.57.11.84.84,0,0,1,.31.52,1.49,1.49,0,0,1-.47,1.33,2.92,2.92,0,0,1-1.58.84l0,.16c.14.7.47,1,1,.89A3.14,3.14,0,0,0,39.05,10.37Zm-2.54-.28a2.52,2.52,0,0,0,1.18-.67,1.15,1.15,0,0,0,.27-1c-.08-.37-.25-.53-.51-.47s-.53.3-.72.74A2.76,2.76,0,0,0,36.51,10.09Z"/><path class="cls-9" d="M42.35,9.77v.35A2.18,2.18,0,0,1,41,11.19a.48.48,0,0,1-.61-.47,4.1,4.1,0,0,1,0-.62l0-1.3a5.54,5.54,0,0,0,0-.73c0-.2-.13-.29-.29-.27a3.31,3.31,0,0,0-.56.21V7.79l1.69-.85-.1,1.2L41.14,10a4.59,4.59,0,0,0,0,.55c0,.16.11.23.25.21S42,10.38,42.35,9.77ZM40.48,6.42l.17-.53.92-.82-.21.71Z"/><path class="cls-9" d="M43,10.83l.19-1.15.21-1.83a3.8,3.8,0,0,0,0-.56.2.2,0,0,0-.23-.21c-.24,0-.58.32-1,.89l0-.34a2.19,2.19,0,0,1,1.37-1,.49.49,0,0,1,.57.51,4,4,0,0,1,0,.63L44,8.71h.05A5.63,5.63,0,0,1,45,7.11a1.54,1.54,0,0,1,1-.64.52.52,0,0,1,.43.16.75.75,0,0,1,.2.47,3.12,3.12,0,0,1,0,.51l-.11.91h.05a5.66,5.66,0,0,1,.84-1.57,1.53,1.53,0,0,1,1-.66c.43,0,.67.18.7.64a2.33,2.33,0,0,1,0,.51l-.21,1.81a3.7,3.7,0,0,0,0,.55c0,.16.09.23.23.22s.59-.32,1-.89l0,.34a2.19,2.19,0,0,1-1.37,1A.49.49,0,0,1,48,9.93a4.45,4.45,0,0,1,0-.63l.22-1.81a1.7,1.7,0,0,0,0-.36c0-.2-.1-.3-.25-.28-.42,0-1,.81-1.67,2.34l-.17,1.34-.71.1.35-2.94c0-.17,0-.29,0-.36S45.75,7,45.6,7s-.43.25-.76.7a10.26,10.26,0,0,0-.92,1.67l-.16,1.31Z"/><path class="cls-9" d="M53.19,8.35h-.07a4.93,4.93,0,0,1-1,1.49,1.66,1.66,0,0,1-1.1.57c-.51,0-.77-.33-.76-1a3.3,3.3,0,0,1,.87-2.08,2.71,2.71,0,0,1,2.16-1l1.1.06L54.1,7.45l-.37,1.81a3.55,3.55,0,0,0-.09.55c0,.15.07.23.21.23s.61-.26,1.1-.79l-.07.34a2.12,2.12,0,0,1-1.45.84.48.48,0,0,1-.53-.55,5.72,5.72,0,0,1,.1-.63Zm.31-1.47a2.19,2.19,0,0,0-.91-.21,1.21,1.21,0,0,0-1.08.83A4.4,4.4,0,0,0,51,9.29c0,.39.11.58.34.58s.51-.21.91-.65a7.44,7.44,0,0,0,1-1.5Z"/><path class="cls-9" d="M55.54,10.46l.35-1.11.47-1.76a2.43,2.43,0,0,0,.08-.47c0-.21,0-.32-.2-.33s-.64.24-1.16.76l.09-.32a2.27,2.27,0,0,1,1.53-.82c.35,0,.51.24.48.64a2.8,2.8,0,0,1-.1.59l-.23.87h0A5.22,5.22,0,0,1,58,7.08a1.68,1.68,0,0,1,1.13-.51.86.86,0,0,1,.45.15l-.53.62a.69.69,0,0,0-.36-.16c-.47,0-1.15.62-2,2l-.36,1.32Z"/><path class="cls-9" d="M62.49,9.09h-.07a4.83,4.83,0,0,1-1.18,1.36,1.61,1.61,0,0,1-1.15.44c-.52-.07-.73-.42-.65-1.06a3.26,3.26,0,0,1,1.11-2,2.71,2.71,0,0,1,2.27-.77c.34,0,.71.1,1.08.18l-.4,1-.58,1.75a3.29,3.29,0,0,0-.16.54.21.21,0,0,0,.19.26c.24,0,.64-.19,1.19-.66l-.11.33a2.22,2.22,0,0,1-1.55.67.48.48,0,0,1-.45-.62,3.69,3.69,0,0,1,.16-.61ZM63,7.67a2.19,2.19,0,0,0-.88-.32,1.22,1.22,0,0,0-1.17.7,4.37,4.37,0,0,0-.69,1.72c0,.38,0,.58.26.61s.54-.15,1-.54A7.41,7.41,0,0,0,62.7,8.47Z"/><path class="cls-9" d="M64.5,11.46l.5-1.05.71-1.71a4.16,4.16,0,0,0,.19-.52c0-.15,0-.24-.16-.27s-.65.15-1.24.58l.14-.32a2.12,2.12,0,0,1,1.58-.56.47.47,0,0,1,.41.64,5,5,0,0,1-.21.6l-.36.85h.06a5.36,5.36,0,0,1,1.31-1.27,1.66,1.66,0,0,1,1.17-.35c.4.08.55.34.46.78a2.27,2.27,0,0,1-.17.5l-.7,1.69a5,5,0,0,0-.2.52.2.2,0,0,0,.17.27c.24.05.65-.14,1.24-.57l-.14.32a2.17,2.17,0,0,1-1.58.55.47.47,0,0,1-.41-.64,3.1,3.1,0,0,1,.21-.6l.71-1.69a2.53,2.53,0,0,0,.11-.33c0-.19,0-.31-.16-.34-.45-.09-1.24.51-2.34,1.79l-.53,1.23Z"/><path class="cls-9" d="M72.77,12.38l-.13.26a3.83,3.83,0,0,1-2.14.25,1.1,1.1,0,0,1-.71-.58,1.32,1.32,0,0,1-.06-1A2.9,2.9,0,0,1,71,9.65a2.28,2.28,0,0,1,1.88-.42.7.7,0,0,1,.45.35.84.84,0,0,1,0,.61,1.49,1.49,0,0,1-1,1,3,3,0,0,1-1.79,0l0,.16c-.19.69,0,1.1.47,1.24A3,3,0,0,0,72.77,12.38ZM70.64,11A2.48,2.48,0,0,0,72,10.91a1.13,1.13,0,0,0,.69-.77c.1-.36,0-.58-.24-.65a1.12,1.12,0,0,0-1,.33A2.8,2.8,0,0,0,70.64,11Z"/><path class="cls-9" d="M73.49,13.74l.63-1,.94-1.57a4.08,4.08,0,0,0,.21-.42c.07-.2,0-.32-.11-.37s-.68,0-1.32.41l.17-.29a2.3,2.3,0,0,1,1.69-.37q.49.18.3.75a3.29,3.29,0,0,1-.26.54l-.46.77,0,0a5.08,5.08,0,0,1,1.48-1.07A1.63,1.63,0,0,1,78,11a1,1,0,0,1,.39.26l-.68.46a.67.67,0,0,0-.3-.25c-.45-.16-1.28.29-2.49,1.34L74.24,14Z"/></svg>